<?xml version="1.0" encoding="UTF-8"?>
<!DOCTYPE svg PUBLIC "-//W3C//DTD SVG 1.1//EN" "http://www.w3.org/Graphics/SVG/1.1/DTD/svg11.dtd">
<svg xmlns="http://www.w3.org/2000/svg" version="1.1" width="600px" height="600px" style="shape-rendering:geometricPrecision; text-rendering:geometricPrecision; image-rendering:optimizeQuality; fill-rule:evenodd; clip-rule:evenodd" xmlns:xlink="http://www.w3.org/1999/xlink">
<g><path style="opacity:1" fill="#eceff4" d="M -0.5,-0.5 C 37.1667,-0.5 74.8333,-0.5 112.5,-0.5C 112.657,0.873441 112.49,2.20677 112,3.5C 111.107,2.28882 110.274,2.28882 109.5,3.5C 110.244,6.44299 110.744,9.44299 111,12.5C 111.635,11.0337 112.469,9.70034 113.5,8.5C 112.833,7.83333 112.167,7.16667 111.5,6.5C 111.833,6.16667 112.167,5.83333 112.5,5.5C 114.063,6.94478 115.396,8.61145 116.5,10.5C 118.502,8.82685 120.169,6.82685 121.5,4.5C 122.449,11.755 123.949,12.0883 126,5.5C 126.562,7.86605 126.396,10.1994 125.5,12.5C 125.97,15.5499 126.803,15.8832 128,13.5C 128.167,14.1667 128.333,14.8333 128.5,15.5C 128.167,18.1667 127.833,20.8333 127.5,23.5C 125.79,25.7079 124.29,28.0412 123,30.5C 121.883,30.3349 120.716,30.0016 119.5,29.5C 119.167,30.1667 118.833,30.8333 118.5,31.5C 119.163,34.8058 119.663,38.1392 120,41.5C 120.869,44.7626 122.203,45.0959 124,42.5C 124.981,45.6887 126.314,46.022 128,43.5C 128.684,44.7839 128.517,45.9505 127.5,47C 128.167,47.3333 128.833,47.6667 129.5,48C 127.513,50.4699 127.013,53.3033 128,56.5C 128.333,54.5 128.667,52.5 129,50.5C 130.316,53.028 131.483,53.028 132.5,50.5C 130.219,48.326 130.219,46.326 132.5,44.5C 129.867,43.1156 129.867,41.7822 132.5,40.5C 133.386,41.325 133.719,42.325 133.5,43.5C 134.5,43.5 135.5,43.5 136.5,43.5C 136.045,45.3666 135.378,47.1999 134.5,49C 135.331,52.1081 136.164,51.9415 137,48.5C 138.043,50.7006 138.877,53.0339 139.5,55.5C 139.942,51.5376 141.109,47.8709 143,44.5C 142.909,50.2201 142.075,55.8868 140.5,61.5C 140.833,62.1667 141.167,62.8333 141.5,63.5C 142.104,60.7367 143.438,58.4034 145.5,56.5C 143.995,55.1585 143.328,53.4918 143.5,51.5C 146.167,51.5 148.833,51.5 151.5,51.5C 151.523,53.9267 152.023,56.26 153,58.5C 153.833,57.6667 154.667,56.8333 155.5,56C 152.734,53.6733 152.068,50.84 153.5,47.5C 154.399,50.3944 155.732,53.0611 157.5,55.5C 158.086,55.2907 158.586,54.9574 159,54.5C 159.16,50.7125 159.826,47.0458 161,43.5C 162.563,46.0443 164.063,46.0443 165.5,43.5C 165.833,44 166.167,44.5 166.5,45C 163.9,48.2049 163.9,51.3716 166.5,54.5C 165.915,57.5027 165.248,60.5027 164.5,63.5C 164.27,58.4238 163.77,53.4238 163,48.5C 162.692,47.6919 162.192,47.0253 161.5,46.5C 161.167,47.6667 160.833,48.8333 160.5,50C 161.099,54.4885 161.599,58.9885 162,63.5C 162.635,64.9663 163.469,66.2997 164.5,67.5C 162.157,68.7253 160.323,68.0586 159,65.5C 158.221,67.9063 159.054,69.573 161.5,70.5C 160.5,71.1667 159.5,71.8333 158.5,72.5C 159.36,74.9307 161.027,76.264 163.5,76.5C 163.161,81.3673 164.328,81.7006 167,77.5C 167.333,78.1667 167.667,78.8333 168,79.5C 169.383,76.6318 170.216,73.6318 170.5,70.5C 173.613,70.0646 174.279,71.0646 172.5,73.5C 173.95,76.3426 175.116,79.3426 176,82.5C 176.593,78.6476 177.76,74.9809 179.5,71.5C 180.349,73.8935 181.349,76.2269 182.5,78.5C 185.765,80.707 187.765,83.707 188.5,87.5C 184.237,88.4089 179.903,89.0755 175.5,89.5C 172.387,89.4377 169.554,88.7711 167,87.5C 164.81,90.2486 163.143,89.9153 162,86.5C 161.308,87.0253 160.808,87.6919 160.5,88.5C 151.859,89.498 143.192,89.8314 134.5,89.5C 133.399,88.4017 132.066,88.235 130.5,89C 130.833,89.3333 131.167,89.6667 131.5,90C 119.486,90.1674 107.486,90.6674 95.5,91.5C 93.0801,93.219 90.7467,93.3857 88.5,92C 88.8333,91.6667 89.1667,91.3333 89.5,91C 88.552,90.5172 87.552,90.3505 86.5,90.5C 86.719,89.325 86.3857,88.325 85.5,87.5C 85.1667,87.8333 84.8333,88.1667 84.5,88.5C 86.8287,92.0803 87.3287,95.747 86,99.5C 85.1667,97.5 84.3333,95.5 83.5,93.5C 82.5853,94.3279 81.9186,95.3279 81.5,96.5C 83.6562,98.6289 85.3229,100.962 86.5,103.5C 83.9556,103.896 81.7889,103.229 80,101.5C 79.5172,102.448 79.3505,103.448 79.5,104.5C 81.8333,104.5 84.1667,104.5 86.5,104.5C 86.5,105.5 86.5,106.5 86.5,107.5C 84.1667,107.5 81.8333,107.5 79.5,107.5C 79.5,108.5 79.5,109.5 79.5,110.5C 81.8568,110.337 84.1902,110.503 86.5,111C 84.1116,111.303 81.9449,112.137 80,113.5C 78.9688,112.3 78.1355,110.966 77.5,109.5C 78.446,107.742 78.446,106.075 77.5,104.5C 76.1667,106.5 74.8333,108.5 73.5,110.5C 73.5288,105.885 72.8621,101.218 71.5,96.5C 70.5,95.1667 69.5,95.1667 68.5,96.5C 69.5,97.8333 70.5,99.1667 71.5,100.5C 70.467,101.452 69.3004,101.452 68,100.5C 66.416,100.988 65.2494,101.988 64.5,103.5C 63.5713,102.311 63.238,100.978 63.5,99.5C 62.1667,99.5 60.8333,99.5 59.5,99.5C 59.5,97.5 59.5,95.5 59.5,93.5C 60.8333,93.5 62.1667,93.5 63.5,93.5C 63.5,92.1667 63.5,90.8333 63.5,89.5C 61.0706,89.1156 58.7373,88.449 56.5,87.5C 56.3354,85.1732 55.6687,83.0065 54.5,81C 55.0968,79.9383 55.4302,78.7716 55.5,77.5C 53.387,70.2555 53.0537,62.9222 54.5,55.5C 55.3275,59.7956 55.8275,64.1289 56,68.5C 56.2906,63.9733 57.7906,59.9733 60.5,56.5C 59.6906,54.9291 59.3573,53.2624 59.5,51.5C 60.5,51.5 61.5,51.5 62.5,51.5C 62.5111,53.5466 62.8444,55.5466 63.5,57.5C 61.5714,61.6975 59.9047,66.0309 58.5,70.5C 59.2888,72.4879 60.4555,72.8213 62,71.5C 62.567,68.8323 63.067,66.1656 63.5,63.5C 67.226,63.8226 70.8927,63.4892 74.5,62.5C 70.5,60.5 70.5,58.5 74.5,56.5C 71.8718,55.5344 69.8718,53.8677 68.5,51.5C 71.076,49.1219 72.076,46.1219 71.5,42.5C 70.1667,42.5 68.8333,42.5 67.5,42.5C 67.7852,40.712 67.4519,39.0453 66.5,37.5C 65.8333,38.1667 65.1667,38.8333 64.5,39.5C 61.2506,23.5565 59.9172,23.5565 60.5,39.5C 58.8333,39.5 57.1667,39.5 55.5,39.5C 55.5,36.8333 55.5,34.1667 55.5,31.5C 53.857,31.5198 52.5237,30.8532 51.5,29.5C 49.5458,30.6797 47.3791,31.3463 45,31.5C 40.5113,30.9595 36.0113,30.6262 31.5,30.5C 31.6646,33.5184 31.498,36.5184 31,39.5C 30.5026,36.854 30.3359,34.1873 30.5,31.5C 29.5,31.5 28.5,31.5 27.5,31.5C 27.4778,35.5932 26.8112,39.5932 25.5,43.5C 25.8599,45.6079 26.5266,47.6079 27.5,49.5C 27.2811,50.938 26.7811,52.2713 26,53.5C 24.5412,50.3313 23.7078,46.998 23.5,43.5C 24.3328,39.5138 24.4994,35.5138 24,31.5C 23.6924,30.6919 23.1924,30.0253 22.5,29.5C 20.5,32.1667 18.5,32.1667 16.5,29.5C 15.8076,30.0253 15.3076,30.6919 15,31.5C 14.5008,26.8452 14.3342,22.1785 14.5,17.5C 13.5,17.5 12.5,17.5 11.5,17.5C 11.8266,22.2137 11.4933,26.8804 10.5,31.5C 8.36217,32.4289 7.1955,34.0955 7,36.5C 3.30108,33.2239 3.80108,31.5573 8.5,31.5C 8.29501,25.3985 8.29501,19.3985 8.5,13.5C 7.87729,11.1858 7.54396,11.5192 7.5,14.5C 4.83333,14.5 2.16667,14.5 -0.5,14.5C -0.5,9.5 -0.5,4.5 -0.5,-0.5 Z"/></g>
<g><path style="opacity:1" fill="#dfe3e9" d="M 261.5,-0.5 C 331.5,-0.5 401.5,-0.5 471.5,-0.5C 471.261,1.4672 471.594,3.30054 472.5,5C 471.455,6.61585 470.455,8.28251 469.5,10C 472.515,11.692 473.015,13.8586 471,16.5C 470.855,12.1869 468.689,10.3536 464.5,11C 466.741,12.7391 468.408,14.9058 469.5,17.5C 468.167,17.5 466.833,17.5 465.5,17.5C 466.833,18.8333 466.833,20.1667 465.5,21.5C 466.709,23.4145 468.042,25.2478 469.5,27C 468.65,28.2859 467.483,28.1192 466,26.5C 465.51,27.7932 465.343,29.1266 465.5,30.5C 467.981,30.3234 469.814,31.3234 471,33.5C 471.3,28.6692 471.133,24.0025 470.5,19.5C 470.846,18.3044 471.346,18.3044 472,19.5C 472.333,20.8333 472.667,22.1667 473,23.5C 473.333,23.1667 473.667,22.8333 474,22.5C 473.743,17.468 473.91,12.468 474.5,7.5C 475.978,18.1073 477.144,18.1073 478,7.5C 478.392,10.6272 479.225,13.6272 480.5,16.5C 479.617,17.548 478.95,18.7147 478.5,20C 481.128,22.8742 481.462,25.7076 479.5,28.5C 480.194,32.1901 481.028,35.8568 482,39.5C 482.837,37.1558 484.171,35.1558 486,33.5C 487.075,37.8583 486.408,41.8583 484,45.5C 482.865,45.727 481.698,46.0604 480.5,46.5C 483.01,49.3616 483.677,52.5283 482.5,56C 483.025,56.6924 483.692,57.1924 484.5,57.5C 485.641,54.9382 486.474,52.2716 487,49.5C 487.333,53.8333 487.667,58.1667 488,62.5C 489.167,60.6667 490.667,59.1667 492.5,58C 491.289,57.1072 491.289,56.2739 492.5,55.5C 495.106,58.3376 494.606,60.671 491,62.5C 489.643,64.6549 489.476,66.8215 490.5,69C 486.594,69.4851 486.594,70.9851 490.5,73.5C 491.625,70.5456 492.625,67.5456 493.5,64.5C 493.531,67.2769 494.031,69.9436 495,72.5C 495.131,69.6288 496.297,67.2954 498.5,65.5C 499.5,66.1667 500.5,66.8333 501.5,67.5C 502.521,66.9984 502.688,66.3317 502,65.5C 500.702,64.4404 499.535,63.2737 498.5,62C 498.833,61.5 499.167,61 499.5,60.5C 500.814,61.3128 501.981,62.3128 503,63.5C 502.787,69.4223 503.121,75.4223 504,81.5C 504.939,78.8791 505.772,76.2125 506.5,73.5C 507.466,75.396 507.799,77.396 507.5,79.5C 508.873,79.3433 510.207,79.51 511.5,80C 510.333,81.8333 508.833,83.3333 507,84.5C 506.311,83.6433 505.478,82.9767 504.5,82.5C 503.231,84.6948 503.231,86.8615 504.5,89C 498.05,88.898 491.884,89.7314 486,91.5C 485.581,90.3279 484.915,89.3279 484,88.5C 481.91,89.152 479.743,89.3187 477.5,89C 478.167,89.3333 478.833,89.6667 479.5,90C 474.177,90.4994 468.844,90.666 463.5,90.5C 463.5,91.5 463.5,92.5 463.5,93.5C 422.5,93.5 381.5,93.5 340.5,93.5C 340.611,92.8826 340.944,92.3826 341.5,92C 338.833,91.6667 336.167,91.3333 333.5,91C 334.833,90.6667 336.167,90.3333 337.5,90C 324.817,89.2456 312.151,89.4123 299.5,90.5C 297.366,90.4847 295.366,89.9847 293.5,89C 294.167,88.6667 294.833,88.3333 295.5,88C 294.376,87.7508 293.376,87.2508 292.5,86.5C 292.938,85.4937 293.604,85.4937 294.5,86.5C 295.5,85.1667 296.5,83.8333 297.5,82.5C 298.192,83.0253 298.692,83.6919 299,84.5C 303.721,83.3439 304.721,80.6773 302,76.5C 299.852,80.6142 298.518,80.2809 298,75.5C 296.657,80.68 295.157,80.68 293.5,75.5C 292.667,76.5 291.833,77.5 291,78.5C 290.415,76.8707 289.581,75.3707 288.5,74C 289.931,71.7084 290.764,69.2084 291,66.5C 291.036,68.9412 291.869,70.9412 293.5,72.5C 297.039,71.2359 300.039,69.2359 302.5,66.5C 300.882,64.684 298.882,63.3507 296.5,62.5C 295.517,58.7194 294.35,55.0528 293,51.5C 292.631,54.877 292.631,58.2103 293,61.5C 292.667,61.1667 292.333,60.8333 292,60.5C 291.167,61.5 290.333,62.5 289.5,63.5C 288.334,61.6351 288.667,59.9684 290.5,58.5C 290,57.5 289.5,56.5 289,55.5C 288.028,57.3049 286.861,58.9716 285.5,60.5C 286.59,61.6086 286.59,62.6086 285.5,63.5C 284.5,62.8333 283.5,62.1667 282.5,61.5C 282.595,64.7301 282.095,68.0634 281,71.5C 279.584,63.4489 277.751,55.4489 275.5,47.5C 274.178,47.33 273.011,47.6634 272,48.5C 270.965,45.0368 271.798,42.2035 274.5,40C 273.552,39.5172 272.552,39.3505 271.5,39.5C 271.12,33.4262 270.954,27.4262 271,21.5C 270.692,22.3081 270.192,22.9747 269.5,23.5C 267.249,20.1864 265.749,16.5197 265,12.5C 264.667,13.8333 264.333,15.1667 264,16.5C 263.764,14.236 263.264,12.0693 262.5,10C 263.901,8.32302 265.235,6.65635 266.5,5C 266.167,4.5 265.833,4 265.5,3.5C 264.785,5.77802 263.618,7.11135 262,7.5C 261.503,4.85397 261.336,2.1873 261.5,-0.5 Z"/></g>
<g><path style="opacity:1" fill="#d8dde2" d="M 471.5,-0.5 C 514.167,-0.5 556.833,-0.5 599.5,-0.5C 599.5,31.5 599.5,63.5 599.5,95.5C 597.348,96.0768 597.015,97.2435 598.5,99C 597.333,99.5 596.5,100.333 596,101.5C 595.667,100.833 595.333,100.167 595,99.5C 594.667,100.833 594.333,102.167 594,103.5C 593.667,103.167 593.333,102.833 593,102.5C 592.077,103.759 591.243,105.092 590.5,106.5C 588.5,103.833 586.5,103.833 584.5,106.5C 583.708,108.465 583.041,110.465 582.5,112.5C 584.124,113.869 584.624,115.536 584,117.5C 582.101,118.038 579.934,118.705 577.5,119.5C 577.813,122.247 577.48,124.914 576.5,127.5C 574.314,123.602 572.148,123.602 570,127.5C 568.935,124.567 568.435,121.567 568.5,118.5C 569.833,118.5 571.167,118.5 572.5,118.5C 570.378,116.549 568.878,114.215 568,111.5C 567.667,112.167 567.333,112.833 567,113.5C 566.461,110.471 565.794,107.471 565,104.5C 561.65,101.793 559.983,102.793 560,107.5C 559.667,106.5 559.333,105.5 559,104.5C 558.822,107.542 557.988,110.375 556.5,113C 558.068,115.631 557.568,117.797 555,119.5C 554.818,122.226 554.318,124.893 553.5,127.5C 551.478,122.82 550.311,117.487 550,111.5C 548.928,114.218 547.762,116.885 546.5,119.5C 546.167,119.167 545.833,118.833 545.5,118.5C 546.752,116.265 547.252,113.931 547,111.5C 546.259,110.359 545.425,110.359 544.5,111.5C 543.106,109.016 541.606,109.016 540,111.5C 539.05,110.978 538.216,110.311 537.5,109.5C 537.247,104.59 536.747,99.9234 536,95.5C 536.308,96.3081 536.808,96.9747 537.5,97.5C 539.642,94.5721 541.642,91.5721 543.5,88.5C 541.233,87.7293 539.4,86.3959 538,84.5C 537.5,84.8333 537,85.1667 536.5,85.5C 539.167,88.3359 539,91.0026 536,93.5C 534.935,89.4307 532.935,88.764 530,91.5C 527.436,90.4229 526.936,91.2562 528.5,94C 523.536,94.9122 518.536,95.4122 513.5,95.5C 515.518,99.004 514.684,101.671 511,103.5C 510.043,106.379 510.543,108.879 512.5,111C 511.483,115.263 511.483,119.596 512.5,124C 512.695,126.352 512.028,128.352 510.5,130C 512.885,133.08 512.885,136.247 510.5,139.5C 511.167,145.833 511.833,152.167 512.5,158.5C 511.85,166.458 511.517,174.458 511.5,182.5C 512.148,194.961 512.815,207.295 513.5,219.5C 512.871,229.031 512.205,238.531 511.5,248C 512.499,300.112 512.832,352.278 512.5,404.5C 511.981,414.578 511.981,424.411 512.5,434C 511.87,435.892 510.87,437.559 509.5,439C 510.656,452.425 510.822,465.925 510,479.5C 509,484.833 508,490.167 507,495.5C 506.658,493.381 505.825,493.047 504.5,494.5C 504.5,489.5 504.5,484.5 504.5,479.5C 505.314,477.369 505.814,475.036 506,472.5C 506.028,453.437 507.028,434.437 509,415.5C 509.2,387.487 509.7,359.487 510.5,331.5C 510.167,328.833 509.833,326.167 509.5,323.5C 510.167,307.5 510.833,291.5 511.5,275.5C 510.833,220.834 509.833,166.167 508.5,111.5C 507.748,107.808 506.914,104.142 506,100.5C 505.617,101.056 505.117,101.389 504.5,101.5C 504.5,98.8333 504.5,96.1667 504.5,93.5C 490.833,93.5 477.167,93.5 463.5,93.5C 463.5,92.5 463.5,91.5 463.5,90.5C 468.844,90.666 474.177,90.4994 479.5,90C 478.833,89.6667 478.167,89.3333 477.5,89C 479.743,89.3187 481.91,89.152 484,88.5C 484.915,89.3279 485.581,90.3279 486,91.5C 491.884,89.7314 498.05,88.898 504.5,89C 503.231,86.8615 503.231,84.6948 504.5,82.5C 505.478,82.9767 506.311,83.6433 507,84.5C 508.833,83.3333 510.333,81.8333 511.5,80C 510.207,79.51 508.873,79.3433 507.5,79.5C 507.799,77.396 507.466,75.396 506.5,73.5C 505.772,76.2125 504.939,78.8791 504,81.5C 503.121,75.4223 502.787,69.4223 503,63.5C 501.981,62.3128 500.814,61.3128 499.5,60.5C 499.167,61 498.833,61.5 498.5,62C 499.535,63.2737 500.702,64.4404 502,65.5C 502.688,66.3317 502.521,66.9984 501.5,67.5C 500.5,66.8333 499.5,66.1667 498.5,65.5C 496.297,67.2954 495.131,69.6288 495,72.5C 494.031,69.9436 493.531,67.2769 493.5,64.5C 492.625,67.5456 491.625,70.5456 490.5,73.5C 486.594,70.9851 486.594,69.4851 490.5,69C 489.476,66.8215 489.643,64.6549 491,62.5C 494.606,60.671 495.106,58.3376 492.5,55.5C 491.289,56.2739 491.289,57.1072 492.5,58C 490.667,59.1667 489.167,60.6667 488,62.5C 487.667,58.1667 487.333,53.8333 487,49.5C 486.474,52.2716 485.641,54.9382 484.5,57.5C 483.692,57.1924 483.025,56.6924 482.5,56C 483.677,52.5283 483.01,49.3616 480.5,46.5C 481.698,46.0604 482.865,45.727 484,45.5C 486.408,41.8583 487.075,37.8583 486,33.5C 484.171,35.1558 482.837,37.1558 482,39.5C 481.028,35.8568 480.194,32.1901 479.5,28.5C 481.462,25.7076 481.128,22.8742 478.5,20C 478.95,18.7147 479.617,17.548 480.5,16.5C 479.225,13.6272 478.392,10.6272 478,7.5C 477.144,18.1073 475.978,18.1073 474.5,7.5C 473.91,12.468 473.743,17.468 474,22.5C 473.667,22.8333 473.333,23.1667 473,23.5C 472.667,22.1667 472.333,20.8333 472,19.5C 471.346,18.3044 470.846,18.3044 470.5,19.5C 471.133,24.0025 471.3,28.6692 471,33.5C 469.814,31.3234 467.981,30.3234 465.5,30.5C 465.343,29.1266 465.51,27.7932 466,26.5C 467.483,28.1192 468.65,28.2859 469.5,27C 468.042,25.2478 466.709,23.4145 465.5,21.5C 466.833,20.1667 466.833,18.8333 465.5,17.5C 466.833,17.5 468.167,17.5 469.5,17.5C 468.408,14.9058 466.741,12.7391 464.5,11C 468.689,10.3536 470.855,12.1869 471,16.5C 473.015,13.8586 472.515,11.692 469.5,10C 470.455,8.28251 471.455,6.61585 472.5,5C 471.594,3.30054 471.261,1.4672 471.5,-0.5 Z"/></g>
<g><path style="opacity:1" fill="#eff1f6" d="M 134.5,89.5 C 139.985,90.3272 145.652,90.8272 151.5,91C 145.833,91.3333 140.167,91.6667 134.5,92C 140.348,92.1728 146.015,92.6728 151.5,93.5C 132.125,93.5253 112.958,93.5253 94,93.5C 93.3333,94.1667 92.6667,94.8333 92,95.5C 91.5,143.499 91.3333,191.499 91.5,239.5C 91.1667,239.5 90.8333,239.5 90.5,239.5C 90.3326,214.175 89.8326,214.175 89,239.5C 88.6667,234.167 88.3333,228.833 88,223.5C 87.1707,234.146 86.6707,234.146 86.5,223.5C 85.5,223.5 84.5,223.5 83.5,223.5C 83.4898,228.915 82.8231,234.248 81.5,239.5C 80.6684,231.521 80.1684,223.521 80,215.5C 79.6667,216.833 79.3333,218.167 79,219.5C 77.8063,217.377 77.1397,215.043 77,212.5C 75.1735,211.159 74.0069,211.659 73.5,214C 74.8847,215.597 75.5514,217.43 75.5,219.5C 74.5,219.5 73.5,219.5 72.5,219.5C 72.762,220.978 72.4287,222.311 71.5,223.5C 70.4569,220.579 68.7903,218.079 66.5,216C 68.3213,213.544 68.988,210.711 68.5,207.5C 67.1667,207.5 65.8333,207.5 64.5,207.5C 64.3473,202.519 63.014,197.852 60.5,193.5C 59.7234,195.781 58.7234,197.948 57.5,200C 62.8333,202.333 62.8333,204.667 57.5,207C 58.4438,209.719 58.7771,212.552 58.5,215.5C 57.5,215.5 56.5,215.5 55.5,215.5C 55.5,213.833 55.5,212.167 55.5,210.5C 52.8333,210.5 50.1667,210.5 47.5,210.5C 47.5,209.5 47.5,208.5 47.5,207.5C 50.7877,207.927 53.7877,207.26 56.5,205.5C 57.5755,201.554 55.9089,199.554 51.5,199.5C 48.8141,198.988 46.1475,198.821 43.5,199C 44.7825,201.795 44.7825,204.628 43.5,207.5C 42.0222,196.893 40.8555,196.893 40,207.5C 39.6667,205.167 39.3333,202.833 39,200.5C 36.8149,202.54 34.3149,203.874 31.5,204.5C 31.3359,201.813 31.5026,199.146 32,196.5C 32.2492,197.624 32.7492,198.624 33.5,199.5C 33.8333,198.833 34.1667,198.167 34.5,197.5C 33.2455,195.666 32.5789,193.666 32.5,191.5C 31.5,191.5 30.5,191.5 29.5,191.5C 29.7984,187.399 28.1318,184.733 24.5,183.5C 25.0209,178.212 25.1875,172.879 25,167.5C 25.9001,172.982 27.2335,178.316 29,183.5C 29.7611,180.947 30.5944,178.447 31.5,176C 34.8168,175.502 38.1501,175.335 41.5,175.5C 41.3398,173.801 41.5065,172.134 42,170.5C 43.4961,174.163 45.4961,177.496 48,180.5C 48.1484,178.095 47.6484,175.761 46.5,173.5C 47.5284,171.44 47.5284,169.44 46.5,167.5C 45.914,167.709 45.414,168.043 45,168.5C 44.0575,158.835 43.2242,158.501 42.5,167.5C 41.1667,167.5 39.8333,167.5 38.5,167.5C 38.2526,161.459 38.5859,155.459 39.5,149.5C 35.6892,145.649 33.3559,140.983 32.5,135.5C 31.8333,134.833 31.1667,134.167 30.5,133.5C 24.0577,136.896 22.0577,135.063 24.5,128C 23.552,127.517 22.552,127.351 21.5,127.5C 21.4846,134.24 20.818,140.906 19.5,147.5C 17.4028,147.003 15.5695,146.67 14,146.5C 13.2736,138.647 14.1069,130.98 16.5,123.5C 16.3333,122.833 16.1667,122.167 16,121.5C 14.331,123.169 13.4977,125.169 13.5,127.5C 12.5,127.5 11.5,127.5 10.5,127.5C 10.4106,134.351 9.57724,141.018 8,147.5C 5.8484,142.101 6.01506,136.768 8.5,131.5C 8,127.5 7.5,123.5 7,119.5C 5.88686,118.289 4.7202,118.289 3.5,119.5C 2.51366,122.856 2.34699,126.19 3,129.5C 2.66667,129.833 2.33333,130.167 2,130.5C 1.2917,129.619 0.458367,128.953 -0.5,128.5C -0.5,90.5 -0.5,52.5 -0.5,14.5C 2.16667,14.5 4.83333,14.5 7.5,14.5C 7.54396,11.5192 7.87729,11.1858 8.5,13.5C 8.29501,19.3985 8.29501,25.3985 8.5,31.5C 3.80108,31.5573 3.30108,33.2239 7,36.5C 7.1955,34.0955 8.36217,32.4289 10.5,31.5C 11.4933,26.8804 11.8266,22.2137 11.5,17.5C 12.5,17.5 13.5,17.5 14.5,17.5C 14.3342,22.1785 14.5008,26.8452 15,31.5C 15.3076,30.6919 15.8076,30.0253 16.5,29.5C 18.5,32.1667 20.5,32.1667 22.5,29.5C 23.1924,30.0253 23.6924,30.6919 24,31.5C 24.4994,35.5138 24.3328,39.5138 23.5,43.5C 23.7078,46.998 24.5412,50.3313 26,53.5C 26.7811,52.2713 27.2811,50.938 27.5,49.5C 26.5266,47.6079 25.8599,45.6079 25.5,43.5C 26.8112,39.5932 27.4778,35.5932 27.5,31.5C 28.5,31.5 29.5,31.5 30.5,31.5C 30.3359,34.1873 30.5026,36.854 31,39.5C 31.498,36.5184 31.6646,33.5184 31.5,30.5C 36.0113,30.6262 40.5113,30.9595 45,31.5C 47.3791,31.3463 49.5458,30.6797 51.5,29.5C 52.5237,30.8532 53.857,31.5198 55.5,31.5C 55.5,34.1667 55.5,36.8333 55.5,39.5C 57.1667,39.5 58.8333,39.5 60.5,39.5C 59.9172,23.5565 61.2506,23.5565 64.5,39.5C 65.1667,38.8333 65.8333,38.1667 66.5,37.5C 67.4519,39.0453 67.7852,40.712 67.5,42.5C 68.8333,42.5 70.1667,42.5 71.5,42.5C 72.076,46.1219 71.076,49.1219 68.5,51.5C 69.8718,53.8677 71.8718,55.5344 74.5,56.5C 70.5,58.5 70.5,60.5 74.5,62.5C 70.8927,63.4892 67.226,63.8226 63.5,63.5C 63.067,66.1656 62.567,68.8323 62,71.5C 60.4555,72.8213 59.2888,72.4879 58.5,70.5C 59.9047,66.0309 61.5714,61.6975 63.5,57.5C 62.8444,55.5466 62.5111,53.5466 62.5,51.5C 61.5,51.5 60.5,51.5 59.5,51.5C 59.3573,53.2624 59.6906,54.9291 60.5,56.5C 57.7906,59.9733 56.2906,63.9733 56,68.5C 55.8275,64.1289 55.3275,59.7956 54.5,55.5C 53.0537,62.9222 53.387,70.2555 55.5,77.5C 55.4302,78.7716 55.0968,79.9383 54.5,81C 55.6687,83.0065 56.3354,85.1732 56.5,87.5C 58.7373,88.449 61.0706,89.1156 63.5,89.5C 63.5,90.8333 63.5,92.1667 63.5,93.5C 62.1667,93.5 60.8333,93.5 59.5,93.5C 59.5,95.5 59.5,97.5 59.5,99.5C 60.8333,99.5 62.1667,99.5 63.5,99.5C 63.238,100.978 63.5713,102.311 64.5,103.5C 65.2494,101.988 66.416,100.988 68,100.5C 69.3004,101.452 70.467,101.452 71.5,100.5C 70.5,99.1667 69.5,97.8333 68.5,96.5C 69.5,95.1667 70.5,95.1667 71.5,96.5C 72.8621,101.218 73.5288,105.885 73.5,110.5C 74.8333,108.5 76.1667,106.5 77.5,104.5C 78.446,106.075 78.446,107.742 77.5,109.5C 78.1355,110.966 78.9688,112.3 80,113.5C 81.9449,112.137 84.1116,111.303 86.5,111C 84.1902,110.503 81.8568,110.337 79.5,110.5C 79.5,109.5 79.5,108.5 79.5,107.5C 81.8333,107.5 84.1667,107.5 86.5,107.5C 86.5,106.5 86.5,105.5 86.5,104.5C 84.1667,104.5 81.8333,104.5 79.5,104.5C 79.3505,103.448 79.5172,102.448 80,101.5C 81.7889,103.229 83.9556,103.896 86.5,103.5C 85.3229,100.962 83.6562,98.6289 81.5,96.5C 81.9186,95.3279 82.5853,94.3279 83.5,93.5C 84.3333,95.5 85.1667,97.5 86,99.5C 87.3287,95.747 86.8287,92.0803 84.5,88.5C 84.8333,88.1667 85.1667,87.8333 85.5,87.5C 86.3857,88.325 86.719,89.325 86.5,90.5C 87.552,90.3505 88.552,90.5172 89.5,91C 89.1667,91.3333 88.8333,91.6667 88.5,92C 90.7467,93.3857 93.0801,93.219 95.5,91.5C 107.486,90.6674 119.486,90.1674 131.5,90C 131.167,89.6667 130.833,89.3333 130.5,89C 132.066,88.235 133.399,88.4017 134.5,89.5 Z"/></g>
<g><path style="opacity:1" fill="#e6eaef" d="M 112.5,-0.5 C 162.167,-0.5 211.833,-0.5 261.5,-0.5C 261.336,2.1873 261.503,4.85397 262,7.5C 263.618,7.11135 264.785,5.77802 265.5,3.5C 265.833,4 266.167,4.5 266.5,5C 265.235,6.65635 263.901,8.32302 262.5,10C 263.264,12.0693 263.764,14.236 264,16.5C 264.333,15.1667 264.667,13.8333 265,12.5C 265.749,16.5197 267.249,20.1864 269.5,23.5C 270.192,22.9747 270.692,22.3081 271,21.5C 270.954,27.4262 271.12,33.4262 271.5,39.5C 272.552,39.3505 273.552,39.5172 274.5,40C 271.798,42.2035 270.965,45.0368 272,48.5C 273.011,47.6634 274.178,47.33 275.5,47.5C 277.751,55.4489 279.584,63.4489 281,71.5C 282.095,68.0634 282.595,64.7301 282.5,61.5C 283.5,62.1667 284.5,62.8333 285.5,63.5C 286.59,62.6086 286.59,61.6086 285.5,60.5C 286.861,58.9716 288.028,57.3049 289,55.5C 289.5,56.5 290,57.5 290.5,58.5C 288.667,59.9684 288.334,61.6351 289.5,63.5C 290.333,62.5 291.167,61.5 292,60.5C 292.333,60.8333 292.667,61.1667 293,61.5C 292.631,58.2103 292.631,54.877 293,51.5C 294.35,55.0528 295.517,58.7194 296.5,62.5C 298.882,63.3507 300.882,64.684 302.5,66.5C 300.039,69.2359 297.039,71.2359 293.5,72.5C 291.869,70.9412 291.036,68.9412 291,66.5C 290.764,69.2084 289.931,71.7084 288.5,74C 289.581,75.3707 290.415,76.8707 291,78.5C 291.833,77.5 292.667,76.5 293.5,75.5C 295.157,80.68 296.657,80.68 298,75.5C 298.518,80.2809 299.852,80.6142 302,76.5C 304.721,80.6773 303.721,83.3439 299,84.5C 298.692,83.6919 298.192,83.0253 297.5,82.5C 296.5,83.8333 295.5,85.1667 294.5,86.5C 293.604,85.4937 292.938,85.4937 292.5,86.5C 293.376,87.2508 294.376,87.7508 295.5,88C 294.833,88.3333 294.167,88.6667 293.5,89C 295.366,89.9847 297.366,90.4847 299.5,90.5C 312.151,89.4123 324.817,89.2456 337.5,90C 336.167,90.3333 334.833,90.6667 333.5,91C 336.167,91.3333 338.833,91.6667 341.5,92C 340.944,92.3826 340.611,92.8826 340.5,93.5C 277.5,93.5 214.5,93.5 151.5,93.5C 146.015,92.6728 140.348,92.1728 134.5,92C 140.167,91.6667 145.833,91.3333 151.5,91C 145.652,90.8272 139.985,90.3272 134.5,89.5C 143.192,89.8314 151.859,89.498 160.5,88.5C 160.808,87.6919 161.308,87.0253 162,86.5C 163.143,89.9153 164.81,90.2486 167,87.5C 169.554,88.7711 172.387,89.4377 175.5,89.5C 179.903,89.0755 184.237,88.4089 188.5,87.5C 187.765,83.707 185.765,80.707 182.5,78.5C 181.349,76.2269 180.349,73.8935 179.5,71.5C 177.76,74.9809 176.593,78.6476 176,82.5C 175.116,79.3426 173.95,76.3426 172.5,73.5C 174.279,71.0646 173.613,70.0646 170.5,70.5C 170.216,73.6318 169.383,76.6318 168,79.5C 167.667,78.8333 167.333,78.1667 167,77.5C 164.328,81.7006 163.161,81.3673 163.5,76.5C 161.027,76.264 159.36,74.9307 158.5,72.5C 159.5,71.8333 160.5,71.1667 161.5,70.5C 159.054,69.573 158.221,67.9063 159,65.5C 160.323,68.0586 162.157,68.7253 164.5,67.5C 163.469,66.2997 162.635,64.9663 162,63.5C 161.599,58.9885 161.099,54.4885 160.5,50C 160.833,48.8333 161.167,47.6667 161.5,46.5C 162.192,47.0253 162.692,47.6919 163,48.5C 163.77,53.4238 164.27,58.4238 164.5,63.5C 165.248,60.5027 165.915,57.5027 166.5,54.5C 163.9,51.3716 163.9,48.2049 166.5,45C 166.167,44.5 165.833,44 165.5,43.5C 164.063,46.0443 162.563,46.0443 161,43.5C 159.826,47.0458 159.16,50.7125 159,54.5C 158.586,54.9574 158.086,55.2907 157.5,55.5C 155.732,53.0611 154.399,50.3944 153.5,47.5C 152.068,50.84 152.734,53.6733 155.5,56C 154.667,56.8333 153.833,57.6667 153,58.5C 152.023,56.26 151.523,53.9267 151.5,51.5C 148.833,51.5 146.167,51.5 143.5,51.5C 143.328,53.4918 143.995,55.1585 145.5,56.5C 143.438,58.4034 142.104,60.7367 141.5,63.5C 141.167,62.8333 140.833,62.1667 140.5,61.5C 142.075,55.8868 142.909,50.2201 143,44.5C 141.109,47.8709 139.942,51.5376 139.5,55.5C 138.877,53.0339 138.043,50.7006 137,48.5C 136.164,51.9415 135.331,52.1081 134.5,49C 135.378,47.1999 136.045,45.3666 136.5,43.5C 135.5,43.5 134.5,43.5 133.5,43.5C 133.719,42.325 133.386,41.325 132.5,40.5C 129.867,41.7822 129.867,43.1156 132.5,44.5C 130.219,46.326 130.219,48.326 132.5,50.5C 131.483,53.028 130.316,53.028 129,50.5C 128.667,52.5 128.333,54.5 128,56.5C 127.013,53.3033 127.513,50.4699 129.5,48C 128.833,47.6667 128.167,47.3333 127.5,47C 128.517,45.9505 128.684,44.7839 128,43.5C 126.314,46.022 124.981,45.6887 124,42.5C 122.203,45.0959 120.869,44.7626 120,41.5C 119.663,38.1392 119.163,34.8058 118.5,31.5C 118.833,30.8333 119.167,30.1667 119.5,29.5C 120.716,30.0016 121.883,30.3349 123,30.5C 124.29,28.0412 125.79,25.7079 127.5,23.5C 127.833,20.8333 128.167,18.1667 128.5,15.5C 128.333,14.8333 128.167,14.1667 128,13.5C 126.803,15.8832 125.97,15.5499 125.5,12.5C 126.396,10.1994 126.562,7.86605 126,5.5C 123.949,12.0883 122.449,11.755 121.5,4.5C 120.169,6.82685 118.502,8.82685 116.5,10.5C 115.396,8.61145 114.063,6.94478 112.5,5.5C 112.167,5.83333 111.833,6.16667 111.5,6.5C 112.167,7.16667 112.833,7.83333 113.5,8.5C 112.469,9.70034 111.635,11.0337 111,12.5C 110.744,9.44299 110.244,6.44299 109.5,3.5C 110.274,2.28882 111.107,2.28882 112,3.5C 112.49,2.20677 112.657,0.873441 112.5,-0.5 Z"/></g>
<g><path style="opacity:1" fill="#fefefe" d="M 151.5,93.5 C 214.5,93.5 277.5,93.5 340.5,93.5C 381.5,93.5 422.5,93.5 463.5,93.5C 477.167,93.5 490.833,93.5 504.5,93.5C 504.5,96.1667 504.5,98.8333 504.5,101.5C 504.5,103.833 504.5,106.167 504.5,108.5C 504.5,215.833 504.5,323.167 504.5,430.5C 504.5,446.833 504.5,463.167 504.5,479.5C 504.5,484.5 504.5,489.5 504.5,494.5C 504.5,498.5 504.5,502.5 504.5,506.5C 464.167,506.5 423.833,506.5 383.5,506.5C 343.167,506.5 302.833,506.5 262.5,506.5C 214.664,506.168 166.997,506.501 119.5,507.5C 109.952,507.579 100.785,507.245 92,506.5C 91.5,417.501 91.3333,328.501 91.5,239.5C 91.3333,191.499 91.5,143.499 92,95.5C 92.6667,94.8333 93.3333,94.1667 94,93.5C 112.958,93.5253 132.125,93.5253 151.5,93.5 Z"/></g>
<g><path style="opacity:1" fill="#dce1e5" d="M 599.5,95.5 C 599.5,178.167 599.5,260.833 599.5,343.5C 598.518,344.141 597.518,344.807 596.5,345.5C 595.8,342.985 594.467,342.318 592.5,343.5C 591.752,340.503 591.085,337.503 590.5,334.5C 590,334.167 589.5,333.833 589,333.5C 587.943,334.627 586.777,335.127 585.5,335C 582.622,332.036 580.789,328.869 580,325.5C 577.645,326.15 575.478,326.15 573.5,325.5C 574.816,328.333 576.816,329.166 579.5,328C 578.646,329.022 577.646,329.855 576.5,330.5C 574.5,328.833 572.5,327.167 570.5,325.5C 569.252,326.04 568.085,326.707 567,327.5C 566.517,326.552 566.351,325.552 566.5,324.5C 567.978,324.762 569.311,324.429 570.5,323.5C 569.349,322.269 568.183,322.269 567,323.5C 564.848,321.723 565.015,320.223 567.5,319C 566.692,318.692 566.025,318.192 565.5,317.5C 566.833,316.167 566.833,314.833 565.5,313.5C 565.833,313.167 566.167,312.833 566.5,312.5C 567.167,313.833 567.833,315.167 568.5,316.5C 568.833,316.333 569.167,316.167 569.5,316C 568.833,314.333 568.167,312.667 567.5,311C 569.439,310.092 570.439,308.592 570.5,306.5C 569.5,306.5 568.5,306.5 567.5,306.5C 567.5,305.5 567.5,304.5 567.5,303.5C 565.425,303.302 563.425,303.135 561.5,303C 562.444,305.719 562.777,308.552 562.5,311.5C 561.448,311.649 560.448,311.483 559.5,311C 560.788,308.534 560.788,306.034 559.5,303.5C 560.182,300.634 561.516,298.134 563.5,296C 562.09,295.632 561.09,294.799 560.5,293.5C 564.21,291.759 564.376,289.759 561,287.5C 560.333,284.167 559.667,280.833 559,277.5C 558.131,280.756 557.631,284.089 557.5,287.5C 556.722,285.2 555.722,283.034 554.5,281C 554.905,280.055 555.572,279.388 556.5,279C 554.996,277.509 554.163,275.676 554,273.5C 553.077,274.759 552.243,276.092 551.5,277.5C 551.167,276.5 550.833,275.5 550.5,274.5C 551.349,272.996 552.182,271.33 553,269.5C 552,269.5 551,269.5 550,269.5C 549.647,271.074 548.98,272.741 548,274.5C 547.55,272.481 546.717,270.648 545.5,269C 546.617,265.927 546.784,262.76 546,259.5C 545.021,257.68 543.521,256.513 541.5,256C 543.662,253.478 543.995,250.645 542.5,247.5C 541.167,245.167 539.833,242.833 538.5,240.5C 537.833,242.167 537.167,243.833 536.5,245.5C 535.281,244.354 533.948,243.354 532.5,242.5C 534.005,241.158 534.672,239.492 534.5,237.5C 533.5,237.5 532.5,237.5 531.5,237.5C 531.5,238.833 531.5,240.167 531.5,241.5C 530.5,241.5 529.5,241.5 528.5,241.5C 528.66,239.801 528.494,238.134 528,236.5C 523.194,243.475 522.027,243.142 524.5,235.5C 523.349,233.675 522.682,231.675 522.5,229.5C 521.325,229.281 520.325,229.614 519.5,230.5C 521.938,232.656 522.105,234.989 520,237.5C 518.937,235.084 518.104,232.584 517.5,230C 518.022,229.05 518.689,228.216 519.5,227.5C 517.57,224.708 517.57,221.708 519.5,218.5C 517.668,217.752 516.001,216.752 514.5,215.5C 513.571,216.689 513.238,218.022 513.5,219.5C 512.815,207.295 512.148,194.961 511.5,182.5C 511.517,174.458 511.85,166.458 512.5,158.5C 511.833,152.167 511.167,145.833 510.5,139.5C 512.885,136.247 512.885,133.08 510.5,130C 512.028,128.352 512.695,126.352 512.5,124C 511.483,119.596 511.483,115.263 512.5,111C 510.543,108.879 510.043,106.379 511,103.5C 514.684,101.671 515.518,99.004 513.5,95.5C 518.536,95.4122 523.536,94.9122 528.5,94C 526.936,91.2562 527.436,90.4229 530,91.5C 532.935,88.764 534.935,89.4307 536,93.5C 539,91.0026 539.167,88.3359 536.5,85.5C 537,85.1667 537.5,84.8333 538,84.5C 539.4,86.3959 541.233,87.7293 543.5,88.5C 541.642,91.5721 539.642,94.5721 537.5,97.5C 536.808,96.9747 536.308,96.3081 536,95.5C 536.747,99.9234 537.247,104.59 537.5,109.5C 538.216,110.311 539.05,110.978 540,111.5C 541.606,109.016 543.106,109.016 544.5,111.5C 545.425,110.359 546.259,110.359 547,111.5C 547.252,113.931 546.752,116.265 545.5,118.5C 545.833,118.833 546.167,119.167 546.5,119.5C 547.762,116.885 548.928,114.218 550,111.5C 550.311,117.487 551.478,122.82 553.5,127.5C 554.318,124.893 554.818,122.226 555,119.5C 557.568,117.797 558.068,115.631 556.5,113C 557.988,110.375 558.822,107.542 559,104.5C 559.333,105.5 559.667,106.5 560,107.5C 559.983,102.793 561.65,101.793 565,104.5C 565.794,107.471 566.461,110.471 567,113.5C 567.333,112.833 567.667,112.167 568,111.5C 568.878,114.215 570.378,116.549 572.5,118.5C 571.167,118.5 569.833,118.5 568.5,118.5C 568.435,121.567 568.935,124.567 570,127.5C 572.148,123.602 574.314,123.602 576.5,127.5C 577.48,124.914 577.813,122.247 577.5,119.5C 579.934,118.705 582.101,118.038 584,117.5C 584.624,115.536 584.124,113.869 582.5,112.5C 583.041,110.465 583.708,108.465 584.5,106.5C 586.5,103.833 588.5,103.833 590.5,106.5C 591.243,105.092 592.077,103.759 593,102.5C 593.333,102.833 593.667,103.167 594,103.5C 594.333,102.167 594.667,100.833 595,99.5C 595.333,100.167 595.667,100.833 596,101.5C 596.5,100.333 597.333,99.5 598.5,99C 597.015,97.2435 597.348,96.0768 599.5,95.5 Z"/></g>
<g><path style="opacity:1" fill="#060606" d="M 389.5,206.5 C 386.5,206.5 383.5,206.5 380.5,206.5C 380.263,207.791 380.596,208.791 381.5,209.5C 381.267,215.668 380.933,221.835 380.5,228C 382.497,237.108 382.33,246.274 380,255.5C 376.766,263.587 374.599,271.921 373.5,280.5C 372.265,280.279 371.265,279.612 370.5,278.5C 369.893,278.624 369.56,278.957 369.5,279.5C 363.344,288.989 354.511,292.989 343,291.5C 334.481,291.995 327.481,288.995 322,282.5C 318.611,272.723 314.944,263.056 311,253.5C 309.647,252.315 308.48,250.981 307.5,249.5C 306.702,249.957 306.369,250.624 306.5,251.5C 306.167,251.5 305.833,251.5 305.5,251.5C 305.763,248.266 304.263,246.932 301,247.5C 299.833,247.833 298.667,248.167 297.5,248.5C 297.006,250.026 296.339,251.359 295.5,252.5C 295.167,252.5 294.833,252.5 294.5,252.5C 294.29,249.03 293.123,249.03 291,252.5C 286.378,261.409 282.045,270.409 278,279.5C 275.685,283.817 272.185,286.65 267.5,288C 255.787,288.812 244.12,288.645 232.5,287.5C 233.414,294.263 235.414,300.929 238.5,307.5C 237.609,308.11 236.609,308.443 235.5,308.5C 232.076,301.662 229.576,294.329 228,286.5C 221.592,273.278 216.758,259.444 213.5,245C 213.667,244.167 213.833,243.333 214,242.5C 215.957,241.111 217.79,239.611 219.5,238C 217.192,227.237 216.859,216.404 218.5,205.5C 205.976,205.497 193.643,203.997 181.5,201C 179.649,199.316 177.982,197.483 176.5,195.5C 179.325,192.505 181.992,189.338 184.5,186C 190.204,184.685 195.204,186.018 199.5,190C 206.158,190.5 212.825,190.666 219.5,190.5C 221.212,184.607 222.546,178.607 223.5,172.5C 224.222,172.918 224.722,173.584 225,174.5C 226.663,171.544 226.829,168.544 225.5,165.5C 228.268,153.152 231.601,140.985 235.5,129C 240.654,127.028 245.988,125.695 251.5,125C 266.166,124.145 280.832,123.311 295.5,122.5C 314.826,123.071 334.159,123.237 353.5,123C 357.379,123.017 359.879,124.85 361,128.5C 367.765,148.016 373.931,167.683 379.5,187.5C 381.22,188.934 383.22,189.767 385.5,190C 390.833,190.667 396.167,190.667 401.5,190C 404.18,187.319 407.346,185.486 411,184.5C 417.246,188.07 419.913,193.404 419,200.5C 418.355,201.646 417.522,202.646 416.5,203.5C 407.702,206.097 398.702,207.097 389.5,206.5 Z"/></g>
<g><path style="opacity:1" fill="#5b5b5b" d="M 355.5,130.5 C 356.586,130.62 357.253,131.287 357.5,132.5C 358.309,133.986 358.309,135.319 357.5,136.5C 356.232,134.696 355.565,132.696 355.5,130.5 Z"/></g>
<g><path style="opacity:1" fill="#b4b4b4" d="M 292.5,141.5 C 293.525,141.897 293.692,142.563 293,143.5C 292.163,145.007 290.996,145.507 289.5,145C 290.71,143.961 291.71,142.794 292.5,141.5 Z"/></g>
<g><path style="opacity:1" fill="#474747" d="M 225.5,165.5 C 226.829,168.544 226.663,171.544 225,174.5C 224.722,173.584 224.222,172.918 223.5,172.5C 223.721,169.933 224.388,167.599 225.5,165.5 Z"/></g>
<g><path style="opacity:1" fill="#f7f7f7" d="M 236.5,238.5 C 232.05,238.036 227.717,237.036 223.5,235.5C 221.839,226.058 222.173,216.724 224.5,207.5C 223.001,206.096 223.334,205.43 225.5,205.5C 246.817,206.925 268.151,208.259 289.5,209.5C 298.47,207.481 307.47,207.148 316.5,208.5C 318.115,207.846 319.782,207.346 321.5,207C 338.497,206.119 355.497,205.786 372.5,206C 373.361,210.59 374.028,215.257 374.5,220C 373.697,225.137 373.364,230.303 373.5,235.5C 343.374,237.729 313.208,239.395 283,240.5C 267.503,239.704 252.003,239.037 236.5,238.5 Z"/></g>
<g><path style="opacity:1" fill="#7a7a7a" d="M 389.5,206.5 C 386.523,206.902 383.857,207.902 381.5,209.5C 380.596,208.791 380.263,207.791 380.5,206.5C 383.5,206.5 386.5,206.5 389.5,206.5 Z"/></g>
<g><path style="opacity:1" fill="#2d2d2d" d="M 304.5,215.5 C 316.537,215.502 328.537,216.169 340.5,217.5C 338.333,217.833 336.167,218.167 334,218.5C 328.008,218.022 322.008,217.689 316,217.5C 299.873,219.217 283.706,219.717 267.5,219C 269.285,217.837 271.285,217.17 273.5,217C 284.008,216.83 294.341,216.33 304.5,215.5 Z"/></g>
<g><path style="opacity:1" fill="#f4f5f9" d="M 90.5,239.5 C 90.5,287.5 90.5,335.5 90.5,383.5C 89.5,383.5 88.5,383.5 87.5,383.5C 86.8333,372.833 86.1667,372.833 85.5,383.5C 83.8333,383.5 82.1667,383.5 80.5,383.5C 80.6641,386.187 80.4974,388.854 80,391.5C 79.5006,386.177 79.334,380.844 79.5,375.5C 75.4068,375.478 71.4068,374.811 67.5,373.5C 63.5904,374.981 59.5904,375.481 55.5,375C 56.3617,372.266 57.195,372.099 58,374.5C 60,372.5 60,370.5 58,368.5C 57.195,370.901 56.3617,370.734 55.5,368C 52.854,367.503 50.1873,367.336 47.5,367.5C 47.5,362.167 47.5,356.833 47.5,351.5C 42.266,350.636 36.9326,350.636 31.5,351.5C 31.012,348.289 31.6787,345.456 33.5,343C 30.8333,340.667 30.8333,338.333 33.5,336C 31.8934,334.951 31.2267,333.451 31.5,331.5C 34.1667,331.5 36.8333,331.5 39.5,331.5C 39.5,330.167 39.5,328.833 39.5,327.5C 36.5,327.5 33.5,327.5 30.5,327.5C 31.0384,331.357 30.0384,334.691 27.5,337.5C 27.1667,337.167 26.8333,336.833 26.5,336.5C 27.4171,328.163 28.4171,319.829 29.5,311.5C 27.8561,311.714 26.3561,311.38 25,310.5C 24.3934,307.798 24.5601,305.132 25.5,302.5C 24.8773,300.186 24.544,300.519 24.5,303.5C 20.9703,302.989 17.8037,303.656 15,305.5C 12.6667,301.5 10.3333,301.5 8,305.5C 5.544,303.679 2.71066,303.012 -0.5,303.5C -0.5,245.167 -0.5,186.833 -0.5,128.5C 0.458367,128.953 1.2917,129.619 2,130.5C 2.33333,130.167 2.66667,129.833 3,129.5C 2.34699,126.19 2.51366,122.856 3.5,119.5C 4.7202,118.289 5.88686,118.289 7,119.5C 7.5,123.5 8,127.5 8.5,131.5C 6.01506,136.768 5.8484,142.101 8,147.5C 9.57724,141.018 10.4106,134.351 10.5,127.5C 11.5,127.5 12.5,127.5 13.5,127.5C 13.4977,125.169 14.331,123.169 16,121.5C 16.1667,122.167 16.3333,122.833 16.5,123.5C 14.1069,130.98 13.2736,138.647 14,146.5C 15.5695,146.67 17.4028,147.003 19.5,147.5C 20.818,140.906 21.4846,134.24 21.5,127.5C 22.552,127.351 23.552,127.517 24.5,128C 22.0577,135.063 24.0577,136.896 30.5,133.5C 31.1667,134.167 31.8333,134.833 32.5,135.5C 33.3559,140.983 35.6892,145.649 39.5,149.5C 38.5859,155.459 38.2526,161.459 38.5,167.5C 39.8333,167.5 41.1667,167.5 42.5,167.5C 43.2242,158.501 44.0575,158.835 45,168.5C 45.414,168.043 45.914,167.709 46.5,167.5C 47.5284,169.44 47.5284,171.44 46.5,173.5C 47.6484,175.761 48.1484,178.095 48,180.5C 45.4961,177.496 43.4961,174.163 42,170.5C 41.5065,172.134 41.3398,173.801 41.5,175.5C 38.1501,175.335 34.8168,175.502 31.5,176C 30.5944,178.447 29.7611,180.947 29,183.5C 27.2335,178.316 25.9001,172.982 25,167.5C 25.1875,172.879 25.0209,178.212 24.5,183.5C 28.1318,184.733 29.7984,187.399 29.5,191.5C 30.5,191.5 31.5,191.5 32.5,191.5C 32.5789,193.666 33.2455,195.666 34.5,197.5C 34.1667,198.167 33.8333,198.833 33.5,199.5C 32.7492,198.624 32.2492,197.624 32,196.5C 31.5026,199.146 31.3359,201.813 31.5,204.5C 34.3149,203.874 36.8149,202.54 39,200.5C 39.3333,202.833 39.6667,205.167 40,207.5C 40.8555,196.893 42.0222,196.893 43.5,207.5C 44.7825,204.628 44.7825,201.795 43.5,199C 46.1475,198.821 48.8141,198.988 51.5,199.5C 55.9089,199.554 57.5755,201.554 56.5,205.5C 53.7877,207.26 50.7877,207.927 47.5,207.5C 47.5,208.5 47.5,209.5 47.5,210.5C 50.1667,210.5 52.8333,210.5 55.5,210.5C 55.5,212.167 55.5,213.833 55.5,215.5C 56.5,215.5 57.5,215.5 58.5,215.5C 58.7771,212.552 58.4438,209.719 57.5,207C 62.8333,204.667 62.8333,202.333 57.5,200C 58.7234,197.948 59.7234,195.781 60.5,193.5C 63.014,197.852 64.3473,202.519 64.5,207.5C 65.8333,207.5 67.1667,207.5 68.5,207.5C 68.988,210.711 68.3213,213.544 66.5,216C 68.7903,218.079 70.4569,220.579 71.5,223.5C 72.4287,222.311 72.762,220.978 72.5,219.5C 73.5,219.5 74.5,219.5 75.5,219.5C 75.5514,217.43 74.8847,215.597 73.5,214C 74.0069,211.659 75.1735,211.159 77,212.5C 77.1397,215.043 77.8063,217.377 79,219.5C 79.3333,218.167 79.6667,216.833 80,215.5C 80.1684,223.521 80.6684,231.521 81.5,239.5C 82.8231,234.248 83.4898,228.915 83.5,223.5C 84.5,223.5 85.5,223.5 86.5,223.5C 86.6707,234.146 87.1707,234.146 88,223.5C 88.3333,228.833 88.6667,234.167 89,239.5C 89.8326,214.175 90.3326,214.175 90.5,239.5 Z"/></g>
<g><path style="opacity:1" fill="#5d5d5d" d="M 279.5,225.5 C 281.607,224.532 283.941,224.198 286.5,224.5C 287.919,225.451 289.585,225.784 291.5,225.5C 289.393,226.468 287.059,226.802 284.5,226.5C 283.081,225.549 281.415,225.216 279.5,225.5 Z"/></g>
<g><path style="opacity:1" fill="#484848" d="M 297.5,223.5 C 302.64,224.488 307.974,224.821 313.5,224.5C 306.352,225.492 299.019,225.825 291.5,225.5C 289.585,225.784 287.919,225.451 286.5,224.5C 290.154,224.058 293.821,223.724 297.5,223.5 Z"/></g>
<g><path style="opacity:1" fill="#1d1d1d" d="M 297.5,223.5 C 312.187,223.382 326.854,223.882 341.5,225C 342.167,225.333 342.833,225.667 343.5,226C 333.434,226.719 323.434,226.219 313.5,224.5C 307.974,224.821 302.64,224.488 297.5,223.5 Z"/></g>
<g><path style="opacity:1" fill="#1c1c1c" d="M 279.5,225.5 C 281.415,225.216 283.081,225.549 284.5,226.5C 279.463,226.413 274.463,226.746 269.5,227.5C 267.901,227.768 266.568,227.434 265.5,226.5C 270.141,225.873 274.807,225.54 279.5,225.5 Z"/></g>
<g><path style="opacity:1" fill="#1b1b1b" d="M 262.5,227.5 C 263.167,227.5 263.5,227.833 263.5,228.5C 260.71,228.949 258.044,228.949 255.5,228.5C 257.743,227.526 260.076,227.192 262.5,227.5 Z"/></g>
<g><path style="opacity:1" fill="#6c6c6c" d="M 262.5,227.5 C 263.209,226.596 264.209,226.263 265.5,226.5C 266.568,227.434 267.901,227.768 269.5,227.5C 267.735,228.461 265.735,228.795 263.5,228.5C 263.5,227.833 263.167,227.5 262.5,227.5 Z"/></g>
<g><path style="opacity:1" fill="#262626" d="M 283.5,233.5 C 282.209,233.737 281.209,233.404 280.5,232.5C 297.421,230.478 314.421,229.978 331.5,231C 315.632,232.23 299.632,233.063 283.5,233.5 Z"/></g>
<g><path style="opacity:1" fill="#8b8b8b" d="M 274.5,233.5 C 276.265,232.539 278.265,232.205 280.5,232.5C 281.209,233.404 282.209,233.737 283.5,233.5C 282.432,234.434 281.099,234.768 279.5,234.5C 278.081,233.549 276.415,233.216 274.5,233.5 Z"/></g>
<g><path style="opacity:1" fill="#2a2a2a" d="M 274.5,233.5 C 276.415,233.216 278.081,233.549 279.5,234.5C 276.475,234.877 273.475,235.044 270.5,235C 271.745,234.209 273.078,233.709 274.5,233.5 Z"/></g>
<g><path style="opacity:1" fill="#7e7e7e" d="M 223.5,235.5 C 227.717,237.036 232.05,238.036 236.5,238.5C 232.167,238.5 227.833,238.5 223.5,238.5C 223.5,237.5 223.5,236.5 223.5,235.5 Z"/></g>
<g><path style="opacity:1" fill="#f7f7f7" d="M 305.5,251.5 C 308.973,263.211 310.806,275.211 311,287.5C 313.039,289.874 315.372,291.874 318,293.5C 318.497,295.81 318.663,298.143 318.5,300.5C 313.791,300.672 310.125,302.839 307.5,307C 305.966,307.923 304.299,308.423 302.5,308.5C 298.814,306.338 294.981,304.338 291,302.5C 285.334,304.504 283.001,302.504 284,296.5C 285.667,295.167 287.333,293.833 289,292.5C 290.203,282.859 291.203,273.192 292,263.5C 293.174,259.822 294.341,256.156 295.5,252.5C 296.339,251.359 297.006,250.026 297.5,248.5C 298.667,248.167 299.833,247.833 301,247.5C 304.263,246.932 305.763,248.266 305.5,251.5 Z"/></g>
<g><path style="opacity:1" fill="#c1c3c6" d="M 504.5,108.5 C 506.747,113.123 508.08,118.123 508.5,123.5C 508.62,225.144 508.12,326.811 507,428.5C 506.583,429.756 505.75,430.423 504.5,430.5C 504.5,323.167 504.5,215.833 504.5,108.5 Z"/></g>
<g><path style="opacity:1" fill="#e0e4e8" d="M 599.5,343.5 C 599.5,395.167 599.5,446.833 599.5,498.5C 598.896,494.027 597.563,489.694 595.5,485.5C 595.167,485.833 594.833,486.167 594.5,486.5C 596.103,489.344 596.603,492.344 596,495.5C 594.54,493.028 593.54,490.361 593,487.5C 591.421,491.725 590.254,496.059 589.5,500.5C 589.167,499.5 588.833,498.5 588.5,497.5C 590.306,491.275 591.639,484.942 592.5,478.5C 592.067,474.958 591.067,475.125 589.5,479C 588.5,479.667 587.5,479.667 586.5,479C 588.308,477.72 589.641,476.053 590.5,474C 589.827,470.461 588.994,466.961 588,463.5C 587.503,466.146 587.336,468.813 587.5,471.5C 586.448,471.649 585.448,471.483 584.5,471C 585.574,470.261 586.241,469.261 586.5,468C 584.165,464.096 582.998,459.929 583,455.5C 583.862,457.087 584.529,458.754 585,460.5C 587.106,456.916 588.939,453.249 590.5,449.5C 590.167,448.167 589.833,446.833 589.5,445.5C 588.877,447.966 588.043,450.299 587,452.5C 586.748,449.333 586.582,446.333 586.5,443.5C 584.213,446.576 583.88,449.909 585.5,453.5C 585.518,455.373 585.018,455.706 584,454.5C 583.696,452.559 582.863,450.893 581.5,449.5C 582.735,444.158 582.568,438.825 581,433.5C 579.943,435.219 579.11,437.053 578.5,439C 578.167,439.167 577.833,439.333 577.5,439.5C 576.749,438.624 576.249,437.624 576,436.5C 575.667,436.833 575.333,437.167 575,437.5C 575.224,433.895 574.724,430.228 573.5,426.5C 572.327,428.979 572.327,431.479 573.5,434C 573.17,436.492 572.17,438.659 570.5,440.5C 570.709,441.086 571.043,441.586 571.5,442C 570.15,443.718 568.983,445.552 568,447.5C 567.658,443.214 568.824,439.38 571.5,436C 570.833,434.333 570.167,432.667 569.5,431C 570.654,430.086 570.487,429.253 569,428.5C 568.667,428.833 568.333,429.167 568,429.5C 567.009,428.57 566.509,427.404 566.5,426C 567.35,423.732 568.517,421.899 570,420.5C 568.594,419.332 567.428,419.665 566.5,421.5C 565.833,420.167 565.167,418.833 564.5,417.5C 564.063,421.179 563.73,424.846 563.5,428.5C 563.977,429.478 564.643,430.311 565.5,431C 564.151,431.772 563.318,432.939 563,434.5C 561.024,433.457 560.524,432.123 561.5,430.5C 560.117,427.924 559.283,428.258 559,431.5C 557.844,430.007 557.01,430.174 556.5,432C 555.91,434.196 555.243,436.362 554.5,438.5C 554.986,443.929 556.319,449.096 558.5,454C 558.167,454.5 557.833,455 557.5,455.5C 555.719,452.541 554.052,449.541 552.5,446.5C 553.869,443.799 553.536,441.299 551.5,439C 553.26,438.035 553.594,436.868 552.5,435.5C 551.808,436.025 551.308,436.692 551,437.5C 551.994,440.897 551.66,444.23 550,447.5C 549.704,444.294 549.204,441.128 548.5,438C 549.394,436.604 550.061,435.104 550.5,433.5C 548.772,431.771 547.439,429.771 546.5,427.5C 546.931,425.234 548.264,423.734 550.5,423C 548.5,422.333 546.5,422.333 544.5,423C 544.961,425.447 545.294,427.947 545.5,430.5C 544.726,431.711 543.893,431.711 543,430.5C 543.399,427.47 543.232,424.47 542.5,421.5C 544.481,417.458 544.481,413.292 542.5,409C 542.905,408.055 543.572,407.388 544.5,407C 541.691,405.412 541.025,403.245 542.5,400.5C 541.758,399.713 540.925,399.047 540,398.5C 539.581,399.672 538.915,400.672 538,401.5C 536.925,399.17 535.425,397.837 533.5,397.5C 532.692,397.808 532.025,398.308 531.5,399C 533.167,402.333 532.167,403.667 528.5,403C 528.833,402.667 529.167,402.333 529.5,402C 528.315,400.647 526.981,399.48 525.5,398.5C 527.996,396.095 527.829,393.762 525,391.5C 524.433,394.168 523.933,396.834 523.5,399.5C 522.325,399.281 521.325,399.614 520.5,400.5C 521.716,401.096 523.049,401.263 524.5,401C 524.031,402.962 524.697,404.795 526.5,406.5C 524.672,409.945 523.338,413.612 522.5,417.5C 519.833,416.5 519.833,415.5 522.5,414.5C 521.161,410.837 520.828,407.171 521.5,403.5C 520.585,402.672 519.919,401.672 519.5,400.5C 521.866,396.085 521.699,391.752 519,387.5C 518.833,388.167 518.667,388.833 518.5,389.5C 518.408,396.463 518.574,403.463 519,410.5C 518.073,406.987 517.239,403.487 516.5,400C 517.197,394.454 517.197,388.954 516.5,383.5C 515.214,391.349 515.214,399.182 516.5,407C 516.167,407.5 515.833,408 515.5,408.5C 514.702,406.922 514.202,405.256 514,403.5C 513.617,404.056 513.117,404.389 512.5,404.5C 512.832,352.278 512.499,300.112 511.5,248C 512.205,238.531 512.871,229.031 513.5,219.5C 513.238,218.022 513.571,216.689 514.5,215.5C 516.001,216.752 517.668,217.752 519.5,218.5C 517.57,221.708 517.57,224.708 519.5,227.5C 518.689,228.216 518.022,229.05 517.5,230C 518.104,232.584 518.937,235.084 520,237.5C 522.105,234.989 521.938,232.656 519.5,230.5C 520.325,229.614 521.325,229.281 522.5,229.5C 522.682,231.675 523.349,233.675 524.5,235.5C 522.027,243.142 523.194,243.475 528,236.5C 528.494,238.134 528.66,239.801 528.5,241.5C 529.5,241.5 530.5,241.5 531.5,241.5C 531.5,240.167 531.5,238.833 531.5,237.5C 532.5,237.5 533.5,237.5 534.5,237.5C 534.672,239.492 534.005,241.158 532.5,242.5C 533.948,243.354 535.281,244.354 536.5,245.5C 537.167,243.833 537.833,242.167 538.5,240.5C 539.833,242.833 541.167,245.167 542.5,247.5C 543.995,250.645 543.662,253.478 541.5,256C 543.521,256.513 545.021,257.68 546,259.5C 546.784,262.76 546.617,265.927 545.5,269C 546.717,270.648 547.55,272.481 548,274.5C 548.98,272.741 549.647,271.074 550,269.5C 551,269.5 552,269.5 553,269.5C 552.182,271.33 551.349,272.996 550.5,274.5C 550.833,275.5 551.167,276.5 551.5,277.5C 552.243,276.092 553.077,274.759 554,273.5C 554.163,275.676 554.996,277.509 556.5,279C 555.572,279.388 554.905,280.055 554.5,281C 555.722,283.034 556.722,285.2 557.5,287.5C 557.631,284.089 558.131,280.756 559,277.5C 559.667,280.833 560.333,284.167 561,287.5C 564.376,289.759 564.21,291.759 560.5,293.5C 561.09,294.799 562.09,295.632 563.5,296C 561.516,298.134 560.182,300.634 559.5,303.5C 560.788,306.034 560.788,308.534 559.5,311C 560.448,311.483 561.448,311.649 562.5,311.5C 562.777,308.552 562.444,305.719 561.5,303C 563.425,303.135 565.425,303.302 567.5,303.5C 567.5,304.5 567.5,305.5 567.5,306.5C 568.5,306.5 569.5,306.5 570.5,306.5C 570.439,308.592 569.439,310.092 567.5,311C 568.167,312.667 568.833,314.333 569.5,316C 569.167,316.167 568.833,316.333 568.5,316.5C 567.833,315.167 567.167,313.833 566.5,312.5C 566.167,312.833 565.833,313.167 565.5,313.5C 566.833,314.833 566.833,316.167 565.5,317.5C 566.025,318.192 566.692,318.692 567.5,319C 565.015,320.223 564.848,321.723 567,323.5C 568.183,322.269 569.349,322.269 570.5,323.5C 569.311,324.429 567.978,324.762 566.5,324.5C 566.351,325.552 566.517,326.552 567,327.5C 568.085,326.707 569.252,326.04 570.5,325.5C 572.5,327.167 574.5,328.833 576.5,330.5C 577.646,329.855 578.646,329.022 579.5,328C 576.816,329.166 574.816,328.333 573.5,325.5C 575.478,326.15 577.645,326.15 580,325.5C 580.789,328.869 582.622,332.036 585.5,335C 586.777,335.127 587.943,334.627 589,333.5C 589.5,333.833 590,334.167 590.5,334.5C 591.085,337.503 591.752,340.503 592.5,343.5C 594.467,342.318 595.8,342.985 596.5,345.5C 597.518,344.807 598.518,344.141 599.5,343.5 Z"/></g>
<g><path style="opacity:1" fill="#f7f7f7" d="M 294.5,252.5 C 292.135,256.424 290.635,260.757 290,265.5C 289.829,274.078 288.996,282.578 287.5,291C 280.945,295.586 276.445,301.753 274,309.5C 271.032,318.971 269.698,328.638 270,338.5C 271.439,340.014 272.939,340.347 274.5,339.5C 272.404,338.408 271.071,336.741 270.5,334.5C 271.108,331.855 271.608,329.188 272,326.5C 272.21,328.058 272.71,329.391 273.5,330.5C 274.652,331.625 275.652,331.625 276.5,330.5C 277.995,330.011 279.329,329.345 280.5,328.5C 280.754,324.061 281.588,319.728 283,315.5C 283.359,319.502 283.192,323.502 282.5,327.5C 282.833,329.167 283.167,330.833 283.5,332.5C 284.298,332.043 284.631,331.376 284.5,330.5C 284.833,330.5 285.167,330.5 285.5,330.5C 287.678,325.835 289.178,320.835 290,315.5C 289.672,320.475 289.672,325.475 290,330.5C 291.352,328.406 291.852,326.073 291.5,323.5C 291.833,323.5 292.167,323.5 292.5,323.5C 292.281,324.675 292.614,325.675 293.5,326.5C 294.485,324.228 295.319,321.895 296,319.5C 296.943,329.165 297.776,329.499 298.5,320.5C 298.833,320.5 299.167,320.5 299.5,320.5C 299.192,322.924 299.526,325.257 300.5,327.5C 301.678,324.609 302.345,321.609 302.5,318.5C 303.167,320.5 303.833,322.5 304.5,324.5C 304.201,326.604 304.534,328.604 305.5,330.5C 306.386,329.675 306.719,328.675 306.5,327.5C 306.833,327.5 307.167,327.5 307.5,327.5C 308.671,328.345 310.005,329.011 311.5,329.5C 312.167,329.5 312.833,329.5 313.5,329.5C 314.117,329.389 314.617,329.056 315,328.5C 315.333,325.833 315.667,323.167 316,320.5C 316.436,322.847 316.936,325.181 317.5,327.5C 317.747,328.713 318.414,329.38 319.5,329.5C 320.833,329.5 322.167,329.5 323.5,329.5C 324.79,328.942 325.623,327.942 326,326.5C 326.464,327.094 326.631,327.761 326.5,328.5C 326.56,329.043 326.893,329.376 327.5,329.5C 328.182,328.757 328.849,328.091 329.5,327.5C 329.842,328.338 330.508,328.672 331.5,328.5C 332.467,327.194 333.801,326.527 335.5,326.5C 336.302,327.885 336.969,327.718 337.5,326C 336.822,321.142 335.156,316.642 332.5,312.5C 330.709,311.83 329.042,311.163 327.5,310.5C 328.138,309.476 328.805,308.476 329.5,307.5C 329.457,306.584 329.124,305.917 328.5,305.5C 325.53,301.68 322.696,297.68 320,293.5C 318.316,291.649 316.483,289.982 314.5,288.5C 312.466,280.294 311.299,271.961 311,263.5C 309.37,259.429 307.87,255.429 306.5,251.5C 306.369,250.624 306.702,249.957 307.5,249.5C 308.48,250.981 309.647,252.315 311,253.5C 314.944,263.056 318.611,272.723 322,282.5C 327.481,288.995 334.481,291.995 343,291.5C 354.511,292.989 363.344,288.989 369.5,279.5C 370.124,279.917 370.457,280.584 370.5,281.5C 368.092,290.817 364.925,299.817 361,308.5C 359.842,312.797 358.842,317.131 358,321.5C 351.974,333.719 345.807,345.885 339.5,358C 326.886,366.655 312.886,370.655 297.5,370C 287.434,368.721 277.767,366.055 268.5,362C 262.623,353.082 257.123,343.915 252,334.5C 249.378,329.058 247.378,323.391 246,317.5C 243.723,313.92 241.223,310.586 238.5,307.5C 235.414,300.929 233.414,294.263 232.5,287.5C 244.12,288.645 255.787,288.812 267.5,288C 272.185,286.65 275.685,283.817 278,279.5C 282.045,270.409 286.378,261.409 291,252.5C 293.123,249.03 294.29,249.03 294.5,252.5 Z"/></g>
<g><path style="opacity:1" fill="#1d1d1d" d="M 305.5,251.5 C 305.833,251.5 306.167,251.5 306.5,251.5C 307.87,255.429 309.37,259.429 311,263.5C 311.299,271.961 312.466,280.294 314.5,288.5C 316.483,289.982 318.316,291.649 320,293.5C 322.696,297.68 325.53,301.68 328.5,305.5C 328.483,307.028 327.816,307.528 326.5,307C 325.042,304.54 323.209,302.373 321,300.5C 318.834,302.121 316.334,302.955 313.5,303C 311.481,306.014 309.148,308.68 306.5,311C 300.943,312.824 296.943,311.157 294.5,306C 291.167,305.667 287.833,305.333 284.5,305C 282.959,303.421 281.792,301.587 281,299.5C 277.774,303.619 275.94,308.286 275.5,313.5C 273.553,317.198 272.72,321.198 273,325.5C 274.171,321.482 275.337,317.482 276.5,313.5C 277.09,312.234 277.59,310.901 278,309.5C 278.69,308.262 279.19,308.262 279.5,309.5C 279.923,310.265 280.257,311.098 280.5,312C 278.337,317.98 277.004,324.146 276.5,330.5C 275.534,321.409 274.534,321.409 273.5,330.5C 272.71,329.391 272.21,328.058 272,326.5C 271.608,329.188 271.108,331.855 270.5,334.5C 271.071,336.741 272.404,338.408 274.5,339.5C 272.939,340.347 271.439,340.014 270,338.5C 269.698,328.638 271.032,318.971 274,309.5C 276.445,301.753 280.945,295.586 287.5,291C 288.996,282.578 289.829,274.078 290,265.5C 290.635,260.757 292.135,256.424 294.5,252.5C 294.833,252.5 295.167,252.5 295.5,252.5C 294.341,256.156 293.174,259.822 292,263.5C 291.203,273.192 290.203,282.859 289,292.5C 287.333,293.833 285.667,295.167 284,296.5C 283.001,302.504 285.334,304.504 291,302.5C 294.981,304.338 298.814,306.338 302.5,308.5C 304.299,308.423 305.966,307.923 307.5,307C 310.125,302.839 313.791,300.672 318.5,300.5C 318.663,298.143 318.497,295.81 318,293.5C 315.372,291.874 313.039,289.874 311,287.5C 310.806,275.211 308.973,263.211 305.5,251.5 Z"/></g>
<g><path style="opacity:1" fill="#e2e2e2" d="M 328.5,305.5 C 329.124,305.917 329.457,306.584 329.5,307.5C 328.805,308.476 328.138,309.476 327.5,310.5C 326.624,310.369 325.957,310.702 325.5,311.5C 327.452,316.687 328.785,322.02 329.5,327.5C 328.849,328.091 328.182,328.757 327.5,329.5C 326.893,329.376 326.56,329.043 326.5,328.5C 327.147,327.726 327.48,326.726 327.5,325.5C 326.999,319.67 325.332,314.337 322.5,309.5C 322.167,310 321.833,310.5 321.5,311C 323.13,317.055 323.796,323.222 323.5,329.5C 322.167,329.5 320.833,329.5 319.5,329.5C 318.436,323.325 317.103,317.325 315.5,311.5C 313.708,311.366 312.042,311.699 310.5,312.5C 309.167,313.167 307.833,313.833 306.5,314.5C 306.167,314.5 305.833,314.5 305.5,314.5C 304.496,317.045 304.163,320.379 304.5,324.5C 303.833,322.5 303.167,320.5 302.5,318.5C 302.762,317.022 302.429,315.689 301.5,314.5C 300.831,316.631 300.165,318.631 299.5,320.5C 299.167,320.5 298.833,320.5 298.5,320.5C 300.24,317.196 299.574,314.529 296.5,312.5C 294.421,315.898 293.087,319.564 292.5,323.5C 292.167,323.5 291.833,323.5 291.5,323.5C 291.67,321.152 292.003,318.818 292.5,316.5C 292.384,314.448 291.384,313.115 289.5,312.5C 287.277,318.278 285.944,324.278 285.5,330.5C 285.167,330.5 284.833,330.5 284.5,330.5C 284.73,325.119 285.396,319.786 286.5,314.5C 286.36,312.97 285.693,311.97 284.5,311.5C 282.678,311.169 281.011,310.502 279.5,309.5C 279.19,308.262 278.69,308.262 278,309.5C 277.59,310.901 277.09,312.234 276.5,313.5C 276.167,313.5 275.833,313.5 275.5,313.5C 275.94,308.286 277.774,303.619 281,299.5C 281.792,301.587 282.959,303.421 284.5,305C 287.833,305.333 291.167,305.667 294.5,306C 296.943,311.157 300.943,312.824 306.5,311C 309.148,308.68 311.481,306.014 313.5,303C 316.334,302.955 318.834,302.121 321,300.5C 323.209,302.373 325.042,304.54 326.5,307C 327.816,307.528 328.483,307.028 328.5,305.5 Z"/></g>
<g><path style="opacity:1" fill="#f7f7f9" d="M 90.5,239.5 C 90.8333,239.5 91.1667,239.5 91.5,239.5C 91.3333,328.501 91.5,417.501 92,506.5C 100.785,507.245 109.952,507.579 119.5,507.5C 119.369,508.239 119.536,508.906 120,509.5C 128.002,508.581 136.168,508.248 144.5,508.5C 152.164,509.041 159.831,509.541 167.5,510C 162.167,510.333 156.833,510.667 151.5,511C 151.018,515.376 149.851,519.543 148,523.5C 147.13,522.892 146.63,522.059 146.5,521C 148.192,518.065 148.858,514.898 148.5,511.5C 147.167,511.5 145.833,511.5 144.5,511.5C 144.89,515.394 144.223,519.06 142.5,522.5C 138.301,520.107 136.635,516.44 137.5,511.5C 136.167,511.5 134.833,511.5 133.5,511.5C 133.778,513.346 133.111,514.68 131.5,515.5C 129.889,514.68 129.222,513.346 129.5,511.5C 128.5,511.5 127.5,511.5 126.5,511.5C 125.476,520.785 124.476,520.785 123.5,511.5C 122.167,511.5 120.833,511.5 119.5,511.5C 119.026,515.157 117.693,515.324 115.5,512C 112.24,511.216 109.073,511.383 106,512.5C 105.459,515.209 103.959,517.209 101.5,518.5C 103.573,521.119 104.573,524.119 104.5,527.5C 103.5,527.5 102.5,527.5 101.5,527.5C 101.833,532.833 102.167,538.167 102.5,543.5C 101.5,543.5 100.5,543.5 99.5,543.5C 99.143,538.067 98.143,532.734 96.5,527.5C 96.1667,528.833 95.8333,530.167 95.5,531.5C 96.0036,540.805 96.0036,550.138 95.5,559.5C 93.1667,559.5 90.8333,559.5 88.5,559.5C 88.832,553.947 87.832,548.78 85.5,544C 87.4574,541.879 87.9574,539.379 87,536.5C 84.8149,538.54 82.3149,539.874 79.5,540.5C 79.6602,538.801 79.4935,537.134 79,535.5C 78.3174,539.891 77.4841,544.224 76.5,548.5C 75.1667,548.5 73.8333,548.5 72.5,548.5C 72.6602,546.801 72.4935,545.134 72,543.5C 71.8333,544.833 71.6667,546.167 71.5,547.5C 72.1667,550.739 72.3334,554.072 72,557.5C 73.258,554.945 75.0914,554.278 77.5,555.5C 79.0441,559.444 80.3774,563.444 81.5,567.5C 80.5,567.5 79.5,567.5 78.5,567.5C 78.4211,569.666 77.7545,571.666 76.5,573.5C 77.327,576.783 77.6604,580.116 77.5,583.5C 76.1667,583.5 74.8333,583.5 73.5,583.5C 73.3396,580.116 73.673,576.783 74.5,573.5C 74.1667,572.833 73.8333,572.167 73.5,571.5C 72.6667,573.5 71.8333,575.5 71,577.5C 70.8236,574.118 70.3236,570.785 69.5,567.5C 67.8643,578.087 66.8643,578.087 66.5,567.5C 64.8762,567.36 63.7096,568.027 63,569.5C 62.2223,566.816 60.8889,564.483 59,562.5C 58.6667,558.833 58.3333,555.167 58,551.5C 57.5026,554.146 57.3359,556.813 57.5,559.5C 53.9913,559.542 50.658,558.876 47.5,557.5C 47.5,556.167 47.5,554.833 47.5,553.5C 48.675,553.719 49.675,553.386 50.5,552.5C 48.8978,549.763 48.0645,546.763 48,543.5C 47.1697,548.808 46.6697,554.141 46.5,559.5C 45.1667,559.5 43.8333,559.5 42.5,559.5C 42.073,556.212 42.7397,553.212 44.5,550.5C 42.6672,547.71 41.6672,548.043 41.5,551.5C 40.1667,551.5 38.8333,551.5 37.5,551.5C 37.012,554.711 37.6787,557.544 39.5,560C 38.5415,561.707 37.8748,563.541 37.5,565.5C 39.1187,568.642 39.7854,571.975 39.5,575.5C 38.5,575.5 37.5,575.5 36.5,575.5C 36.1393,567.4 35.1393,559.4 33.5,551.5C 32.1667,551.5 30.8333,551.5 29.5,551.5C 28.8333,562.167 28.1667,562.167 27.5,551.5C 26.5,551.5 25.5,551.5 24.5,551.5C 24.1091,555.383 24.7758,559.05 26.5,562.5C 28.3649,563.666 30.0316,563.333 31.5,561.5C 32.4556,562.865 33.1223,564.365 33.5,566C 31.6395,571.985 30.9728,578.152 31.5,584.5C 28.8333,584.5 26.1667,584.5 23.5,584.5C 23.5,585.5 23.5,586.5 23.5,587.5C 26.1667,587.5 28.8333,587.5 31.5,587.5C 31.5,588.5 31.5,589.5 31.5,590.5C 27.7852,590.423 24.1185,590.756 20.5,591.5C 20.8273,583.397 20.1606,575.397 18.5,567.5C 17.5,567.5 16.5,567.5 15.5,567.5C 15.6822,569.675 16.3489,571.675 17.5,573.5C 17.1667,574.167 16.8333,574.833 16.5,575.5C 15.2624,571.689 14.5958,571.689 14.5,575.5C 13.1667,575.5 11.8333,575.5 10.5,575.5C 11.0081,572.824 11.1747,570.157 11,567.5C 9.66667,566.167 8.33333,566.167 7,567.5C 6.66581,574.181 6.16581,580.847 5.5,587.5C 6.81116,591.407 7.47783,595.407 7.5,599.5C 4.83333,599.5 2.16667,599.5 -0.5,599.5C -0.5,500.833 -0.5,402.167 -0.5,303.5C 2.71066,303.012 5.544,303.679 8,305.5C 10.3333,301.5 12.6667,301.5 15,305.5C 17.8037,303.656 20.9703,302.989 24.5,303.5C 24.544,300.519 24.8773,300.186 25.5,302.5C 24.5601,305.132 24.3934,307.798 25,310.5C 26.3561,311.38 27.8561,311.714 29.5,311.5C 28.4171,319.829 27.4171,328.163 26.5,336.5C 26.8333,336.833 27.1667,337.167 27.5,337.5C 30.0384,334.691 31.0384,331.357 30.5,327.5C 33.5,327.5 36.5,327.5 39.5,327.5C 39.5,328.833 39.5,330.167 39.5,331.5C 36.8333,331.5 34.1667,331.5 31.5,331.5C 31.2267,333.451 31.8934,334.951 33.5,336C 30.8333,338.333 30.8333,340.667 33.5,343C 31.6787,345.456 31.012,348.289 31.5,351.5C 36.9326,350.636 42.266,350.636 47.5,351.5C 47.5,356.833 47.5,362.167 47.5,367.5C 50.1873,367.336 52.854,367.503 55.5,368C 56.3617,370.734 57.195,370.901 58,368.5C 60,370.5 60,372.5 58,374.5C 57.195,372.099 56.3617,372.266 55.5,375C 59.5904,375.481 63.5904,374.981 67.5,373.5C 71.4068,374.811 75.4068,375.478 79.5,375.5C 79.334,380.844 79.5006,386.177 80,391.5C 80.4974,388.854 80.6641,386.187 80.5,383.5C 82.1667,383.5 83.8333,383.5 85.5,383.5C 86.1667,372.833 86.8333,372.833 87.5,383.5C 88.5,383.5 89.5,383.5 90.5,383.5C 90.5,335.5 90.5,287.5 90.5,239.5 Z"/></g>
<g><path style="opacity:1" fill="#171717" d="M 369.5,279.5 C 369.56,278.957 369.893,278.624 370.5,278.5C 371.265,279.612 372.265,280.279 373.5,280.5C 368.625,297.316 363.125,313.982 357,330.5C 351.401,340.699 346.067,351.032 341,361.5C 328.853,366.322 316.687,370.989 304.5,375.5C 291.48,373.289 278.813,369.789 266.5,365C 264.602,361.379 262.102,358.212 259,355.5C 256.107,346.707 251.44,339.04 245,332.5C 245.195,330.874 245.195,329.207 245,327.5C 241.279,321.392 238.113,315.059 235.5,308.5C 236.609,308.443 237.609,308.11 238.5,307.5C 241.223,310.586 243.723,313.92 246,317.5C 247.378,323.391 249.378,329.058 252,334.5C 257.123,343.915 262.623,353.082 268.5,362C 277.767,366.055 287.434,368.721 297.5,370C 312.886,370.655 326.886,366.655 339.5,358C 345.807,345.885 351.974,333.719 358,321.5C 358.842,317.131 359.842,312.797 361,308.5C 364.925,299.817 368.092,290.817 370.5,281.5C 370.457,280.584 370.124,279.917 369.5,279.5 Z"/></g>
<g><path style="opacity:1" fill="#1f1f1f" d="M 335.5,309.5 C 337.708,310.894 339.208,312.894 340,315.5C 342.919,326.17 343.086,336.837 340.5,347.5C 340.599,340.771 340.433,333.771 340,326.5C 339.393,320.527 337.893,314.86 335.5,309.5 Z"/></g>
<g><path style="opacity:1" fill="#1c1c1c" d="M 325.5,331.5 C 327.833,331.5 330.167,331.5 332.5,331.5C 332.5,332.5 332.5,333.5 332.5,334.5C 316.167,334.946 299.834,335.446 283.5,336C 282.354,336.645 281.354,337.478 280.5,338.5C 279.167,337.5 279.167,336.5 280.5,335.5C 281.795,334.902 283.128,334.402 284.5,334C 298.328,333.215 311.994,332.382 325.5,331.5 Z"/></g>
<g><path style="opacity:1" fill="#949494" d="M 335.5,326.5 C 333.801,326.527 332.467,327.194 331.5,328.5C 332.65,326.49 333.483,323.824 334,320.5C 334.813,322.436 335.313,324.436 335.5,326.5 Z"/></g>
<g><path style="opacity:1" fill="#2b2b2b" d="M 305.5,314.5 C 305.739,318.842 306.073,323.176 306.5,327.5C 306.719,328.675 306.386,329.675 305.5,330.5C 304.534,328.604 304.201,326.604 304.5,324.5C 304.163,320.379 304.496,317.045 305.5,314.5 Z"/></g>
<g><path style="opacity:1" fill="#747474" d="M 276.5,330.5 C 275.652,331.625 274.652,331.625 273.5,330.5C 274.534,321.409 275.534,321.409 276.5,330.5 Z"/></g>
<g><path style="opacity:1" fill="#1b1b1b" d="M 302.5,318.5 C 302.345,321.609 301.678,324.609 300.5,327.5C 299.526,325.257 299.192,322.924 299.5,320.5C 300.165,318.631 300.831,316.631 301.5,314.5C 302.429,315.689 302.762,317.022 302.5,318.5 Z"/></g>
<g><path style="opacity:1" fill="#a7a7a7" d="M 315.5,311.5 C 315.775,316.22 314.941,316.554 313,312.5C 313.03,318.148 313.197,323.815 313.5,329.5C 312.833,329.5 312.167,329.5 311.5,329.5C 311.74,323.773 311.407,318.106 310.5,312.5C 312.042,311.699 313.708,311.366 315.5,311.5 Z"/></g>
<g><path style="opacity:1" fill="#202020" d="M 284.5,311.5 C 285.693,311.97 286.36,312.97 286.5,314.5C 285.396,319.786 284.73,325.119 284.5,330.5C 284.631,331.376 284.298,332.043 283.5,332.5C 283.167,330.833 282.833,329.167 282.5,327.5C 283.192,323.502 283.359,319.502 283,315.5C 281.588,319.728 280.754,324.061 280.5,328.5C 279.307,328.03 278.64,327.03 278.5,325.5C 278.936,322.821 279.436,320.155 280,317.5C 280.858,314.208 282.358,312.208 284.5,311.5 Z"/></g>
<g><path style="opacity:1" fill="#868686" d="M 275.5,313.5 C 275.833,313.5 276.167,313.5 276.5,313.5C 275.337,317.482 274.171,321.482 273,325.5C 272.72,321.198 273.553,317.198 275.5,313.5 Z"/></g>
<g><path style="opacity:1" fill="#303030" d="M 344.5,316.5 C 345.931,316.881 346.764,317.881 347,319.5C 347.814,321.902 347.647,324.235 346.5,326.5C 345.67,323.179 345.003,319.846 344.5,316.5 Z"/></g>
<g><path style="opacity:1" fill="#1a1a1a" d="M 318.5,311.5 C 319.966,312.347 320.8,313.68 321,315.5C 322.268,319.84 322.435,324.174 321.5,328.5C 320.337,322.852 319.337,317.185 318.5,311.5 Z"/></g>
<g><path style="opacity:1" fill="#3b3b3b" d="M 310.5,312.5 C 311.407,318.106 311.74,323.773 311.5,329.5C 310.005,329.011 308.671,328.345 307.5,327.5C 307.261,323.158 306.927,318.824 306.5,314.5C 307.833,313.833 309.167,313.167 310.5,312.5 Z"/></g>
<g><path style="opacity:1" fill="#848484" d="M 305.5,314.5 C 305.833,314.5 306.167,314.5 306.5,314.5C 306.927,318.824 307.261,323.158 307.5,327.5C 307.167,327.5 306.833,327.5 306.5,327.5C 306.073,323.176 305.739,318.842 305.5,314.5 Z"/></g>
<g><path style="opacity:1" fill="#1d1d1d" d="M 268.5,312.5 C 269.586,312.62 270.253,313.287 270.5,314.5C 269.165,319.173 267.832,323.839 266.5,328.5C 266.167,327.833 265.833,327.167 265.5,326.5C 266.509,321.814 267.509,317.147 268.5,312.5 Z"/></g>
<g><path style="opacity:1" fill="#212121" d="M 298.5,320.5 C 297.776,329.499 296.943,329.165 296,319.5C 295.319,321.895 294.485,324.228 293.5,326.5C 292.614,325.675 292.281,324.675 292.5,323.5C 293.087,319.564 294.421,315.898 296.5,312.5C 299.574,314.529 300.24,317.196 298.5,320.5 Z"/></g>
<g><path style="opacity:1" fill="#222222" d="M 291.5,323.5 C 291.852,326.073 291.352,328.406 290,330.5C 289.672,325.475 289.672,320.475 290,315.5C 289.178,320.835 287.678,325.835 285.5,330.5C 285.944,324.278 287.277,318.278 289.5,312.5C 291.384,313.115 292.384,314.448 292.5,316.5C 292.003,318.818 291.67,321.152 291.5,323.5 Z"/></g>
<g><path style="opacity:1" fill="#262626" d="M 348.5,315.5 C 350.344,316.204 350.844,317.537 350,319.5C 348.812,318.437 348.312,317.103 348.5,315.5 Z"/></g>
<g><path style="opacity:1" fill="#171717" d="M 326.5,328.5 C 326.631,327.761 326.464,327.094 326,326.5C 325.623,327.942 324.79,328.942 323.5,329.5C 323.796,323.222 323.13,317.055 321.5,311C 321.833,310.5 322.167,310 322.5,309.5C 325.332,314.337 326.999,319.67 327.5,325.5C 327.48,326.726 327.147,327.726 326.5,328.5 Z"/></g>
<g><path style="opacity:1" fill="#b4b4b4" d="M 279.5,309.5 C 281.011,310.502 282.678,311.169 284.5,311.5C 282.358,312.208 280.858,314.208 280,317.5C 279.436,320.155 278.936,322.821 278.5,325.5C 278.64,327.03 279.307,328.03 280.5,328.5C 279.329,329.345 277.995,330.011 276.5,330.5C 277.004,324.146 278.337,317.98 280.5,312C 280.257,311.098 279.923,310.265 279.5,309.5 Z"/></g>
<g><path style="opacity:1" fill="#1d1d1d" d="M 261.5,309.5 C 262.8,311.223 263.467,313.39 263.5,316C 263.097,322.364 262.43,328.697 261.5,335C 262.14,339.394 263.473,343.561 265.5,347.5C 265.167,347.833 264.833,348.167 264.5,348.5C 261.701,344.235 260.034,339.568 259.5,334.5C 260.333,326.175 260.999,317.841 261.5,309.5 Z"/></g>
<g><path style="opacity:1" fill="#1e1e1e" d="M 315.5,311.5 C 317.103,317.325 318.436,323.325 319.5,329.5C 318.414,329.38 317.747,328.713 317.5,327.5C 316.936,325.181 316.436,322.847 316,320.5C 315.667,323.167 315.333,325.833 315,328.5C 314.617,329.056 314.117,329.389 313.5,329.5C 313.197,323.815 313.03,318.148 313,312.5C 314.941,316.554 315.775,316.22 315.5,311.5 Z"/></g>
<g><path style="opacity:1" fill="#0f0f0f" d="M 254.5,310.5 C 255.253,314.517 255.92,318.684 256.5,323C 256.167,323.5 255.833,324 255.5,324.5C 254.507,319.88 254.173,315.214 254.5,310.5 Z"/></g>
<g><path style="opacity:1" fill="#161616" d="M 327.5,310.5 C 329.042,311.163 330.709,311.83 332.5,312.5C 335.156,316.642 336.822,321.142 337.5,326C 336.969,327.718 336.302,327.885 335.5,326.5C 335.313,324.436 334.813,322.436 334,320.5C 333.483,323.824 332.65,326.49 331.5,328.5C 330.508,328.672 329.842,328.338 329.5,327.5C 328.785,322.02 327.452,316.687 325.5,311.5C 325.957,310.702 326.624,310.369 327.5,310.5 Z"/></g>
<g><path style="opacity:1" fill="#cdced2" d="M 504.5,479.5 C 504.5,463.167 504.5,446.833 504.5,430.5C 505.75,430.423 506.583,429.756 507,428.5C 508.12,326.811 508.62,225.144 508.5,123.5C 508.08,118.123 506.747,113.123 504.5,108.5C 504.5,106.167 504.5,103.833 504.5,101.5C 505.117,101.389 505.617,101.056 506,100.5C 506.914,104.142 507.748,107.808 508.5,111.5C 509.833,166.167 510.833,220.834 511.5,275.5C 510.833,291.5 510.167,307.5 509.5,323.5C 509.833,326.167 510.167,328.833 510.5,331.5C 509.7,359.487 509.2,387.487 509,415.5C 507.028,434.437 506.028,453.437 506,472.5C 505.814,475.036 505.314,477.369 504.5,479.5 Z"/></g>
<g><path style="opacity:1" fill="#141414" d="M 323.5,386.5 C 324.5,386.5 325.5,386.5 326.5,386.5C 326.624,390.389 325.291,393.722 322.5,396.5C 322.167,395.5 321.833,394.5 321.5,393.5C 321.886,391.068 322.553,388.734 323.5,386.5 Z"/></g>
<g><path style="opacity:1" fill="#141414" d="M 276.5,388.5 C 280.833,388.5 285.167,388.5 289.5,388.5C 289.5,390.167 289.5,391.833 289.5,393.5C 286.223,393.216 283.057,393.549 280,394.5C 279.501,399.155 279.334,403.821 279.5,408.5C 281.857,408.337 284.19,408.503 286.5,409C 287.833,410.333 287.833,411.667 286.5,413C 284.236,413.236 282.069,413.736 280,414.5C 279.501,419.489 279.334,424.489 279.5,429.5C 282.141,428.737 284.808,428.57 287.5,429C 288.833,430.667 288.833,432.333 287.5,434C 283.245,434.796 279.079,434.629 275,433.5C 274.138,418.398 274.638,403.398 276.5,388.5 Z"/></g>
<g><path style="opacity:1" fill="#171717" d="M 250.5,389.5 C 252.144,389.286 253.644,389.62 255,390.5C 255.288,403.835 255.121,417.168 254.5,430.5C 259.167,430.167 263.833,429.833 268.5,429.5C 268.859,431.766 268.192,433.599 266.5,435C 262.324,435.427 258.158,435.927 254,436.5C 251.966,436.646 250.299,435.98 249,434.5C 248.333,420.167 248.333,405.833 249,391.5C 249.717,390.956 250.217,390.289 250.5,389.5 Z"/></g>
<g><path style="opacity:1" fill="#0f0f0f" d="M 303.5,434.5 C 303.5,421.167 303.5,407.833 303.5,394.5C 301.167,394.5 298.833,394.5 296.5,394.5C 295.549,393.081 295.216,391.415 295.5,389.5C 303.179,389.596 310.846,389.93 318.5,390.5C 318.67,391.822 318.337,392.989 317.5,394C 314.518,394.498 311.518,394.665 308.5,394.5C 308.667,407.837 308.5,421.171 308,434.5C 306.384,435.801 304.884,435.801 303.5,434.5 Z"/></g>
<g><path style="opacity:1" fill="#111111" d="M 331.5,390.5 C 336.167,390.5 340.833,390.5 345.5,390.5C 345.5,393.833 345.5,397.167 345.5,400.5C 344.167,400.5 342.833,400.5 341.5,400.5C 341.5,398.5 341.5,396.5 341.5,394.5C 339.5,394.5 337.5,394.5 335.5,394.5C 335.335,397.85 335.502,401.183 336,404.5C 338.74,405.282 341.574,405.782 344.5,406C 345.893,407.171 346.727,408.671 347,410.5C 347.587,417.535 347.254,424.535 346,431.5C 345.348,433.723 343.848,434.89 341.5,435C 330.99,437.322 326.99,433.155 329.5,422.5C 333.908,422.062 335.575,424.062 334.5,428.5C 336.467,428.739 338.301,428.406 340,427.5C 340.499,421.843 340.666,416.176 340.5,410.5C 337.552,410.777 334.719,410.444 332,409.5C 331.5,403.175 331.334,396.842 331.5,390.5 Z"/></g>
<g><path style="opacity:1" fill="#999999" d="M 296.5,394.5 C 298.833,394.5 301.167,394.5 303.5,394.5C 303.5,407.833 303.5,421.167 303.5,434.5C 302.505,421.677 302.171,408.677 302.5,395.5C 300.265,395.795 298.265,395.461 296.5,394.5 Z"/></g>
<g><path style="opacity:1" fill="#0f0f0f" d="M 259.5,446.5 C 267.996,445.5 270.663,449 267.5,457C 264.194,456.959 262.861,455.126 263.5,451.5C 259.077,451.744 256.244,454.078 255,458.5C 254.813,468.202 255.313,477.869 256.5,487.5C 262.646,488.487 265.313,485.82 264.5,479.5C 266.167,479.5 267.833,479.5 269.5,479.5C 270.373,490.797 265.373,494.964 254.5,492C 249.755,478.857 248.588,465.357 251,451.5C 253.398,448.892 256.231,447.225 259.5,446.5 Z"/></g>
<g><path style="opacity:1" fill="#0d0d0d" d="M 282.5,446.5 C 286.995,446.493 291.162,447.493 295,449.5C 295.667,462.167 295.667,474.833 295,487.5C 291.956,493.496 287.622,494.829 282,491.5C 280.154,488.431 279.154,485.098 279,481.5C 278.333,470.833 278.333,460.167 279,449.5C 280.145,448.364 281.312,447.364 282.5,446.5 Z"/></g>
<g><path style="opacity:1" fill="#0e0e0e" d="M 309.5,446.5 C 315.863,446.022 319.363,449.022 320,455.5C 320.667,466.833 320.667,478.167 320,489.5C 318.334,492.666 315.668,494 312,493.5C 308.8,493.853 306.133,492.853 304,490.5C 303.333,477.833 303.333,465.167 304,452.5C 305.36,449.977 307.193,447.977 309.5,446.5 Z"/></g>
<g><path style="opacity:1" fill="#131313" d="M 330.5,446.5 C 331.833,446.5 333.167,446.5 334.5,446.5C 334.5,452.5 334.5,458.5 334.5,464.5C 336.903,464.607 338.736,463.607 340,461.5C 341.195,457.249 341.695,452.915 341.5,448.5C 342.833,448.5 344.167,448.5 345.5,448.5C 346.35,455.948 344.35,462.448 339.5,468C 342,469.167 343.833,471 345,473.5C 346.188,479.778 346.688,486.112 346.5,492.5C 345.167,492.5 343.833,492.5 342.5,492.5C 342.666,487.156 342.499,481.823 342,476.5C 340.59,473.211 338.09,471.544 334.5,471.5C 334.5,478.5 334.5,485.5 334.5,492.5C 332.856,492.714 331.356,492.38 330,491.5C 329.184,476.426 329.351,461.426 330.5,446.5 Z"/></g>
<g><path style="opacity:1" fill="#f2f2f2" d="M 285.5,455.5 C 288.388,455.22 289.888,456.553 290,459.5C 290.667,466.833 290.667,474.167 290,481.5C 289.632,482.91 288.799,483.91 287.5,484.5C 285.482,482.303 284.315,479.636 284,476.5C 282.954,469.297 283.454,462.297 285.5,455.5 Z"/></g>
<g><path style="opacity:1" fill="#f0f0f0" d="M 310.5,455.5 C 313.168,456.457 314.668,458.457 315,461.5C 315.667,468.167 315.667,474.833 315,481.5C 314.653,483.18 313.653,484.18 312,484.5C 310.265,483.318 309.265,481.651 309,479.5C 307.918,471.234 308.418,463.234 310.5,455.5 Z"/></g>
<g><path style="opacity:1" fill="#f4f5f7" d="M 262.5,506.5 C 260.407,507.886 260.574,509.553 263,511.5C 263.014,528.363 264.847,528.363 268.5,511.5C 269.48,514.086 269.813,516.753 269.5,519.5C 270.5,519.5 271.5,519.5 272.5,519.5C 273.981,540.764 275.147,540.764 276,519.5C 277,524.833 278,530.167 279,535.5C 280.456,534.08 281.956,532.747 283.5,531.5C 282.68,529.889 281.346,529.222 279.5,529.5C 279.338,527.473 279.505,525.473 280,523.5C 281.308,527.062 283.808,529.062 287.5,529.5C 287.5,530.833 287.5,532.167 287.5,533.5C 285.516,533.383 283.85,534.05 282.5,535.5C 281.502,543.476 280.835,551.476 280.5,559.5C 281.5,559.5 282.5,559.5 283.5,559.5C 284.497,551.52 285.497,543.52 286.5,535.5C 287.273,537.813 287.94,540.146 288.5,542.5C 289.325,543.386 290.325,543.719 291.5,543.5C 292.673,540.933 293.839,538.267 295,535.5C 296.771,534.696 298.271,533.529 299.5,532C 301.074,531.301 302.407,531.635 303.5,533C 302.01,533.745 301.01,534.912 300.5,536.5C 303.065,541.651 304.065,546.985 303.5,552.5C 304.365,553.583 305.365,553.749 306.5,553C 307.147,551.391 307.98,549.891 309,548.5C 309.44,550.076 310.273,551.41 311.5,552.5C 309.851,553.148 308.518,554.148 307.5,555.5C 309.892,558.527 312.892,559.527 316.5,558.5C 315.182,556.088 315.349,553.754 317,551.5C 318.651,553.754 318.818,556.088 317.5,558.5C 318.325,559.386 319.325,559.719 320.5,559.5C 320.62,563.042 320.286,566.542 319.5,570C 319.945,571.447 320.612,572.78 321.5,574C 320.313,576.724 319.647,579.557 319.5,582.5C 315.5,582.833 315.5,583.167 319.5,583.5C 319.187,586.247 319.52,588.914 320.5,591.5C 320.707,584.558 322.707,578.225 326.5,572.5C 327.696,573.559 328.363,574.893 328.5,576.5C 327.621,580.199 326.621,583.865 325.5,587.5C 325.667,588.833 325.833,590.167 326,591.5C 327.676,591.963 329.176,593.296 330.5,595.5C 329.714,597.041 328.714,598.374 327.5,599.5C 220.833,599.5 114.167,599.5 7.5,599.5C 7.47783,595.407 6.81116,591.407 5.5,587.5C 6.16581,580.847 6.66581,574.181 7,567.5C 8.33333,566.167 9.66667,566.167 11,567.5C 11.1747,570.157 11.0081,572.824 10.5,575.5C 11.8333,575.5 13.1667,575.5 14.5,575.5C 14.5958,571.689 15.2624,571.689 16.5,575.5C 16.8333,574.833 17.1667,574.167 17.5,573.5C 16.3489,571.675 15.6822,569.675 15.5,567.5C 16.5,567.5 17.5,567.5 18.5,567.5C 20.1606,575.397 20.8273,583.397 20.5,591.5C 24.1185,590.756 27.7852,590.423 31.5,590.5C 31.5,589.5 31.5,588.5 31.5,587.5C 28.8333,587.5 26.1667,587.5 23.5,587.5C 23.5,586.5 23.5,585.5 23.5,584.5C 26.1667,584.5 28.8333,584.5 31.5,584.5C 30.9728,578.152 31.6395,571.985 33.5,566C 33.1223,564.365 32.4556,562.865 31.5,561.5C 30.0316,563.333 28.3649,563.666 26.5,562.5C 24.7758,559.05 24.1091,555.383 24.5,551.5C 25.5,551.5 26.5,551.5 27.5,551.5C 28.1667,562.167 28.8333,562.167 29.5,551.5C 30.8333,551.5 32.1667,551.5 33.5,551.5C 35.1393,559.4 36.1393,567.4 36.5,575.5C 37.5,575.5 38.5,575.5 39.5,575.5C 39.7854,571.975 39.1187,568.642 37.5,565.5C 37.8748,563.541 38.5415,561.707 39.5,560C 37.6787,557.544 37.012,554.711 37.5,551.5C 38.8333,551.5 40.1667,551.5 41.5,551.5C 41.6672,548.043 42.6672,547.71 44.5,550.5C 42.7397,553.212 42.073,556.212 42.5,559.5C 43.8333,559.5 45.1667,559.5 46.5,559.5C 46.6697,554.141 47.1697,548.808 48,543.5C 48.0645,546.763 48.8978,549.763 50.5,552.5C 49.675,553.386 48.675,553.719 47.5,553.5C 47.5,554.833 47.5,556.167 47.5,557.5C 50.658,558.876 53.9913,559.542 57.5,559.5C 57.3359,556.813 57.5026,554.146 58,551.5C 58.3333,555.167 58.6667,558.833 59,562.5C 60.8889,564.483 62.2223,566.816 63,569.5C 63.7096,568.027 64.8762,567.36 66.5,567.5C 66.8643,578.087 67.8643,578.087 69.5,567.5C 70.3236,570.785 70.8236,574.118 71,577.5C 71.8333,575.5 72.6667,573.5 73.5,571.5C 73.8333,572.167 74.1667,572.833 74.5,573.5C 73.673,576.783 73.3396,580.116 73.5,583.5C 74.8333,583.5 76.1667,583.5 77.5,583.5C 77.6604,580.116 77.327,576.783 76.5,573.5C 77.7545,571.666 78.4211,569.666 78.5,567.5C 79.5,567.5 80.5,567.5 81.5,567.5C 80.3774,563.444 79.0441,559.444 77.5,555.5C 75.0914,554.278 73.258,554.945 72,557.5C 72.3334,554.072 72.1667,550.739 71.5,547.5C 71.6667,546.167 71.8333,544.833 72,543.5C 72.4935,545.134 72.6602,546.801 72.5,548.5C 73.8333,548.5 75.1667,548.5 76.5,548.5C 77.4841,544.224 78.3174,539.891 79,535.5C 79.4935,537.134 79.6602,538.801 79.5,540.5C 82.3149,539.874 84.8149,538.54 87,536.5C 87.9574,539.379 87.4574,541.879 85.5,544C 87.832,548.78 88.832,553.947 88.5,559.5C 90.8333,559.5 93.1667,559.5 95.5,559.5C 96.0036,550.138 96.0036,540.805 95.5,531.5C 95.8333,530.167 96.1667,528.833 96.5,527.5C 98.143,532.734 99.143,538.067 99.5,543.5C 100.5,543.5 101.5,543.5 102.5,543.5C 102.167,538.167 101.833,532.833 101.5,527.5C 102.5,527.5 103.5,527.5 104.5,527.5C 104.573,524.119 103.573,521.119 101.5,518.5C 103.959,517.209 105.459,515.209 106,512.5C 109.073,511.383 112.24,511.216 115.5,512C 117.693,515.324 119.026,515.157 119.5,511.5C 120.833,511.5 122.167,511.5 123.5,511.5C 124.476,520.785 125.476,520.785 126.5,511.5C 127.5,511.5 128.5,511.5 129.5,511.5C 129.222,513.346 129.889,514.68 131.5,515.5C 133.111,514.68 133.778,513.346 133.5,511.5C 134.833,511.5 136.167,511.5 137.5,511.5C 136.635,516.44 138.301,520.107 142.5,522.5C 144.223,519.06 144.89,515.394 144.5,511.5C 145.833,511.5 147.167,511.5 148.5,511.5C 148.858,514.898 148.192,518.065 146.5,521C 146.63,522.059 147.13,522.892 148,523.5C 149.851,519.543 151.018,515.376 151.5,511C 156.833,510.667 162.167,510.333 167.5,510C 159.831,509.541 152.164,509.041 144.5,508.5C 136.168,508.248 128.002,508.581 120,509.5C 119.536,508.906 119.369,508.239 119.5,507.5C 166.997,506.501 214.664,506.168 262.5,506.5 Z"/></g>
<g><path style="opacity:1" fill="#f0f1f4" d="M 262.5,506.5 C 302.833,506.5 343.167,506.5 383.5,506.5C 388.305,507.487 393.305,507.821 398.5,507.5C 398.5,508.5 398.5,509.5 398.5,510.5C 393.547,511.329 388.547,511.663 383.5,511.5C 382.076,514.687 381.409,517.854 381.5,521C 383.23,522.995 384.563,525.162 385.5,527.5C 390.167,527.5 394.833,527.5 399.5,527.5C 399.439,532.771 399.773,537.771 400.5,542.5C 401,542.833 401.5,543.167 402,543.5C 403.86,541.085 405.526,541.085 407,543.5C 407.333,542.833 407.667,542.167 408,541.5C 410.038,543.072 412.371,544.072 415,544.5C 416.406,549.507 416.572,554.507 415.5,559.5C 417.833,559.5 420.167,559.5 422.5,559.5C 422.819,555.7 423.819,555.534 425.5,559C 426.167,559.667 426.833,559.667 427.5,559C 426.092,556.708 426.259,554.541 428,552.5C 426.91,555.088 427.41,557.421 429.5,559.5C 432.384,555.344 434.718,555.678 436.5,560.5C 436.167,560.833 435.833,561.167 435.5,561.5C 434.476,560.147 433.143,559.48 431.5,559.5C 431.166,567.67 431.166,577.337 431.5,588.5C 432.833,588.5 434.167,588.5 435.5,588.5C 436.124,581.518 436.624,574.518 437,567.5C 437.182,574.291 438.016,580.958 439.5,587.5C 442.167,587.5 444.833,587.5 447.5,587.5C 447.008,591.29 447.841,591.956 450,589.5C 451,590.833 452,590.833 453,589.5C 454.309,591.891 455.309,591.891 456,589.5C 456.615,591.116 457.615,592.449 459,593.5C 460.049,591.893 461.549,591.227 463.5,591.5C 463.5,594.167 463.5,596.833 463.5,599.5C 418.167,599.5 372.833,599.5 327.5,599.5C 328.714,598.374 329.714,597.041 330.5,595.5C 329.176,593.296 327.676,591.963 326,591.5C 325.833,590.167 325.667,588.833 325.5,587.5C 326.621,583.865 327.621,580.199 328.5,576.5C 328.363,574.893 327.696,573.559 326.5,572.5C 322.707,578.225 320.707,584.558 320.5,591.5C 319.52,588.914 319.187,586.247 319.5,583.5C 315.5,583.167 315.5,582.833 319.5,582.5C 319.647,579.557 320.313,576.724 321.5,574C 320.612,572.78 319.945,571.447 319.5,570C 320.286,566.542 320.62,563.042 320.5,559.5C 319.325,559.719 318.325,559.386 317.5,558.5C 318.818,556.088 318.651,553.754 317,551.5C 315.349,553.754 315.182,556.088 316.5,558.5C 312.892,559.527 309.892,558.527 307.5,555.5C 308.518,554.148 309.851,553.148 311.5,552.5C 310.273,551.41 309.44,550.076 309,548.5C 307.98,549.891 307.147,551.391 306.5,553C 305.365,553.749 304.365,553.583 303.5,552.5C 304.065,546.985 303.065,541.651 300.5,536.5C 301.01,534.912 302.01,533.745 303.5,533C 302.407,531.635 301.074,531.301 299.5,532C 298.271,533.529 296.771,534.696 295,535.5C 293.839,538.267 292.673,540.933 291.5,543.5C 290.325,543.719 289.325,543.386 288.5,542.5C 287.94,540.146 287.273,537.813 286.5,535.5C 285.497,543.52 284.497,551.52 283.5,559.5C 282.5,559.5 281.5,559.5 280.5,559.5C 280.835,551.476 281.502,543.476 282.5,535.5C 283.85,534.05 285.516,533.383 287.5,533.5C 287.5,532.167 287.5,530.833 287.5,529.5C 283.808,529.062 281.308,527.062 280,523.5C 279.505,525.473 279.338,527.473 279.5,529.5C 281.346,529.222 282.68,529.889 283.5,531.5C 281.956,532.747 280.456,534.08 279,535.5C 278,530.167 277,524.833 276,519.5C 275.147,540.764 273.981,540.764 272.5,519.5C 271.5,519.5 270.5,519.5 269.5,519.5C 269.813,516.753 269.48,514.086 268.5,511.5C 264.847,528.363 263.014,528.363 263,511.5C 260.574,509.553 260.407,507.886 262.5,506.5 Z"/></g>
<g><path style="opacity:1" fill="#e7ebee" d="M 599.5,498.5 C 599.5,532.167 599.5,565.833 599.5,599.5C 578.167,599.5 556.833,599.5 535.5,599.5C 535.665,596.15 535.498,592.817 535,589.5C 534.586,589.957 534.086,590.291 533.5,590.5C 532.167,588.5 532.167,586.5 533.5,584.5C 536.112,584.985 536.112,584.151 533.5,582C 532.668,581.312 532.002,581.479 531.5,582.5C 530.915,585.503 530.248,588.503 529.5,591.5C 528.682,588.893 528.182,586.226 528,583.5C 527.016,585.795 526.183,585.461 525.5,582.5C 526.869,579.799 526.536,577.299 524.5,575C 528.501,570.95 527.501,568.284 521.5,567C 523.45,565.504 525.45,565.337 527.5,566.5C 528.558,569.848 528.725,573.181 528,576.5C 529.812,570.891 530.978,565.224 531.5,559.5C 530.5,559.5 529.5,559.5 528.5,559.5C 528.66,561.199 528.494,562.866 528,564.5C 527.517,563.552 527.351,562.552 527.5,561.5C 524.774,561.736 522.441,560.903 520.5,559C 521.308,558.692 521.975,558.192 522.5,557.5C 520.579,556.359 518.579,556.192 516.5,557C 519.314,559.902 520.147,563.402 519,567.5C 518.002,564.972 517.169,564.972 516.5,567.5C 517.421,569.13 518.255,570.797 519,572.5C 519.603,569.094 520.769,568.761 522.5,571.5C 519.24,573.959 517.74,577.292 518,581.5C 517.163,583.007 515.996,583.507 514.5,583C 511.539,577.11 509.539,570.777 508.5,564C 508.63,562.941 509.13,562.108 510,561.5C 510.557,563.615 511.391,565.615 512.5,567.5C 511.515,569.098 511.349,570.765 512,572.5C 515.321,567.931 514.821,563.764 510.5,560C 511.833,559 513.167,558 514.5,557C 512.457,556.07 510.624,555.57 509,555.5C 508.841,551.951 509.341,548.451 510.5,545C 509.781,542.352 508.114,540.852 505.5,540.5C 505.509,542.308 505.009,543.975 504,545.5C 503.156,541.353 501.99,537.353 500.5,533.5C 499.833,535.5 499.167,537.5 498.5,539.5C 496.795,536.184 495.962,532.851 496,529.5C 495.05,535.117 495.883,540.45 498.5,545.5C 497.164,548.009 496.33,550.676 496,553.5C 495.228,552.151 494.061,551.318 492.5,551C 496.538,546.879 495.538,544.379 489.5,543.5C 488.934,540.417 488.934,537.417 489.5,534.5C 488.166,531.555 486.833,528.555 485.5,525.5C 485.887,523.726 486.553,522.059 487.5,520.5C 485.949,517.641 484.949,514.641 484.5,511.5C 483.5,511.5 482.5,511.5 481.5,511.5C 482.38,514.657 483.713,517.657 485.5,520.5C 483.441,525.305 482.108,530.305 481.5,535.5C 479.476,530.148 479.476,524.982 481.5,520C 480.5,516.667 479.5,516.667 478.5,520C 479.554,521.388 479.72,522.888 479,524.5C 478.517,523.552 478.351,522.552 478.5,521.5C 476.408,521.561 474.908,522.561 474,524.5C 473.365,523.034 472.531,521.7 471.5,520.5C 473.015,517.263 472.681,514.263 470.5,511.5C 470.401,514.121 470.067,516.788 469.5,519.5C 468.167,514.167 466.833,514.167 465.5,519.5C 464.933,516.788 464.599,514.121 464.5,511.5C 463.719,512.729 463.219,514.062 463,515.5C 462.057,512.891 460.39,510.891 458,509.5C 457.08,512.308 457.913,514.475 460.5,516C 459.845,517.487 458.845,518.653 457.5,519.5C 457.765,513.135 454.432,510.469 447.5,511.5C 447.281,516.629 446.614,516.629 445.5,511.5C 441.603,510.97 438.27,511.97 435.5,514.5C 434.614,513.675 434.281,512.675 434.5,511.5C 432.876,511.64 431.71,510.973 431,509.5C 430.028,511.305 428.861,512.972 427.5,514.5C 426.139,512.972 424.972,511.305 424,509.5C 423.692,510.308 423.192,510.975 422.5,511.5C 418.033,511.027 413.366,510.693 408.5,510.5C 405.061,510.554 401.894,511.22 399,512.5C 398.536,511.906 398.369,511.239 398.5,510.5C 398.5,509.5 398.5,508.5 398.5,507.5C 393.305,507.821 388.305,507.487 383.5,506.5C 423.833,506.5 464.167,506.5 504.5,506.5C 504.5,502.5 504.5,498.5 504.5,494.5C 505.825,493.047 506.658,493.381 507,495.5C 508,490.167 509,484.833 510,479.5C 510.822,465.925 510.656,452.425 509.5,439C 510.87,437.559 511.87,435.892 512.5,434C 511.981,424.411 511.981,414.578 512.5,404.5C 513.117,404.389 513.617,404.056 514,403.5C 514.202,405.256 514.702,406.922 515.5,408.5C 515.833,408 516.167,407.5 516.5,407C 515.214,399.182 515.214,391.349 516.5,383.5C 517.197,388.954 517.197,394.454 516.5,400C 517.239,403.487 518.073,406.987 519,410.5C 518.574,403.463 518.408,396.463 518.5,389.5C 518.667,388.833 518.833,388.167 519,387.5C 521.699,391.752 521.866,396.085 519.5,400.5C 519.919,401.672 520.585,402.672 521.5,403.5C 520.828,407.171 521.161,410.837 522.5,414.5C 519.833,415.5 519.833,416.5 522.5,417.5C 523.338,413.612 524.672,409.945 526.5,406.5C 524.697,404.795 524.031,402.962 524.5,401C 523.049,401.263 521.716,401.096 520.5,400.5C 521.325,399.614 522.325,399.281 523.5,399.5C 523.933,396.834 524.433,394.168 525,391.5C 527.829,393.762 527.996,396.095 525.5,398.5C 526.981,399.48 528.315,400.647 529.5,402C 529.167,402.333 528.833,402.667 528.5,403C 532.167,403.667 533.167,402.333 531.5,399C 532.025,398.308 532.692,397.808 533.5,397.5C 535.425,397.837 536.925,399.17 538,401.5C 538.915,400.672 539.581,399.672 540,398.5C 540.925,399.047 541.758,399.713 542.5,400.5C 541.025,403.245 541.691,405.412 544.5,407C 543.572,407.388 542.905,408.055 542.5,409C 544.481,413.292 544.481,417.458 542.5,421.5C 543.232,424.47 543.399,427.47 543,430.5C 543.893,431.711 544.726,431.711 545.5,430.5C 545.294,427.947 544.961,425.447 544.5,423C 546.5,422.333 548.5,422.333 550.5,423C 548.264,423.734 546.931,425.234 546.5,427.5C 547.439,429.771 548.772,431.771 550.5,433.5C 550.061,435.104 549.394,436.604 548.5,438C 549.204,441.128 549.704,444.294 550,447.5C 551.66,444.23 551.994,440.897 551,437.5C 551.308,436.692 551.808,436.025 552.5,435.5C 553.594,436.868 553.26,438.035 551.5,439C 553.536,441.299 553.869,443.799 552.5,446.5C 554.052,449.541 555.719,452.541 557.5,455.5C 557.833,455 558.167,454.5 558.5,454C 556.319,449.096 554.986,443.929 554.5,438.5C 555.243,436.362 555.91,434.196 556.5,432C 557.01,430.174 557.844,430.007 559,431.5C 559.283,428.258 560.117,427.924 561.5,430.5C 560.524,432.123 561.024,433.457 563,434.5C 563.318,432.939 564.151,431.772 565.5,431C 564.643,430.311 563.977,429.478 563.5,428.5C 563.73,424.846 564.063,421.179 564.5,417.5C 565.167,418.833 565.833,420.167 566.5,421.5C 567.428,419.665 568.594,419.332 570,420.5C 568.517,421.899 567.35,423.732 566.5,426C 566.509,427.404 567.009,428.57 568,429.5C 568.333,429.167 568.667,428.833 569,428.5C 570.487,429.253 570.654,430.086 569.5,431C 570.167,432.667 570.833,434.333 571.5,436C 568.824,439.38 567.658,443.214 568,447.5C 568.983,445.552 570.15,443.718 571.5,442C 571.043,441.586 570.709,441.086 570.5,440.5C 572.17,438.659 573.17,436.492 573.5,434C 572.327,431.479 572.327,428.979 573.5,426.5C 574.724,430.228 575.224,433.895 575,437.5C 575.333,437.167 575.667,436.833 576,436.5C 576.249,437.624 576.749,438.624 577.5,439.5C 577.833,439.333 578.167,439.167 578.5,439C 579.11,437.053 579.943,435.219 581,433.5C 582.568,438.825 582.735,444.158 581.5,449.5C 582.863,450.893 583.696,452.559 584,454.5C 585.018,455.706 585.518,455.373 585.5,453.5C 583.88,449.909 584.213,446.576 586.5,443.5C 586.582,446.333 586.748,449.333 587,452.5C 588.043,450.299 588.877,447.966 589.5,445.5C 589.833,446.833 590.167,448.167 590.5,449.5C 588.939,453.249 587.106,456.916 585,460.5C 584.529,458.754 583.862,457.087 583,455.5C 582.998,459.929 584.165,464.096 586.5,468C 586.241,469.261 585.574,470.261 584.5,471C 585.448,471.483 586.448,471.649 587.5,471.5C 587.336,468.813 587.503,466.146 588,463.5C 588.994,466.961 589.827,470.461 590.5,474C 589.641,476.053 588.308,477.72 586.5,479C 587.5,479.667 588.5,479.667 589.5,479C 591.067,475.125 592.067,474.958 592.5,478.5C 591.639,484.942 590.306,491.275 588.5,497.5C 588.833,498.5 589.167,499.5 589.5,500.5C 590.254,496.059 591.421,491.725 593,487.5C 593.54,490.361 594.54,493.028 596,495.5C 596.603,492.344 596.103,489.344 594.5,486.5C 594.833,486.167 595.167,485.833 595.5,485.5C 597.563,489.694 598.896,494.027 599.5,498.5 Z"/></g>
<g><path style="opacity:1" fill="#ebeff2" d="M 535.5,599.5 C 511.5,599.5 487.5,599.5 463.5,599.5C 463.5,596.833 463.5,594.167 463.5,591.5C 461.549,591.227 460.049,591.893 459,593.5C 457.615,592.449 456.615,591.116 456,589.5C 455.309,591.891 454.309,591.891 453,589.5C 452,590.833 451,590.833 450,589.5C 447.841,591.956 447.008,591.29 447.5,587.5C 444.833,587.5 442.167,587.5 439.5,587.5C 438.016,580.958 437.182,574.291 437,567.5C 436.624,574.518 436.124,581.518 435.5,588.5C 434.167,588.5 432.833,588.5 431.5,588.5C 431.166,577.337 431.166,567.67 431.5,559.5C 433.143,559.48 434.476,560.147 435.5,561.5C 435.833,561.167 436.167,560.833 436.5,560.5C 434.718,555.678 432.384,555.344 429.5,559.5C 427.41,557.421 426.91,555.088 428,552.5C 426.259,554.541 426.092,556.708 427.5,559C 426.833,559.667 426.167,559.667 425.5,559C 423.819,555.534 422.819,555.7 422.5,559.5C 420.167,559.5 417.833,559.5 415.5,559.5C 416.572,554.507 416.406,549.507 415,544.5C 412.371,544.072 410.038,543.072 408,541.5C 407.667,542.167 407.333,542.833 407,543.5C 405.526,541.085 403.86,541.085 402,543.5C 401.5,543.167 401,542.833 400.5,542.5C 399.773,537.771 399.439,532.771 399.5,527.5C 394.833,527.5 390.167,527.5 385.5,527.5C 384.563,525.162 383.23,522.995 381.5,521C 381.409,517.854 382.076,514.687 383.5,511.5C 388.547,511.663 393.547,511.329 398.5,510.5C 398.369,511.239 398.536,511.906 399,512.5C 401.894,511.22 405.061,510.554 408.5,510.5C 413.366,510.693 418.033,511.027 422.5,511.5C 423.192,510.975 423.692,510.308 424,509.5C 424.972,511.305 426.139,512.972 427.5,514.5C 428.861,512.972 430.028,511.305 431,509.5C 431.71,510.973 432.876,511.64 434.5,511.5C 434.281,512.675 434.614,513.675 435.5,514.5C 438.27,511.97 441.603,510.97 445.5,511.5C 446.614,516.629 447.281,516.629 447.5,511.5C 454.432,510.469 457.765,513.135 457.5,519.5C 458.845,518.653 459.845,517.487 460.5,516C 457.913,514.475 457.08,512.308 458,509.5C 460.39,510.891 462.057,512.891 463,515.5C 463.219,514.062 463.719,512.729 464.5,511.5C 464.599,514.121 464.933,516.788 465.5,519.5C 466.833,514.167 468.167,514.167 469.5,519.5C 470.067,516.788 470.401,514.121 470.5,511.5C 472.681,514.263 473.015,517.263 471.5,520.5C 472.531,521.7 473.365,523.034 474,524.5C 474.908,522.561 476.408,521.561 478.5,521.5C 478.351,522.552 478.517,523.552 479,524.5C 479.72,522.888 479.554,521.388 478.5,520C 479.5,516.667 480.5,516.667 481.5,520C 479.476,524.982 479.476,530.148 481.5,535.5C 482.108,530.305 483.441,525.305 485.5,520.5C 483.713,517.657 482.38,514.657 481.5,511.5C 482.5,511.5 483.5,511.5 484.5,511.5C 484.949,514.641 485.949,517.641 487.5,520.5C 486.553,522.059 485.887,523.726 485.5,525.5C 486.833,528.555 488.166,531.555 489.5,534.5C 488.934,537.417 488.934,540.417 489.5,543.5C 495.538,544.379 496.538,546.879 492.5,551C 494.061,551.318 495.228,552.151 496,553.5C 496.33,550.676 497.164,548.009 498.5,545.5C 495.883,540.45 495.05,535.117 496,529.5C 495.962,532.851 496.795,536.184 498.5,539.5C 499.167,537.5 499.833,535.5 500.5,533.5C 501.99,537.353 503.156,541.353 504,545.5C 505.009,543.975 505.509,542.308 505.5,540.5C 508.114,540.852 509.781,542.352 510.5,545C 509.341,548.451 508.841,551.951 509,555.5C 510.624,555.57 512.457,556.07 514.5,557C 513.167,558 511.833,559 510.5,560C 514.821,563.764 515.321,567.931 512,572.5C 511.349,570.765 511.515,569.098 512.5,567.5C 511.391,565.615 510.557,563.615 510,561.5C 509.13,562.108 508.63,562.941 508.5,564C 509.539,570.777 511.539,577.11 514.5,583C 515.996,583.507 517.163,583.007 518,581.5C 517.74,577.292 519.24,573.959 522.5,571.5C 520.769,568.761 519.603,569.094 519,572.5C 518.255,570.797 517.421,569.13 516.5,567.5C 517.169,564.972 518.002,564.972 519,567.5C 520.147,563.402 519.314,559.902 516.5,557C 518.579,556.192 520.579,556.359 522.5,557.5C 521.975,558.192 521.308,558.692 520.5,559C 522.441,560.903 524.774,561.736 527.5,561.5C 527.351,562.552 527.517,563.552 528,564.5C 528.494,562.866 528.66,561.199 528.5,559.5C 529.5,559.5 530.5,559.5 531.5,559.5C 530.978,565.224 529.812,570.891 528,576.5C 528.725,573.181 528.558,569.848 527.5,566.5C 525.45,565.337 523.45,565.504 521.5,567C 527.501,568.284 528.501,570.95 524.5,575C 526.536,577.299 526.869,579.799 525.5,582.5C 526.183,585.461 527.016,585.795 528,583.5C 528.182,586.226 528.682,588.893 529.5,591.5C 530.248,588.503 530.915,585.503 531.5,582.5C 532.002,581.479 532.668,581.312 533.5,582C 536.112,584.151 536.112,584.985 533.5,584.5C 532.167,586.5 532.167,588.5 533.5,590.5C 534.086,590.291 534.586,589.957 535,589.5C 535.498,592.817 535.665,596.15 535.5,599.5 Z"/></g>
</svg>
