<?xml version="1.0" encoding="UTF-8"?>
<!DOCTYPE svg PUBLIC "-//W3C//DTD SVG 1.1//EN" "http://www.w3.org/Graphics/SVG/1.1/DTD/svg11.dtd">
<svg xmlns="http://www.w3.org/2000/svg" version="1.1" width="280px" height="280px" style="shape-rendering:geometricPrecision; text-rendering:geometricPrecision; image-rendering:optimizeQuality; fill-rule:evenodd; clip-rule:evenodd" xmlns:xlink="http://www.w3.org/1999/xlink">
<g><path style="opacity:1" fill="#00bbf5" d="M 119.5,-0.5 C 132.833,-0.5 146.167,-0.5 159.5,-0.5C 224.928,12.9281 264.928,52.2615 279.5,117.5C 279.5,130.833 279.5,144.167 279.5,157.5C 277.443,161.802 276.443,166.469 276.5,171.5C 265.586,215.81 239.586,247.977 198.5,268C 186.458,273.183 174.125,277.017 161.5,279.5C 146.833,279.5 132.167,279.5 117.5,279.5C 61.7194,268.505 24.2194,236.172 5,182.5C 2.95516,174.751 1.12183,167.085 -0.5,159.5C -0.5,146.167 -0.5,132.833 -0.5,119.5C 3.85117,92.134 15.1845,68.134 33.5,47.5C 38.5,43.1667 43.1667,38.5 47.5,33.5C 59.3567,22.3955 73.0234,14.0622 88.5,8.5C 96.9791,6.33542 105.312,4.00208 113.5,1.5C 115.5,0.833333 117.5,0.166667 119.5,-0.5 Z"/></g>
<g><path style="opacity:0.945" fill="#007ea6" d="M 113.5,1.5 C 105.312,4.00208 96.9791,6.33542 88.5,8.5C 96.3498,4.78486 104.683,2.45152 113.5,1.5 Z"/></g>
<g><path style="opacity:1" fill="#020202" d="M 124.5,15.5 C 180.946,12.2104 223.112,34.8771 251,83.5C 272.268,130.355 267.934,174.688 238,216.5C 211.908,248.042 178.242,264.042 137,264.5C 82.2239,260.378 44.2239,233.045 23,182.5C 6.63613,130.964 17.4695,86.1308 55.5,48C 75.4691,30.6816 98.4691,19.8482 124.5,15.5 Z"/></g>
<g><path style="opacity:1" fill="#8f8cd5" d="M 175.5,36.5 C 173.833,37.5 172.5,38.8333 171.5,40.5C 168.484,44.8419 165.151,48.8419 161.5,52.5C 160.833,52.5 160.5,52.1667 160.5,51.5C 161.471,49.5168 162.471,47.5168 163.5,45.5C 166.064,42.7198 168.397,39.7198 170.5,36.5C 171.807,35.8466 173.14,35.1799 174.5,34.5C 175.298,34.9569 175.631,35.6236 175.5,36.5 Z"/></g>
<g><path style="opacity:0.796" fill="#056c8d" d="M 47.5,33.5 C 43.1667,38.5 38.5,43.1667 33.5,47.5C 37.1667,41.8333 41.8333,37.1667 47.5,33.5 Z"/></g>
<g><path style="opacity:1" fill="#b56b64" d="M 175.5,36.5 C 179.257,41.5446 184.257,44.2113 190.5,44.5C 187.104,44.8843 184.104,46.2177 181.5,48.5C 180.737,47.7321 179.737,47.2321 178.5,47C 180.301,46.6827 180.634,46.016 179.5,45C 177.913,44.1376 176.246,43.4709 174.5,43C 174.833,42.6667 175.167,42.3333 175.5,42C 174.423,41.5304 173.423,41.6971 172.5,42.5C 172.672,41.5084 172.338,40.8417 171.5,40.5C 172.5,38.8333 173.833,37.5 175.5,36.5 Z"/></g>
<g><path style="opacity:1" fill="#ab7456" d="M 170.5,36.5 C 168.397,39.7198 166.064,42.7198 163.5,45.5C 161.315,45.2964 159.315,44.6298 157.5,43.5C 157.5,41.8333 157.5,40.1667 157.5,38.5C 161.876,38.0912 166.21,37.4245 170.5,36.5 Z"/></g>
<g><path style="opacity:1" fill="#643e3c" d="M 153.5,43.5 C 153.784,45.4147 153.451,47.0813 152.5,48.5C 145.081,46.0062 137.414,44.6729 129.5,44.5C 122.646,44.176 115.979,44.5093 109.5,45.5C 108.167,45.5 106.833,45.5 105.5,45.5C 96.762,45.1988 88.4287,46.5321 80.5,49.5C 80.1667,50.5 79.5,51.1667 78.5,51.5C 78.5824,49.7483 77.7491,48.7483 76,48.5C 73.9701,48.9537 72.1368,49.6204 70.5,50.5C 69.5,50.5 68.5,50.5 67.5,50.5C 65.9519,50.8212 65.2852,51.8212 65.5,53.5C 63.8726,51.5363 61.8726,50.203 59.5,49.5C 59.5,50.8333 59.5,52.1667 59.5,53.5C 58.5655,52.4324 58.2322,51.099 58.5,49.5C 58.8656,48.3054 59.699,47.6387 61,47.5C 62.6264,48.0182 64.293,48.3516 66,48.5C 93.2277,43.3243 120.561,42.3243 148,45.5C 149.939,45.0457 151.772,44.379 153.5,43.5 Z"/></g>
<g><path style="opacity:1" fill="#6e95db" d="M 109.5,45.5 C 115.979,44.5093 122.646,44.176 129.5,44.5C 129.833,45.1667 130.167,45.8333 130.5,46.5C 123.543,45.6136 116.543,45.2803 109.5,45.5 Z"/></g>
<g><path style="opacity:1" fill="#d3855d" d="M 181.5,48.5 C 179.167,49.8333 176.833,51.1667 174.5,52.5C 174.397,50.9441 173.563,49.2774 172,47.5C 171.22,45.6131 171.387,43.9464 172.5,42.5C 173.423,41.6971 174.423,41.5304 175.5,42C 175.167,42.3333 174.833,42.6667 174.5,43C 176.246,43.4709 177.913,44.1376 179.5,45C 180.634,46.016 180.301,46.6827 178.5,47C 179.737,47.2321 180.737,47.7321 181.5,48.5 Z"/></g>
<g><path style="opacity:1" fill="#a18cd3" d="M 190.5,44.5 C 189.833,45.8333 189.167,47.1667 188.5,48.5C 185.728,48.7587 183.395,49.7587 181.5,51.5C 178.5,53.5 175.5,55.5 172.5,57.5C 171.833,57.5 171.167,57.5 170.5,57.5C 171.3,55.4265 172.633,53.7598 174.5,52.5C 176.833,51.1667 179.167,49.8333 181.5,48.5C 184.104,46.2177 187.104,44.8843 190.5,44.5 Z"/></g>
<g><path style="opacity:1" fill="#dbd8d8" d="M 105.5,45.5 C 106.833,45.5 108.167,45.5 109.5,45.5C 116.543,45.2803 123.543,45.6136 130.5,46.5C 145.07,47.6347 158.403,52.1347 170.5,60C 172.063,60.7589 173.063,61.9256 173.5,63.5C 165.565,58.2016 156.898,54.535 147.5,52.5C 141.147,50.1929 134.48,48.6929 127.5,48C 118.506,47.5002 109.506,47.3336 100.5,47.5C 101.528,46.7048 103.194,46.0382 105.5,45.5 Z"/></g>
<g><path style="opacity:1" fill="#8669ae" d="M 157.5,38.5 C 157.5,40.1667 157.5,41.8333 157.5,43.5C 156.833,45.5 156.167,47.5 155.5,49.5C 154.209,49.7373 153.209,49.404 152.5,48.5C 153.451,47.0813 153.784,45.4147 153.5,43.5C 154.604,41.6115 155.937,39.9448 157.5,38.5 Z"/></g>
<g><path style="opacity:1" fill="#9a3638" d="M 157.5,43.5 C 159.315,44.6298 161.315,45.2964 163.5,45.5C 162.471,47.5168 161.471,49.5168 160.5,51.5C 158.597,51.2041 156.93,50.5375 155.5,49.5C 156.167,47.5 156.833,45.5 157.5,43.5 Z"/></g>
<g><path style="opacity:1" fill="#5962d5" d="M 129.5,44.5 C 137.414,44.6729 145.081,46.0062 152.5,48.5C 153.209,49.404 154.209,49.7373 155.5,49.5C 156.93,50.5375 158.597,51.2041 160.5,51.5C 160.5,52.1667 160.833,52.5 161.5,52.5C 164.661,53.9131 167.661,55.5797 170.5,57.5C 171.167,57.5 171.833,57.5 172.5,57.5C 173.833,59.1667 175.167,60.8333 176.5,62.5C 175.761,62.369 175.094,62.5357 174.5,63C 175.738,63.69 175.738,64.19 174.5,64.5C 174.167,64.5 173.833,64.5 173.5,64.5C 173.5,64.1667 173.5,63.8333 173.5,63.5C 173.063,61.9256 172.063,60.7589 170.5,60C 158.403,52.1347 145.07,47.6347 130.5,46.5C 130.167,45.8333 129.833,45.1667 129.5,44.5 Z"/></g>
<g><path style="opacity:1" fill="#7b6cc8" d="M 105.5,45.5 C 103.194,46.0382 101.528,46.7048 100.5,47.5C 95.9411,48.8571 91.2745,49.1904 86.5,48.5C 86.7475,50.8583 86.0808,52.8583 84.5,54.5C 84.1667,54.5 83.8333,54.5 83.5,54.5C 83.6309,53.6236 83.2975,52.9569 82.5,52.5C 80.7097,54.3157 78.7097,55.6491 76.5,56.5C 75.8333,56.5 75.5,56.1667 75.5,55.5C 75.3284,54.5084 75.6618,53.8417 76.5,53.5C 78.6636,54.1183 80.3303,53.1183 81.5,50.5C 81.3764,49.8933 81.0431,49.56 80.5,49.5C 88.4287,46.5321 96.762,45.1988 105.5,45.5 Z"/></g>
<g><path style="opacity:1" fill="#e7d7e5" d="M 80.5,49.5 C 81.0431,49.56 81.3764,49.8933 81.5,50.5C 80.3303,53.1183 78.6636,54.1183 76.5,53.5C 77.5,53.1667 78.1667,52.5 78.5,51.5C 79.5,51.1667 80.1667,50.5 80.5,49.5 Z"/></g>
<g><path style="opacity:1" fill="#5c54ef" d="M 100.5,47.5 C 109.506,47.3336 118.506,47.5002 127.5,48C 134.48,48.6929 141.147,50.1929 147.5,52.5C 146.34,53.265 145.34,54.265 144.5,55.5C 144.846,56.6956 145.346,56.6956 146,55.5C 146.249,56.624 146.749,57.624 147.5,58.5C 148.998,58.8342 150.665,58.8342 152.5,58.5C 154.741,59.0318 156.241,60.3651 157,62.5C 157.333,61.8333 157.667,61.1667 158,60.5C 160.051,62.5238 162.384,64.1905 165,65.5C 166.897,63.9837 169.064,63.317 171.5,63.5C 171.367,66.925 172.033,67.2583 173.5,64.5C 173.833,64.5 174.167,64.5 174.5,64.5C 174.297,66.3904 174.963,67.8904 176.5,69C 174.364,70.1792 172.364,70.6792 170.5,70.5C 163.441,65.8049 155.775,62.4715 147.5,60.5C 141.155,57.8282 134.488,56.3282 127.5,56C 113.196,54.7301 98.8627,54.2301 84.5,54.5C 86.0808,52.8583 86.7475,50.8583 86.5,48.5C 91.2745,49.1904 95.9411,48.8571 100.5,47.5 Z"/></g>
<g><path style="opacity:1" fill="#a9493d" d="M 171.5,40.5 C 172.338,40.8417 172.672,41.5084 172.5,42.5C 171.387,43.9464 171.22,45.6131 172,47.5C 173.563,49.2774 174.397,50.9441 174.5,52.5C 172.633,53.7598 171.3,55.4265 170.5,57.5C 167.661,55.5797 164.661,53.9131 161.5,52.5C 165.151,48.8419 168.484,44.8419 171.5,40.5 Z"/></g>
<g><path style="opacity:1" fill="#5575e8" d="M 78.5,51.5 C 78.1667,52.5 77.5,53.1667 76.5,53.5C 75.6618,53.8417 75.3284,54.5084 75.5,55.5C 72.5151,54.8866 69.5151,55.2199 66.5,56.5C 65.8902,55.609 65.5569,54.609 65.5,53.5C 65.2852,51.8212 65.9519,50.8212 67.5,50.5C 65.9456,51.8946 66.279,52.5613 68.5,52.5C 69.938,52.2811 71.2713,51.7811 72.5,51C 71.9056,50.5357 71.2389,50.369 70.5,50.5C 72.1368,49.6204 73.9701,48.9537 76,48.5C 77.7491,48.7483 78.5824,49.7483 78.5,51.5 Z"/></g>
<g><path style="opacity:1" fill="#cec7e5" d="M 67.5,50.5 C 68.5,50.5 69.5,50.5 70.5,50.5C 71.2389,50.369 71.9056,50.5357 72.5,51C 71.2713,51.7811 69.938,52.2811 68.5,52.5C 66.279,52.5613 65.9456,51.8946 67.5,50.5 Z"/></g>
<g><path style="opacity:1" fill="#612e20" d="M 83.5,54.5 C 82.7611,54.369 82.0944,54.5357 81.5,55C 82.7468,56.4579 82.7468,57.9579 81.5,59.5C 82.2739,60.7112 83.1072,60.7112 84,59.5C 84.49,58.2068 84.6567,56.8734 84.5,55.5C 85.404,56.209 85.7373,57.209 85.5,58.5C 85.4431,59.609 85.1098,60.609 84.5,61.5C 82.7085,61.634 81.0418,61.3007 79.5,60.5C 78.9744,58.7697 77.9744,57.4363 76.5,56.5C 78.7097,55.6491 80.7097,54.3157 82.5,52.5C 83.2975,52.9569 83.6309,53.6236 83.5,54.5 Z"/></g>
<g><path style="opacity:1" fill="#a34635" d="M 181.5,51.5 C 182.239,51.369 182.906,51.5357 183.5,52C 181.5,53.3333 179.5,54.6667 177.5,56C 179.966,57.3158 182.299,57.8158 184.5,57.5C 182.019,58.7197 180.019,60.3863 178.5,62.5C 177.833,62.5 177.167,62.5 176.5,62.5C 175.167,60.8333 173.833,59.1667 172.5,57.5C 175.5,55.5 178.5,53.5 181.5,51.5 Z"/></g>
<g><path style="opacity:1" fill="#b35267" d="M 188.5,48.5 C 189.415,50.7541 190.748,52.7541 192.5,54.5C 189.833,55.5 187.167,56.5 184.5,57.5C 182.299,57.8158 179.966,57.3158 177.5,56C 179.5,54.6667 181.5,53.3333 183.5,52C 182.906,51.5357 182.239,51.369 181.5,51.5C 183.395,49.7587 185.728,48.7587 188.5,48.5 Z"/></g>
<g><path style="opacity:1" fill="#40aff3" d="M 75.5,55.5 C 75.5,56.1667 75.8333,56.5 76.5,56.5C 76.4142,57.4959 76.7476,58.3292 77.5,59C 75.6854,59.7568 74.0188,60.5902 72.5,61.5C 71.7281,60.3065 70.7281,59.3065 69.5,58.5C 69.1583,57.6618 68.4916,57.3284 67.5,57.5C 66.8333,57.5 66.5,57.1667 66.5,56.5C 69.5151,55.2199 72.5151,54.8866 75.5,55.5 Z"/></g>
<g><path style="opacity:1" fill="#70a0f3" d="M 84.5,55.5 C 84.5,55.1667 84.5,54.8333 84.5,54.5C 98.8627,54.2301 113.196,54.7301 127.5,56C 134.488,56.3282 141.155,57.8282 147.5,60.5C 147.5,61.5 147.5,62.5 147.5,63.5C 148.93,63.5792 150.264,63.2458 151.5,62.5C 152.362,63.7658 153.029,65.0992 153.5,66.5C 145.525,63.7981 137.359,61.7981 129,60.5C 127.566,60.8618 126.399,61.5285 125.5,62.5C 124.655,63.6715 123.989,65.0048 123.5,66.5C 117.555,66.2611 111.555,66.5945 105.5,67.5C 105.5,65.1667 105.5,62.8333 105.5,60.5C 112.235,60.7955 118.902,60.7955 125.5,60.5C 118.301,58.703 110.968,58.0363 103.5,58.5C 102.755,61.3896 102.088,64.3896 101.5,67.5C 97.36,62.4288 92.0267,59.4288 85.5,58.5C 85.7373,57.209 85.404,56.209 84.5,55.5 Z"/></g>
<g><path style="opacity:1" fill="#cba152" d="M 83.5,54.5 C 83.8333,54.5 84.1667,54.5 84.5,54.5C 84.5,54.8333 84.5,55.1667 84.5,55.5C 84.6567,56.8734 84.49,58.2068 84,59.5C 83.1072,60.7112 82.2739,60.7112 81.5,59.5C 82.7468,57.9579 82.7468,56.4579 81.5,55C 82.0944,54.5357 82.7611,54.369 83.5,54.5 Z"/></g>
<g><path style="opacity:1" fill="#4b74e3" d="M 76.5,56.5 C 77.9744,57.4363 78.9744,58.7697 79.5,60.5C 79.5,61.1667 79.5,61.8333 79.5,62.5C 79.3259,64.861 78.9926,67.1944 78.5,69.5C 77.7777,68.4489 76.7777,67.7822 75.5,67.5C 74.5294,65.5168 73.5294,63.5168 72.5,61.5C 74.0188,60.5902 75.6854,59.7568 77.5,59C 76.7476,58.3292 76.4142,57.4959 76.5,56.5 Z"/></g>
<g><path style="opacity:1" fill="#5242f2" d="M 147.5,52.5 C 156.898,54.535 165.565,58.2016 173.5,63.5C 173.5,63.8333 173.5,64.1667 173.5,64.5C 172.033,67.2583 171.367,66.925 171.5,63.5C 169.064,63.317 166.897,63.9837 165,65.5C 162.384,64.1905 160.051,62.5238 158,60.5C 157.667,61.1667 157.333,61.8333 157,62.5C 156.241,60.3651 154.741,59.0318 152.5,58.5C 150.665,58.8342 148.998,58.8342 147.5,58.5C 146.749,57.624 146.249,56.624 146,55.5C 145.346,56.6956 144.846,56.6956 144.5,55.5C 145.34,54.265 146.34,53.265 147.5,52.5 Z"/></g>
<g><path style="opacity:1" fill="#ead4a7" d="M 79.5,60.5 C 81.0418,61.3007 82.7085,61.634 84.5,61.5C 84.5,61.8333 84.5,62.1667 84.5,62.5C 84.5,62.8333 84.5,63.1667 84.5,63.5C 82.7085,63.634 81.0418,63.3007 79.5,62.5C 79.5,61.8333 79.5,61.1667 79.5,60.5 Z"/></g>
<g><path style="opacity:1" fill="#924363" d="M 193.5,57.5 C 193.247,59.8273 193.914,61.8273 195.5,63.5C 195.376,64.1067 195.043,64.44 194.5,64.5C 193.167,64.5 191.833,64.5 190.5,64.5C 189.737,63.7321 188.737,63.2321 187.5,63C 190.544,62.6411 190.878,61.9745 188.5,61C 189.056,60.6174 189.389,60.1174 189.5,59.5C 190.514,58.3263 191.847,57.6596 193.5,57.5 Z"/></g>
<g><path style="opacity:1" fill="#e8ebc4" d="M 65.5,53.5 C 65.5569,54.609 65.8902,55.609 66.5,56.5C 66.5,57.1667 66.8333,57.5 67.5,57.5C 69.1299,62.0806 71.1299,66.4139 73.5,70.5C 73.8333,73.1667 74.1667,75.8333 74.5,78.5C 75.1495,80.4352 75.4828,82.4352 75.5,84.5C 74.8333,85.5 74.1667,86.5 73.5,87.5C 72.609,88.1098 71.609,88.4431 70.5,88.5C 70.1417,85.3112 69.475,82.3112 68.5,79.5C 67.0783,70.2331 64.0783,61.5665 59.5,53.5C 59.5,52.1667 59.5,50.8333 59.5,49.5C 61.8726,50.203 63.8726,51.5363 65.5,53.5 Z"/></g>
<g><path style="opacity:1" fill="#6dd4f0" d="M 85.5,58.5 C 92.0267,59.4288 97.36,62.4288 101.5,67.5C 101.122,69.921 100.455,72.2543 99.5,74.5C 98.8333,74.5 98.1667,74.5 97.5,74.5C 95.5174,67.5005 91.1841,63.5005 84.5,62.5C 84.5,62.1667 84.5,61.8333 84.5,61.5C 85.1098,60.609 85.4431,59.609 85.5,58.5 Z"/></g>
<g><path style="opacity:1" fill="#8b3e36" d="M 189.5,59.5 C 189.389,60.1174 189.056,60.6174 188.5,61C 190.878,61.9745 190.544,62.6411 187.5,63C 188.737,63.2321 189.737,63.7321 190.5,64.5C 186.415,67.9828 182.748,67.8162 179.5,64C 182.256,61.2468 185.589,59.7468 189.5,59.5 Z"/></g>
<g><path style="opacity:1" fill="#302424" d="M 67.5,57.5 C 68.4916,57.3284 69.1583,57.6618 69.5,58.5C 71.41,62.3172 72.7433,66.3172 73.5,70.5C 71.1299,66.4139 69.1299,62.0806 67.5,57.5 Z"/></g>
<g><path style="opacity:1" fill="#521325" d="M 125.5,62.5 C 125.5,63.8333 125.5,65.1667 125.5,66.5C 125.59,69.1522 124.924,71.4855 123.5,73.5C 123.5,71.8333 123.5,70.1667 123.5,68.5C 123.5,67.8333 123.5,67.1667 123.5,66.5C 123.989,65.0048 124.655,63.6715 125.5,62.5 Z"/></g>
<g><path style="opacity:1" fill="#91353d" d="M 58.5,49.5 C 58.2322,51.099 58.5655,52.4324 59.5,53.5C 64.0783,61.5665 67.0783,70.2331 68.5,79.5C 68.6567,80.8734 68.49,82.2068 68,83.5C 66.884,80.2444 65.0507,77.5777 62.5,75.5C 59.8382,66.8265 58.5049,58.1599 58.5,49.5 Z"/></g>
<g><path style="opacity:1" fill="#c5b57b" d="M 69.5,58.5 C 70.7281,59.3065 71.7281,60.3065 72.5,61.5C 73.5294,63.5168 74.5294,65.5168 75.5,67.5C 79.1908,72.0221 80.1908,77.0221 78.5,82.5C 77.7095,83.4013 76.7095,84.0679 75.5,84.5C 75.4828,82.4352 75.1495,80.4352 74.5,78.5C 75.746,75.7067 75.4127,73.04 73.5,70.5C 72.7433,66.3172 71.41,62.3172 69.5,58.5 Z"/></g>
<g><path style="opacity:1" fill="#8579da" d="M 192.5,54.5 C 194.796,54.8041 195.129,55.8041 193.5,57.5C 191.847,57.6596 190.514,58.3263 189.5,59.5C 185.589,59.7468 182.256,61.2468 179.5,64C 182.748,67.8162 186.415,67.9828 190.5,64.5C 191.833,64.5 193.167,64.5 194.5,64.5C 194.5,64.8333 194.5,65.1667 194.5,65.5C 191.552,67.362 188.552,69.0287 185.5,70.5C 183.097,70.607 181.264,69.607 180,67.5C 178.796,68.4706 178.296,69.4706 178.5,70.5C 177.756,69.0095 177.09,67.5095 176.5,66C 177.973,65.2904 178.64,64.1238 178.5,62.5C 180.019,60.3863 182.019,58.7197 184.5,57.5C 187.167,56.5 189.833,55.5 192.5,54.5 Z"/></g>
<g><path style="opacity:1" fill="#47d0ea" d="M 79.5,62.5 C 81.0418,63.3007 82.7085,63.634 84.5,63.5C 87.13,70.9002 88.13,78.5669 87.5,86.5C 85.629,86.1412 84.129,85.1412 83,83.5C 83.1772,86.1858 84.6772,87.8524 87.5,88.5C 87.1788,90.0481 86.1788,90.7148 84.5,90.5C 83.5,90.1667 82.8333,89.5 82.5,88.5C 82.5,86.5 81.5,85.5 79.5,85.5C 79.5,85.1667 79.5,84.8333 79.5,84.5C 80.3382,84.1583 80.6716,83.4916 80.5,82.5C 81.0184,81.4226 81.3517,80.2559 81.5,79C 80.7935,75.7151 79.7935,72.5484 78.5,69.5C 78.9926,67.1944 79.3259,64.861 79.5,62.5 Z"/></g>
<g><path style="opacity:1" fill="#60c3e8" d="M 103.5,58.5 C 110.968,58.0363 118.301,58.703 125.5,60.5C 118.902,60.7955 112.235,60.7955 105.5,60.5C 105.5,62.8333 105.5,65.1667 105.5,67.5C 111.555,66.5945 117.555,66.2611 123.5,66.5C 123.5,67.1667 123.5,67.8333 123.5,68.5C 121.246,69.1237 119.579,70.457 118.5,72.5C 115.527,76.1396 112.194,79.4729 108.5,82.5C 103.306,85.5109 97.9727,88.3442 92.5,91C 93.448,91.4828 94.448,91.6495 95.5,91.5C 94.1667,92.5 92.8333,93.5 91.5,94.5C 90.5,95.1667 89.5,95.8333 88.5,96.5C 87.8333,96.5 87.1667,96.5 86.5,96.5C 85.5,96.1667 84.8333,95.5 84.5,94.5C 84.8333,93.8333 85.1667,93.1667 85.5,92.5C 89.3681,90.9707 92.7015,88.6374 95.5,85.5C 95.4346,85.9382 95.6012,86.2716 96,86.5C 100.028,84.4877 103.528,81.6544 106.5,78C 108.42,76.8777 110.42,76.0444 112.5,75.5C 112.382,69.5967 109.382,67.2634 103.5,68.5C 103.5,65.1667 103.5,61.8333 103.5,58.5 Z"/></g>
<g><path style="opacity:1" fill="#678ff7" d="M 147.5,60.5 C 155.775,62.4715 163.441,65.8049 170.5,70.5C 173.319,73.075 176.319,75.4083 179.5,77.5C 178.778,78.5511 177.778,79.2178 176.5,79.5C 169.178,74.3448 161.511,70.0115 153.5,66.5C 153.029,65.0992 152.362,63.7658 151.5,62.5C 150.264,63.2458 148.93,63.5792 147.5,63.5C 147.5,62.5 147.5,61.5 147.5,60.5 Z"/></g>
<g><path style="opacity:1" fill="#7f3147" d="M 194.5,65.5 C 194.366,67.2915 194.699,68.9582 195.5,70.5C 193.901,70.2322 192.568,70.5655 191.5,71.5C 190.167,71.5 189.5,72.1667 189.5,73.5C 188.167,72.5 186.833,71.5 185.5,70.5C 188.552,69.0287 191.552,67.362 194.5,65.5 Z"/></g>
<g><path style="opacity:1" fill="#34171a" d="M 73.5,70.5 C 75.4127,73.04 75.746,75.7067 74.5,78.5C 74.1667,75.8333 73.8333,73.1667 73.5,70.5 Z"/></g>
<g><path style="opacity:1" fill="#59d4f1" d="M 153.5,66.5 C 161.511,70.0115 169.178,74.3448 176.5,79.5C 192.481,91.8126 203.814,107.479 210.5,126.5C 212.999,134.945 213.999,143.611 213.5,152.5C 213.874,156.647 212.874,160.314 210.5,163.5C 210.364,160.449 210.698,157.449 211.5,154.5C 211.333,153.833 211.167,153.167 211,152.5C 210.722,153.416 210.222,154.082 209.5,154.5C 209.027,153.094 208.027,152.427 206.5,152.5C 207.661,150.817 208.661,148.984 209.5,147C 208.201,145.674 206.868,144.34 205.5,143C 207.444,140.847 207.944,138.347 207,135.5C 205.348,134.601 203.848,133.601 202.5,132.5C 203.809,131.376 204.475,129.876 204.5,128C 203.335,125.742 201.669,123.909 199.5,122.5C 200.393,119.916 200.726,117.249 200.5,114.5C 199.07,114.579 197.736,114.246 196.5,113.5C 195.786,110.973 195.12,108.473 194.5,106C 192.48,104.783 190.48,104.617 188.5,105.5C 188.567,99.9064 185.9,96.9064 180.5,96.5C 178.856,94.3491 177.522,91.8491 176.5,89C 174.527,88.5045 172.527,88.3379 170.5,88.5C 171.226,84.7396 169.893,82.073 166.5,80.5C 166.773,78.549 166.107,77.049 164.5,76C 157.816,75.4536 151.149,75.6203 144.5,76.5C 145.438,74.2436 145.438,71.9103 144.5,69.5C 141.167,70.1667 137.833,70.8333 134.5,71.5C 133.833,69.1667 133.167,66.8333 132.5,64.5C 129.789,64.1849 127.456,64.8516 125.5,66.5C 125.5,65.1667 125.5,63.8333 125.5,62.5C 126.399,61.5285 127.566,60.8618 129,60.5C 137.359,61.7981 145.525,63.7981 153.5,66.5 Z"/></g>
<g><path style="opacity:1" fill="#7cb8ee" d="M 191.5,71.5 C 192.873,71.3433 194.207,71.51 195.5,72C 193.942,72.21 192.609,72.71 191.5,73.5C 190.833,73.5 190.167,73.5 189.5,73.5C 189.5,72.1667 190.167,71.5 191.5,71.5 Z"/></g>
<g><path style="opacity:1" fill="#6d53b1" d="M 191.5,71.5 C 192.568,70.5655 193.901,70.2322 195.5,70.5C 198.167,71.5 198.167,72.5 195.5,73.5C 194.167,73.5 192.833,73.5 191.5,73.5C 192.609,72.71 193.942,72.21 195.5,72C 194.207,71.51 192.873,71.3433 191.5,71.5 Z"/></g>
<g><path style="opacity:1" fill="#6494f2" d="M 97.5,74.5 C 94.1667,78.5 90.8333,82.5 87.5,86.5C 88.13,78.5669 87.13,70.9002 84.5,63.5C 84.5,63.1667 84.5,62.8333 84.5,62.5C 91.1841,63.5005 95.5174,67.5005 97.5,74.5 Z"/></g>
<g><path style="opacity:1" fill="#6aa6f5" d="M 144.5,76.5 C 140.088,77.9704 135.755,79.6371 131.5,81.5C 130.167,81.5 128.833,81.5 127.5,81.5C 125.57,81.2294 124.236,80.2294 123.5,78.5C 123.5,76.8333 123.5,75.1667 123.5,73.5C 124.924,71.4855 125.59,69.1522 125.5,66.5C 127.456,64.8516 129.789,64.1849 132.5,64.5C 133.167,66.8333 133.833,69.1667 134.5,71.5C 137.833,70.8333 141.167,70.1667 144.5,69.5C 145.438,71.9103 145.438,74.2436 144.5,76.5 Z"/></g>
<g><path style="opacity:1" fill="#932435" d="M 166.5,80.5 C 166.5,80.8333 166.5,81.1667 166.5,81.5C 165.101,84.6293 163.435,87.6293 161.5,90.5C 160.448,88.744 158.781,88.0773 156.5,88.5C 156.5,87.5 156.5,86.5 156.5,85.5C 158.924,85.8076 161.257,85.4742 163.5,84.5C 162.675,83.6143 161.675,83.281 160.5,83.5C 161.23,81.955 162.563,81.1216 164.5,81C 162.009,80.3741 162.009,79.5407 164.5,78.5C 159.682,77.1876 155.015,77.1876 150.5,78.5C 144.114,79.1719 137.781,80.1719 131.5,81.5C 135.755,79.6371 140.088,77.9704 144.5,76.5C 151.149,75.6203 157.816,75.4536 164.5,76C 166.107,77.049 166.773,78.549 166.5,80.5 Z"/></g>
<g><path style="opacity:1" fill="#59dcef" d="M 103.5,68.5 C 109.382,67.2634 112.382,69.5967 112.5,75.5C 110.42,76.0444 108.42,76.8777 106.5,78C 103.528,81.6544 100.028,84.4877 96,86.5C 95.6012,86.2716 95.4346,85.9382 95.5,85.5C 98.9319,80.2097 101.599,74.543 103.5,68.5 Z"/></g>
<g><path style="opacity:1" fill="#3b222f" d="M 75.5,67.5 C 76.7777,67.7822 77.7777,68.4489 78.5,69.5C 79.7935,72.5484 80.7935,75.7151 81.5,79C 81.3517,80.2559 81.0184,81.4226 80.5,82.5C 79.8333,82.5 79.1667,82.5 78.5,82.5C 80.1908,77.0221 79.1908,72.0221 75.5,67.5 Z"/></g>
<g><path style="opacity:1" fill="#a35e33" d="M 62.5,75.5 C 65.0507,77.5777 66.884,80.2444 68,83.5C 68.49,82.2068 68.6567,80.8734 68.5,79.5C 69.475,82.3112 70.1417,85.3112 70.5,88.5C 68.5,88.1667 66.5,87.8333 64.5,87.5C 64.1625,90.5256 62.4959,92.5256 59.5,93.5C 63.5123,88.1045 64.5123,82.1045 62.5,75.5 Z"/></g>
<g><path style="opacity:1" fill="#7f4228" d="M 189.5,73.5 C 190.167,73.5 190.833,73.5 191.5,73.5C 192.833,73.5 194.167,73.5 195.5,73.5C 194.588,74.7382 194.421,76.0715 195,77.5C 198.763,81.4253 202.263,85.4253 205.5,89.5C 204.833,89.8333 204.167,90.1667 203.5,90.5C 199.529,84.2016 194.862,78.5349 189.5,73.5 Z"/></g>
<g><path style="opacity:1" fill="#a74eaf" d="M 97.5,74.5 C 98.1667,74.5 98.8333,74.5 99.5,74.5C 98.0091,79.1989 95.3425,82.8656 91.5,85.5C 93.7664,81.9663 95.7664,78.2996 97.5,74.5 Z"/></g>
<g><path style="opacity:1" fill="#792336" d="M 103.5,58.5 C 103.5,61.8333 103.5,65.1667 103.5,68.5C 101.599,74.543 98.9319,80.2097 95.5,85.5C 92.7015,88.6374 89.3681,90.9707 85.5,92.5C 85.1667,91.8333 84.8333,91.1667 84.5,90.5C 86.1788,90.7148 87.1788,90.0481 87.5,88.5C 89.0301,87.7888 90.3634,86.7888 91.5,85.5C 95.3425,82.8656 98.0091,79.1989 99.5,74.5C 100.455,72.2543 101.122,69.921 101.5,67.5C 102.088,64.3896 102.755,61.3896 103.5,58.5 Z"/></g>
<g><path style="opacity:1" fill="#683f6c" d="M 150.5,78.5 C 155.015,77.1876 159.682,77.1876 164.5,78.5C 162.009,79.5407 162.009,80.3741 164.5,81C 162.563,81.1216 161.23,81.955 160.5,83.5C 156.818,83.6653 153.152,83.4986 149.5,83C 152.688,81.6842 156.022,81.1842 159.5,81.5C 159.5,80.5 159.5,79.5 159.5,78.5C 156.5,78.5 153.5,78.5 150.5,78.5 Z"/></g>
<g><path style="opacity:1" fill="#6260f4" d="M 176.5,62.5 C 177.167,62.5 177.833,62.5 178.5,62.5C 178.64,64.1238 177.973,65.2904 176.5,66C 177.09,67.5095 177.756,69.0095 178.5,70.5C 178.296,69.4706 178.796,68.4706 180,67.5C 181.264,69.607 183.097,70.607 185.5,70.5C 186.833,71.5 188.167,72.5 189.5,73.5C 194.862,78.5349 199.529,84.2016 203.5,90.5C 204.615,93.8868 206.282,96.8868 208.5,99.5C 208.5,99.8333 208.5,100.167 208.5,100.5C 208.604,102.703 209.27,104.703 210.5,106.5C 210.232,108.099 210.566,109.432 211.5,110.5C 211.5,110.833 211.5,111.167 211.5,111.5C 211.232,113.099 211.566,114.432 212.5,115.5C 212.665,118.85 212.498,122.183 212,125.5C 211.768,124.263 211.268,123.263 210.5,122.5C 204.882,104.267 194.548,89.2672 179.5,77.5C 176.319,75.4083 173.319,73.075 170.5,70.5C 172.364,70.6792 174.364,70.1792 176.5,69C 174.963,67.8904 174.297,66.3904 174.5,64.5C 175.738,64.19 175.738,63.69 174.5,63C 175.094,62.5357 175.761,62.369 176.5,62.5 Z"/></g>
<g><path style="opacity:1" fill="#d7bbbf" d="M 97.5,74.5 C 95.7664,78.2996 93.7664,81.9663 91.5,85.5C 90.3634,86.7888 89.0301,87.7888 87.5,88.5C 84.6772,87.8524 83.1772,86.1858 83,83.5C 84.129,85.1412 85.629,86.1412 87.5,86.5C 90.8333,82.5 94.1667,78.5 97.5,74.5 Z"/></g>
<g><path style="opacity:1" fill="#7e68cc" d="M 150.5,78.5 C 153.5,78.5 156.5,78.5 159.5,78.5C 159.5,79.5 159.5,80.5 159.5,81.5C 156.022,81.1842 152.688,81.6842 149.5,83C 153.152,83.4986 156.818,83.6653 160.5,83.5C 161.675,83.281 162.675,83.6143 163.5,84.5C 161.257,85.4742 158.924,85.8076 156.5,85.5C 146.694,85.216 137.028,86.0493 127.5,88C 131.152,88.4986 134.818,88.6653 138.5,88.5C 144.167,88.5 149.833,88.5 155.5,88.5C 155.833,88.5 156.167,88.5 156.5,88.5C 158.781,88.0773 160.448,88.744 161.5,90.5C 160.167,90.5 158.833,90.5 157.5,90.5C 147.111,89.859 137.111,90.5257 127.5,92.5C 127.167,92.5 126.833,92.5 126.5,92.5C 126.244,88.7307 126.577,85.0641 127.5,81.5C 128.833,81.5 130.167,81.5 131.5,81.5C 137.781,80.1719 144.114,79.1719 150.5,78.5 Z"/></g>
<g><path style="opacity:1" fill="#88ddb0" d="M 78.5,82.5 C 79.1667,82.5 79.8333,82.5 80.5,82.5C 80.6716,83.4916 80.3382,84.1583 79.5,84.5C 77.7952,86.1921 75.7952,87.5254 73.5,88.5C 73.5,88.1667 73.5,87.8333 73.5,87.5C 74.1667,86.5 74.8333,85.5 75.5,84.5C 76.7095,84.0679 77.7095,83.4013 78.5,82.5 Z"/></g>
<g><path style="opacity:1" fill="#42363d" d="M 79.5,85.5 C 81.5,85.5 82.5,86.5 82.5,88.5C 81.5,88.5 80.5,88.5 79.5,88.5C 79.5,87.5 79.5,86.5 79.5,85.5 Z"/></g>
<g><path style="opacity:1" fill="#749fe4" d="M 166.5,81.5 C 169.567,86.7927 168.9,91.6261 164.5,96C 165.252,96.6708 165.586,97.5041 165.5,98.5C 163.5,97.8333 161.5,97.1667 159.5,96.5C 160.167,94.5 160.833,92.5 161.5,90.5C 163.435,87.6293 165.101,84.6293 166.5,81.5 Z"/></g>
<g><path style="opacity:1" fill="#5f2a5d" d="M 156.5,85.5 C 156.5,86.5 156.5,87.5 156.5,88.5C 156.167,88.5 155.833,88.5 155.5,88.5C 151.483,87.7469 147.316,87.0802 143,86.5C 141.272,86.899 139.772,87.5657 138.5,88.5C 134.818,88.6653 131.152,88.4986 127.5,88C 137.028,86.0493 146.694,85.216 156.5,85.5 Z"/></g>
<g><path style="opacity:1" fill="#602796" d="M 155.5,88.5 C 149.833,88.5 144.167,88.5 138.5,88.5C 139.772,87.5657 141.272,86.899 143,86.5C 147.316,87.0802 151.483,87.7469 155.5,88.5 Z"/></g>
<g><path style="opacity:1" fill="#e2e3c8" d="M 108.5,82.5 C 104.999,86.6625 100.665,89.6625 95.5,91.5C 94.448,91.6495 93.448,91.4828 92.5,91C 97.9727,88.3442 103.306,85.5109 108.5,82.5 Z"/></g>
<g><path style="opacity:1" fill="#4c2d35" d="M 118.5,72.5 C 114.128,81.8703 107.128,88.537 97.5,92.5C 96.5,92.8333 95.8333,93.5 95.5,94.5C 94.1667,94.5 92.8333,94.5 91.5,94.5C 92.8333,93.5 94.1667,92.5 95.5,91.5C 100.665,89.6625 104.999,86.6625 108.5,82.5C 112.194,79.4729 115.527,76.1396 118.5,72.5 Z"/></g>
<g><path style="opacity:1" fill="#4b2524" d="M 123.5,73.5 C 123.5,75.1667 123.5,76.8333 123.5,78.5C 120.566,86.3646 116.566,93.6979 111.5,100.5C 110.5,100.833 109.833,101.5 109.5,102.5C 108.833,103.167 108.167,103.833 107.5,104.5C 103.6,105.43 99.6002,105.763 95.5,105.5C 88.5,105.5 81.5,105.5 74.5,105.5C 74.5,105.167 74.5,104.833 74.5,104.5C 84.4871,103.87 94.4871,103.37 104.5,103C 106.618,102.74 108.284,101.74 109.5,100C 108.207,99.51 106.873,99.3433 105.5,99.5C 107.556,98.7839 109.723,98.1172 112,97.5C 113.739,94.1211 115.572,90.7878 117.5,87.5C 116.975,86.8076 116.308,86.3076 115.5,86C 119.852,84.4281 120.185,82.7615 116.5,81C 120.323,79.8286 122.657,77.3286 123.5,73.5 Z"/></g>
<g><path style="opacity:1" fill="#d4d299" d="M 123.5,68.5 C 123.5,70.1667 123.5,71.8333 123.5,73.5C 122.657,77.3286 120.323,79.8286 116.5,81C 120.185,82.7615 119.852,84.4281 115.5,86C 116.308,86.3076 116.975,86.8076 117.5,87.5C 115.572,90.7878 113.739,94.1211 112,97.5C 109.723,98.1172 107.556,98.7839 105.5,99.5C 97.5789,100.633 89.5789,100.8 81.5,100C 87.5275,99.8303 93.5275,99.3303 99.5,98.5C 99.2907,97.914 98.9574,97.414 98.5,97C 95.1832,96.5017 91.8499,96.335 88.5,96.5C 89.5,95.8333 90.5,95.1667 91.5,94.5C 92.8333,94.5 94.1667,94.5 95.5,94.5C 100.509,95.7523 105.509,95.5856 110.5,94C 111.696,93.3457 111.696,92.8457 110.5,92.5C 106.036,93.7994 101.702,93.7994 97.5,92.5C 107.128,88.537 114.128,81.8703 118.5,72.5C 119.579,70.457 121.246,69.1237 123.5,68.5 Z"/></g>
<g><path style="opacity:1" fill="#7d3547" d="M 205.5,89.5 C 213.37,92.2912 220.703,96.1245 227.5,101C 229.141,102.129 230.141,103.629 230.5,105.5C 223.082,100.621 215.249,96.288 207,92.5C 206.493,93.9961 206.993,95.1627 208.5,96C 214.997,99.4141 221.33,103.081 227.5,107C 228.252,107.671 228.586,108.504 228.5,109.5C 223.653,107.65 219.32,104.983 215.5,101.5C 213.199,100.675 210.865,100.008 208.5,99.5C 206.282,96.8868 204.615,93.8868 203.5,90.5C 204.167,90.1667 204.833,89.8333 205.5,89.5 Z"/></g>
<g><path style="opacity:1" fill="#d2e490" d="M 79.5,88.5 C 80.5,88.5 81.5,88.5 82.5,88.5C 82.8333,89.5 83.5,90.1667 84.5,90.5C 84.8333,91.1667 85.1667,91.8333 85.5,92.5C 85.1667,93.1667 84.8333,93.8333 84.5,94.5C 82.7697,95.0256 81.4363,96.0256 80.5,97.5C 79.7784,97.0825 79.2784,96.4158 79,95.5C 78.1864,98.1767 76.6864,100.177 74.5,101.5C 77.0128,97.4773 78.6795,93.1439 79.5,88.5 Z"/></g>
<g><path style="opacity:1" fill="#45dbec" d="M 123.5,78.5 C 124.236,80.2294 125.57,81.2294 127.5,81.5C 126.577,85.0641 126.244,88.7307 126.5,92.5C 126.702,94.9496 126.369,97.283 125.5,99.5C 124.596,100.209 124.263,101.209 124.5,102.5C 120.224,101.69 115.891,101.023 111.5,100.5C 116.566,93.6979 120.566,86.3646 123.5,78.5 Z"/></g>
<g><path style="opacity:1" fill="#9b7f51" d="M 97.5,92.5 C 101.702,93.7994 106.036,93.7994 110.5,92.5C 111.696,92.8457 111.696,93.3457 110.5,94C 105.509,95.5856 100.509,95.7523 95.5,94.5C 95.8333,93.5 96.5,92.8333 97.5,92.5 Z"/></g>
<g><path style="opacity:1" fill="#683562" d="M 157.5,90.5 C 157.768,92.099 157.434,93.4324 156.5,94.5C 152.384,92.9363 148.05,92.2696 143.5,92.5C 140.167,92.8333 136.833,93.1667 133.5,93.5C 145.424,95.5297 145.424,96.1964 133.5,95.5C 133.737,96.791 133.404,97.791 132.5,98.5C 131.713,96.8958 130.38,96.2291 128.5,96.5C 128.33,95.1779 128.663,94.0113 129.5,93C 128.906,92.5357 128.239,92.369 127.5,92.5C 137.111,90.5257 147.111,89.859 157.5,90.5 Z"/></g>
<g><path style="opacity:1" fill="#5b69c0" d="M 166.5,80.5 C 169.893,82.073 171.226,84.7396 170.5,88.5C 172.527,88.3379 174.527,88.5045 176.5,89C 177.522,91.8491 178.856,94.3491 180.5,96.5C 182.667,97.198 184.5,98.5313 186,100.5C 185.693,103.485 186.193,106.485 187.5,109.5C 183.533,105.183 178.866,101.85 173.5,99.5C 173.167,99.8333 172.833,100.167 172.5,100.5C 173.602,101.176 174.602,101.842 175.5,102.5C 175.167,102.5 174.833,102.5 174.5,102.5C 171.721,102.721 169.054,102.388 166.5,101.5C 166.443,100.391 166.11,99.391 165.5,98.5C 165.586,97.5041 165.252,96.6708 164.5,96C 168.9,91.6261 169.567,86.7927 166.5,81.5C 166.5,81.1667 166.5,80.8333 166.5,80.5 Z"/></g>
<g><path style="opacity:1" fill="#af212e" d="M 157.5,90.5 C 158.833,90.5 160.167,90.5 161.5,90.5C 160.833,92.5 160.167,94.5 159.5,96.5C 157.5,98.8333 155.5,101.167 153.5,103.5C 151.585,103.784 149.919,103.451 148.5,102.5C 149.949,100.836 151.949,100.002 154.5,100C 153.643,99.3109 152.977,98.4776 152.5,97.5C 153.949,96.8281 155.282,96.1614 156.5,95.5C 156.5,95.1667 156.5,94.8333 156.5,94.5C 157.434,93.4324 157.768,92.099 157.5,90.5 Z"/></g>
<g><path style="opacity:1" fill="#87363b" d="M 70.5,88.5 C 71.609,88.4431 72.609,88.1098 73.5,87.5C 73.5,87.8333 73.5,88.1667 73.5,88.5C 72.158,89.793 70.4913,90.6264 68.5,91C 63.8878,96.3124 58.2212,100.146 51.5,102.5C 51.5,102.167 51.5,101.833 51.5,101.5C 53.8333,98.5 56.5,95.8333 59.5,93.5C 62.4959,92.5256 64.1625,90.5256 64.5,87.5C 66.5,87.8333 68.5,88.1667 70.5,88.5 Z"/></g>
<g><path style="opacity:1" fill="#59d6b0" d="M 84.5,94.5 C 84.8333,95.5 85.5,96.1667 86.5,96.5C 86.0296,97.6935 85.0296,98.3601 83.5,98.5C 82.2739,98.4805 81.2739,98.1471 80.5,97.5C 81.4363,96.0256 82.7697,95.0256 84.5,94.5 Z"/></g>
<g><path style="opacity:1" fill="#644b9b" d="M 156.5,94.5 C 156.5,94.8333 156.5,95.1667 156.5,95.5C 153.813,95.3359 151.146,95.5026 148.5,96C 149.5,97 150.5,98 151.5,99C 147.5,99.3333 143.5,99.6667 139.5,100C 142.338,101.255 145.338,102.089 148.5,102.5C 149.919,103.451 151.585,103.784 153.5,103.5C 153.167,104.5 152.5,105.167 151.5,105.5C 143.725,103.908 136.058,101.741 128.5,99C 129.793,98.51 131.127,98.3433 132.5,98.5C 133.404,97.791 133.737,96.791 133.5,95.5C 145.424,96.1964 145.424,95.5297 133.5,93.5C 136.833,93.1667 140.167,92.8333 143.5,92.5C 148.05,92.2696 152.384,92.9363 156.5,94.5 Z"/></g>
<g><path style="opacity:1" fill="#8071c7" d="M 230.5,105.5 C 230.5,106.833 230.5,108.167 230.5,109.5C 229.833,109.5 229.167,109.5 228.5,109.5C 228.586,108.504 228.252,107.671 227.5,107C 221.33,103.081 214.997,99.4141 208.5,96C 206.993,95.1627 206.493,93.9961 207,92.5C 215.249,96.288 223.082,100.621 230.5,105.5 Z"/></g>
<g><path style="opacity:1" fill="#6b355e" d="M 156.5,95.5 C 155.282,96.1614 153.949,96.8281 152.5,97.5C 152.977,98.4776 153.643,99.3109 154.5,100C 151.949,100.002 149.949,100.836 148.5,102.5C 145.338,102.089 142.338,101.255 139.5,100C 143.5,99.6667 147.5,99.3333 151.5,99C 150.5,98 149.5,97 148.5,96C 151.146,95.5026 153.813,95.3359 156.5,95.5 Z"/></g>
<g><path style="opacity:1" fill="#303224" d="M 79.5,88.5 C 78.6795,93.1439 77.0128,97.4773 74.5,101.5C 73.391,101.557 72.391,101.89 71.5,102.5C 68.8333,102.833 66.1667,103.167 63.5,103.5C 66.6144,102.044 69.9477,100.878 73.5,100C 75.6719,96.1527 77.6719,92.3193 79.5,88.5 Z"/></g>
<g><path style="opacity:1" fill="#f4f0bc" d="M 79.5,84.5 C 79.5,84.8333 79.5,85.1667 79.5,85.5C 79.5,86.5 79.5,87.5 79.5,88.5C 77.6719,92.3193 75.6719,96.1527 73.5,100C 69.9477,100.878 66.6144,102.044 63.5,103.5C 58.9705,103.966 54.6372,103.966 50.5,103.5C 51.1667,103.5 51.5,103.167 51.5,102.5C 58.2212,100.146 63.8878,96.3124 68.5,91C 70.4913,90.6264 72.158,89.793 73.5,88.5C 75.7952,87.5254 77.7952,86.1921 79.5,84.5 Z"/></g>
<g><path style="opacity:1" fill="#e0e4c7" d="M 80.5,97.5 C 81.2739,98.1471 82.2739,98.4805 83.5,98.5C 85.0296,98.3601 86.0296,97.6935 86.5,96.5C 87.1667,96.5 87.8333,96.5 88.5,96.5C 91.8499,96.335 95.1832,96.5017 98.5,97C 98.9574,97.414 99.2907,97.914 99.5,98.5C 93.5275,99.3303 87.5275,99.8303 81.5,100C 89.5789,100.8 97.5789,100.633 105.5,99.5C 106.873,99.3433 108.207,99.51 109.5,100C 108.284,101.74 106.618,102.74 104.5,103C 94.4871,103.37 84.4871,103.87 74.5,104.5C 73.5,104.5 72.5,104.5 71.5,104.5C 70.4937,104.062 70.4937,103.396 71.5,102.5C 72.391,101.89 73.391,101.557 74.5,101.5C 76.6864,100.177 78.1864,98.1767 79,95.5C 79.2784,96.4158 79.7784,97.0825 80.5,97.5 Z"/></g>
<g><path style="opacity:1" fill="#7c619e" d="M 125.5,99.5 C 133.189,102.439 141.189,105.105 149.5,107.5C 149.167,108.5 148.5,109.167 147.5,109.5C 141.124,107.642 134.79,105.309 128.5,102.5C 127.893,102.624 127.56,102.957 127.5,103.5C 126.391,103.443 125.391,103.11 124.5,102.5C 124.263,101.209 124.596,100.209 125.5,99.5 Z"/></g>
<g><path style="opacity:1" fill="#671933" d="M 208.5,100.5 C 212.607,102.726 216.607,105.226 220.5,108C 217.015,108.326 213.682,107.826 210.5,106.5C 209.27,104.703 208.604,102.703 208.5,100.5 Z"/></g>
<g><path style="opacity:1" fill="#81d1c0" d="M 71.5,102.5 C 70.4937,103.396 70.4937,104.062 71.5,104.5C 64.3803,105.928 57.047,106.594 49.5,106.5C 49.2627,105.209 49.596,104.209 50.5,103.5C 54.6372,103.966 58.9705,103.966 63.5,103.5C 66.1667,103.167 68.8333,102.833 71.5,102.5 Z"/></g>
<g><path style="opacity:1" fill="#7b1f32" d="M 126.5,92.5 C 126.833,92.5 127.167,92.5 127.5,92.5C 128.239,92.369 128.906,92.5357 129.5,93C 128.663,94.0113 128.33,95.1779 128.5,96.5C 130.38,96.2291 131.713,96.8958 132.5,98.5C 131.127,98.3433 129.793,98.51 128.5,99C 136.058,101.741 143.725,103.908 151.5,105.5C 151.167,106.5 150.5,107.167 149.5,107.5C 141.189,105.105 133.189,102.439 125.5,99.5C 126.369,97.283 126.702,94.9496 126.5,92.5 Z"/></g>
<g><path style="opacity:1" fill="#9d8a60" d="M 74.5,105.5 C 81.5,105.5 88.5,105.5 95.5,105.5C 93.3926,106.468 91.0593,106.802 88.5,106.5C 83.6367,106.181 78.97,106.514 74.5,107.5C 73.1667,106.833 73.1667,106.167 74.5,105.5 Z"/></g>
<g><path style="opacity:1" fill="#941d1f" d="M 147.5,109.5 C 145.958,110.301 144.292,110.634 142.5,110.5C 136.812,109.488 131.812,107.154 127.5,103.5C 127.56,102.957 127.893,102.624 128.5,102.5C 134.79,105.309 141.124,107.642 147.5,109.5 Z"/></g>
<g><path style="opacity:1" fill="#55a1f8" d="M 179.5,77.5 C 194.548,89.2672 204.882,104.267 210.5,122.5C 210.5,123.833 210.5,125.167 210.5,126.5C 203.814,107.479 192.481,91.8126 176.5,79.5C 177.778,79.2178 178.778,78.5511 179.5,77.5 Z"/></g>
<g><path style="opacity:1" fill="#f0fbcb" d="M 74.5,107.5 C 78.97,106.514 83.6367,106.181 88.5,106.5C 87.2825,107.161 85.9492,107.828 84.5,108.5C 87.5848,109.73 90.7515,110.73 94,111.5C 95.0299,111.836 95.5299,112.503 95.5,113.5C 94.1667,113.5 92.8333,113.5 91.5,113.5C 89.8008,113.66 88.1341,113.494 86.5,113C 83.1608,110.376 79.4941,108.543 75.5,107.5C 75.1667,107.5 74.8333,107.5 74.5,107.5 Z"/></g>
<g><path style="opacity:1" fill="#eac87d" d="M 187.5,109.5 C 192.803,116.437 196.803,124.104 199.5,132.5C 199.5,132.833 199.5,133.167 199.5,133.5C 194.643,120.812 186.643,110.478 175.5,102.5C 174.602,101.842 173.602,101.176 172.5,100.5C 172.833,100.167 173.167,99.8333 173.5,99.5C 178.866,101.85 183.533,105.183 187.5,109.5 Z"/></g>
<g><path style="opacity:1" fill="#744da1" d="M 208.5,100.5 C 208.5,100.167 208.5,99.8333 208.5,99.5C 210.865,100.008 213.199,100.675 215.5,101.5C 219.32,104.983 223.653,107.65 228.5,109.5C 229.167,109.5 229.833,109.5 230.5,109.5C 230.408,114.195 228.408,117.695 224.5,120C 225.934,122.528 225.267,124.362 222.5,125.5C 219.972,124.601 217.472,123.601 215,122.5C 214.601,122.728 214.435,123.062 214.5,123.5C 213.566,122.432 213.232,121.099 213.5,119.5C 216.577,120.391 219.577,121.224 222.5,122C 219.757,119.962 216.757,118.462 213.5,117.5C 213.5,116.833 213.5,116.167 213.5,115.5C 225.215,118.203 225.382,117.537 214,113.5C 212.97,113.836 212.47,114.503 212.5,115.5C 211.566,114.432 211.232,113.099 211.5,111.5C 221.599,113.223 221.932,112.223 212.5,108.5C 211.702,108.957 211.369,109.624 211.5,110.5C 210.566,109.432 210.232,108.099 210.5,106.5C 213.682,107.826 217.015,108.326 220.5,108C 216.607,105.226 212.607,102.726 208.5,100.5 Z"/></g>
<g><path style="opacity:1" fill="#5a1d27" d="M 211.5,111.5 C 211.5,111.167 211.5,110.833 211.5,110.5C 211.369,109.624 211.702,108.957 212.5,108.5C 221.932,112.223 221.599,113.223 211.5,111.5 Z"/></g>
<g><path style="opacity:1" fill="#7cd6c0" d="M 75.5,107.5 C 79.4941,108.543 83.1608,110.376 86.5,113C 88.1341,113.494 89.8008,113.66 91.5,113.5C 85.0526,114.96 79.7193,112.96 75.5,107.5 Z"/></g>
<g><path style="opacity:1" fill="#f3f97f" d="M 108.5,105.5 C 116.823,107.831 124.157,111.998 130.5,118C 134.722,119.941 138.722,122.108 142.5,124.5C 143.734,127.535 143.734,130.535 142.5,133.5C 138.668,129.836 134.668,126.336 130.5,123C 129.563,122.308 128.897,122.475 128.5,123.5C 127.061,122.491 125.728,122.824 124.5,124.5C 122.946,122.907 121.279,121.574 119.5,120.5C 123.219,117.951 123.219,115.284 119.5,112.5C 116.963,112.305 114.297,112.639 111.5,113.5C 111.5,114.5 111.5,115.5 111.5,116.5C 109.596,116.262 108.262,115.262 107.5,113.5C 108.263,112.732 109.263,112.232 110.5,112C 107.2,112.046 103.866,112.212 100.5,112.5C 98.8679,111.168 97.2012,109.835 95.5,108.5C 98.8177,107.33 102.151,107.33 105.5,108.5C 107.516,108.484 108.516,107.484 108.5,105.5 Z"/></g>
<g><path style="opacity:1" fill="#f3f6a2" d="M 107.5,104.5 C 107.5,105.167 107.833,105.5 108.5,105.5C 108.516,107.484 107.516,108.484 105.5,108.5C 102.151,107.33 98.8177,107.33 95.5,108.5C 97.2012,109.835 98.8679,111.168 100.5,112.5C 98.7839,112.629 97.1172,112.962 95.5,113.5C 95.5299,112.503 95.0299,111.836 94,111.5C 90.7515,110.73 87.5848,109.73 84.5,108.5C 85.9492,107.828 87.2825,107.161 88.5,106.5C 91.0593,106.802 93.3926,106.468 95.5,105.5C 99.6002,105.763 103.6,105.43 107.5,104.5 Z"/></g>
<g><path style="opacity:1" fill="#34e1e0" d="M 111.5,100.5 C 115.891,101.023 120.224,101.69 124.5,102.5C 125.391,103.11 126.391,103.443 127.5,103.5C 131.812,107.154 136.812,109.488 142.5,110.5C 143.234,111.708 143.567,113.041 143.5,114.5C 146.872,115.449 150.205,115.449 153.5,114.5C 154.386,115.325 154.719,116.325 154.5,117.5C 158.708,117.677 162.374,119.01 165.5,121.5C 156.355,119.927 147.355,117.76 138.5,115C 132.612,112.555 127.612,108.888 123.5,104C 118.829,103.462 114.162,102.962 109.5,102.5C 109.833,101.5 110.5,100.833 111.5,100.5 Z"/></g>
<g><path style="opacity:1" fill="#f5fd5f" d="M 119.5,120.5 C 116.588,119.571 113.921,118.238 111.5,116.5C 111.5,115.5 111.5,114.5 111.5,113.5C 114.297,112.639 116.963,112.305 119.5,112.5C 123.219,115.284 123.219,117.951 119.5,120.5 Z"/></g>
<g><path style="opacity:1" fill="#55e2ea" d="M 159.5,96.5 C 161.5,97.1667 163.5,97.8333 165.5,98.5C 166.11,99.391 166.443,100.391 166.5,101.5C 166.751,103.17 167.418,104.67 168.5,106C 166.498,110.014 167.665,112.514 172,113.5C 172.689,112.643 173.522,111.977 174.5,111.5C 176.366,111.098 178.366,111.098 180.5,111.5C 180.023,112.931 179.357,114.264 178.5,115.5C 176.678,114.571 175.345,115.238 174.5,117.5C 176.877,119.252 177.044,121.252 175,123.5C 174.331,120.972 173.498,120.972 172.5,123.5C 178.134,127.139 183.467,131.139 188.5,135.5C 189.871,138.774 191.704,141.774 194,144.5C 194.49,145.793 194.657,147.127 194.5,148.5C 187.071,137.07 177.404,128.07 165.5,121.5C 162.374,119.01 158.708,117.677 154.5,117.5C 154.719,116.325 154.386,115.325 153.5,114.5C 150.205,115.449 146.872,115.449 143.5,114.5C 143.567,113.041 143.234,111.708 142.5,110.5C 144.292,110.634 145.958,110.301 147.5,109.5C 148.5,109.167 149.167,108.5 149.5,107.5C 150.5,107.167 151.167,106.5 151.5,105.5C 152.5,105.167 153.167,104.5 153.5,103.5C 155.5,101.167 157.5,98.8333 159.5,96.5 Z"/></g>
<g><path style="opacity:1" fill="#5659c7" d="M 174.5,102.5 C 174.833,102.5 175.167,102.5 175.5,102.5C 186.643,110.478 194.643,120.812 199.5,133.5C 199.716,135.681 198.883,137.347 197,138.5C 195.928,141.553 196.928,143.553 200,144.5C 201.465,143.67 202.965,143.504 204.5,144C 202.937,145.947 200.937,147.114 198.5,147.5C 198.611,146.883 198.944,146.383 199.5,146C 193.85,143.564 193.183,140.23 197.5,136C 194.13,136.163 192.13,134.663 191.5,131.5C 192.204,129.465 192.871,127.465 193.5,125.5C 192.167,125.5 190.833,125.5 189.5,125.5C 190.032,120.795 188.032,117.962 183.5,117C 181.536,114.833 181.202,112.499 182.5,110C 176.746,110.745 174.079,108.245 174.5,102.5 Z"/></g>
<g><path style="opacity:1" fill="#603124" d="M 51.5,101.5 C 51.5,101.833 51.5,102.167 51.5,102.5C 51.5,103.167 51.1667,103.5 50.5,103.5C 49.596,104.209 49.2627,105.209 49.5,106.5C 57.047,106.594 64.3803,105.928 71.5,104.5C 72.5,104.5 73.5,104.5 74.5,104.5C 74.5,104.833 74.5,105.167 74.5,105.5C 73.1667,106.167 73.1667,106.833 74.5,107.5C 74.8333,107.5 75.1667,107.5 75.5,107.5C 79.7193,112.96 85.0526,114.96 91.5,113.5C 92.8333,113.5 94.1667,113.5 95.5,113.5C 97.1172,112.962 98.7839,112.629 100.5,112.5C 103.866,112.212 107.2,112.046 110.5,112C 109.263,112.232 108.263,112.732 107.5,113.5C 106.127,113.343 104.793,113.51 103.5,114C 104.056,114.383 104.389,114.883 104.5,115.5C 103.508,115.328 102.842,115.662 102.5,116.5C 95.9131,115.705 89.2464,115.205 82.5,115C 78.5,112.667 74.5,110.333 70.5,108C 63.1704,107.832 55.8371,107.999 48.5,108.5C 48.3379,106.473 48.5045,104.473 49,102.5C 49.6708,101.748 50.5041,101.414 51.5,101.5 Z"/></g>
<g><path style="opacity:1" fill="#68d5b1" d="M 107.5,113.5 C 108.262,115.262 109.596,116.262 111.5,116.5C 111.5,117.167 111.5,117.833 111.5,118.5C 109.313,117.242 106.98,116.242 104.5,115.5C 104.389,114.883 104.056,114.383 103.5,114C 104.793,113.51 106.127,113.343 107.5,113.5 Z"/></g>
<g><path style="opacity:1" fill="#6f1339" d="M 213.5,115.5 C 213.167,115.5 212.833,115.5 212.5,115.5C 212.47,114.503 212.97,113.836 214,113.5C 225.382,117.537 225.215,118.203 213.5,115.5 Z"/></g>
<g><path style="opacity:1" fill="#59daee" d="M 166.5,101.5 C 169.054,102.388 171.721,102.721 174.5,102.5C 174.079,108.245 176.746,110.745 182.5,110C 181.202,112.499 181.536,114.833 183.5,117C 188.032,117.962 190.032,120.795 189.5,125.5C 190.833,125.5 192.167,125.5 193.5,125.5C 192.871,127.465 192.204,129.465 191.5,131.5C 192.13,134.663 194.13,136.163 197.5,136C 193.183,140.23 193.85,143.564 199.5,146C 198.944,146.383 198.611,146.883 198.5,147.5C 196.896,148.287 196.229,149.62 196.5,151.5C 195.094,151.027 194.427,150.027 194.5,148.5C 194.657,147.127 194.49,145.793 194,144.5C 191.704,141.774 189.871,138.774 188.5,135.5C 183.467,131.139 178.134,127.139 172.5,123.5C 173.498,120.972 174.331,120.972 175,123.5C 177.044,121.252 176.877,119.252 174.5,117.5C 175.345,115.238 176.678,114.571 178.5,115.5C 179.357,114.264 180.023,112.931 180.5,111.5C 178.366,111.098 176.366,111.098 174.5,111.5C 173.522,111.977 172.689,112.643 172,113.5C 167.665,112.514 166.498,110.014 168.5,106C 167.418,104.67 166.751,103.17 166.5,101.5 Z"/></g>
<g><path style="opacity:1" fill="#802916" d="M 102.5,116.5 C 102.842,115.662 103.508,115.328 104.5,115.5C 106.98,116.242 109.313,117.242 111.5,118.5C 112.5,119.167 113.5,119.833 114.5,120.5C 114.915,123.288 114.249,125.955 112.5,128.5C 112.244,126.208 112.577,124.041 113.5,122C 110.057,119.688 106.391,117.854 102.5,116.5 Z"/></g>
<g><path style="opacity:1" fill="#8c1541" d="M 213.5,117.5 C 216.757,118.462 219.757,119.962 222.5,122C 219.577,121.224 216.577,120.391 213.5,119.5C 213.5,118.833 213.5,118.167 213.5,117.5 Z"/></g>
<g><path style="opacity:1" fill="#c7c534" d="M 79.5,139.5 C 67.6806,136.212 55.6806,133.878 43.5,132.5C 43.3893,131.883 43.056,131.383 42.5,131C 38.5272,129.972 34.5272,129.139 30.5,128.5C 29.6317,125.673 29.6317,122.673 30.5,119.5C 32.288,119.785 33.9547,119.452 35.5,118.5C 38.0859,113.038 42.4192,110.372 48.5,110.5C 49.0555,114.997 48.3888,119.164 46.5,123C 48.0268,124.632 49.6934,124.799 51.5,123.5C 57.0644,114.541 64.3977,113.041 73.5,119C 75.3773,121.251 76.8773,123.751 78,126.5C 78.101,129.921 78.9343,133.088 80.5,136C 80.0109,137.138 79.6775,138.305 79.5,139.5 Z"/></g>
<g><path style="opacity:1" fill="#b5e3a5" d="M 111.5,116.5 C 113.921,118.238 116.588,119.571 119.5,120.5C 121.279,121.574 122.946,122.907 124.5,124.5C 125.728,122.824 127.061,122.491 128.5,123.5C 128.5,124.5 128.5,125.5 128.5,126.5C 128.5,126.833 128.5,127.167 128.5,127.5C 127.167,127.167 125.833,126.833 124.5,126.5C 123.205,125.512 121.872,124.512 120.5,123.5C 119.167,122.833 117.833,122.167 116.5,121.5C 116.158,120.662 115.492,120.328 114.5,120.5C 113.5,119.833 112.5,119.167 111.5,118.5C 111.5,117.833 111.5,117.167 111.5,116.5 Z"/></g>
<g><path style="opacity:1" fill="#5259c2" d="M 180.5,96.5 C 185.9,96.9064 188.567,99.9064 188.5,105.5C 190.48,104.617 192.48,104.783 194.5,106C 195.12,108.473 195.786,110.973 196.5,113.5C 197.736,114.246 199.07,114.579 200.5,114.5C 200.726,117.249 200.393,119.916 199.5,122.5C 201.669,123.909 203.335,125.742 204.5,128C 204.475,129.876 203.809,131.376 202.5,132.5C 201.5,132.5 200.5,132.5 199.5,132.5C 196.803,124.104 192.803,116.437 187.5,109.5C 186.193,106.485 185.693,103.485 186,100.5C 184.5,98.5313 182.667,97.198 180.5,96.5 Z"/></g>
<g><path style="opacity:1" fill="#171507" d="M 60.5,126.5 C 63.9079,125.828 66.5745,126.828 68.5,129.5C 68.1667,129.833 67.8333,130.167 67.5,130.5C 65.7049,129.735 63.8716,129.068 62,128.5C 60.9701,128.164 60.4701,127.497 60.5,126.5 Z"/></g>
<g><path style="opacity:1" fill="#841a36" d="M 116.5,121.5 C 117.833,122.167 119.167,122.833 120.5,123.5C 119.5,125.5 118.5,127.5 117.5,129.5C 116.799,134.478 115.966,139.478 115,144.5C 114.837,136.803 115.337,129.136 116.5,121.5 Z"/></g>
<g><path style="opacity:1" fill="#552c66" d="M 142.5,133.5 C 142.833,134.167 143.167,134.833 143.5,135.5C 144.069,138.335 145.736,140.001 148.5,140.5C 149.644,143.567 148.977,146.233 146.5,148.5C 146.443,147.391 146.11,146.391 145.5,145.5C 142.608,140.057 139.441,134.724 136,129.5C 135.667,130.5 135.333,131.5 135,132.5C 134.236,128.901 132.07,126.901 128.5,126.5C 128.5,125.5 128.5,124.5 128.5,123.5C 128.897,122.475 129.563,122.308 130.5,123C 134.668,126.336 138.668,129.836 142.5,133.5 Z"/></g>
<g><path style="opacity:1" fill="#f6fd4d" d="M 142.5,124.5 C 150.5,126.833 158.5,129.167 166.5,131.5C 166.5,133.833 166.5,136.167 166.5,138.5C 158.899,139.103 151.565,138.103 144.5,135.5C 144.167,135.5 143.833,135.5 143.5,135.5C 143.167,134.833 142.833,134.167 142.5,133.5C 143.734,130.535 143.734,127.535 142.5,124.5 Z"/></g>
<g><path style="opacity:1" fill="#8bf987" d="M 109.5,102.5 C 114.162,102.962 118.829,103.462 123.5,104C 127.612,108.888 132.612,112.555 138.5,115C 147.355,117.76 156.355,119.927 165.5,121.5C 177.404,128.07 187.071,137.07 194.5,148.5C 194.427,150.027 195.094,151.027 196.5,151.5C 196.975,159.312 196.308,166.979 194.5,174.5C 194.443,175.609 194.11,176.609 193.5,177.5C 192.291,179.941 190.624,181.941 188.5,183.5C 197.047,164.356 193.047,148.356 176.5,135.5C 173.66,133.085 170.327,131.752 166.5,131.5C 158.5,129.167 150.5,126.833 142.5,124.5C 138.722,122.108 134.722,119.941 130.5,118C 124.157,111.998 116.823,107.831 108.5,105.5C 107.833,105.5 107.5,105.167 107.5,104.5C 108.167,103.833 108.833,103.167 109.5,102.5 Z"/></g>
<g><path style="opacity:1" fill="#6c61df" d="M 212.5,115.5 C 212.833,115.5 213.167,115.5 213.5,115.5C 213.5,116.167 213.5,116.833 213.5,117.5C 213.5,118.167 213.5,118.833 213.5,119.5C 213.232,121.099 213.566,122.432 214.5,123.5C 214.827,133.348 214.494,143.014 213.5,152.5C 213.999,143.611 212.999,134.945 210.5,126.5C 210.5,125.167 210.5,123.833 210.5,122.5C 211.268,123.263 211.768,124.263 212,125.5C 212.498,122.183 212.665,118.85 212.5,115.5 Z"/></g>
<g><path style="opacity:1" fill="#b4c644" d="M 30.5,128.5 C 34.5272,129.139 38.5272,129.972 42.5,131C 43.056,131.383 43.3893,131.883 43.5,132.5C 55.6806,133.878 67.6806,136.212 79.5,139.5C 79.0457,142.253 77.379,143.92 74.5,144.5C 74.0576,145.739 73.3909,146.739 72.5,147.5C 69.4318,147.453 66.4318,146.953 63.5,146C 62.224,143.834 62.5574,141.834 64.5,140C 64.1639,138.97 63.4972,138.47 62.5,138.5C 61.0222,138.238 59.6888,138.571 58.5,139.5C 55.1037,146.031 49.7704,148.531 42.5,147C 39.4384,145.939 36.9384,144.106 35,141.5C 33.5497,137.031 32.0497,132.698 30.5,128.5 Z"/></g>
<g><path style="opacity:1" fill="#080902" d="M 43.5,132.5 C 45.2774,133.6 47.2774,134.434 49.5,135C 46.2552,137.19 43.5886,136.523 41.5,133C 42.0944,132.536 42.7611,132.369 43.5,132.5 Z"/></g>
<g><path style="opacity:1" fill="#735bb7" d="M 124.5,126.5 C 125.016,132.56 125.683,138.56 126.5,144.5C 126.167,145.5 125.5,146.167 124.5,146.5C 123.834,142.316 123.167,137.982 122.5,133.5C 121.505,138.792 121.172,144.125 121.5,149.5C 121.167,149.5 120.833,149.5 120.5,149.5C 118.903,141.829 119.403,134.163 122,126.5C 122.77,127.598 123.603,127.598 124.5,126.5 Z"/></g>
<g><path style="opacity:1" fill="#5b43cd" d="M 128.5,126.5 C 132.07,126.901 134.236,128.901 135,132.5C 135.333,131.5 135.667,130.5 136,129.5C 139.441,134.724 142.608,140.057 145.5,145.5C 144.883,145.389 144.383,145.056 144,144.5C 144,145.833 144,147.167 144,148.5C 142.333,146.167 140.667,143.833 139,141.5C 138.667,142.167 138.333,142.833 138,143.5C 137.623,142.058 136.79,141.058 135.5,140.5C 134.596,139.791 134.263,138.791 134.5,137.5C 133.209,133.903 131.209,130.903 128.5,128.5C 128.5,128.167 128.5,127.833 128.5,127.5C 128.5,127.167 128.5,126.833 128.5,126.5 Z"/></g>
<g><path style="opacity:1" fill="#dbea75" d="M 166.5,131.5 C 170.327,131.752 173.66,133.085 176.5,135.5C 176.946,138.01 176.28,140.01 174.5,141.5C 172.167,141.5 169.833,141.5 167.5,141.5C 162.138,141.528 156.805,141.194 151.5,140.5C 148.991,139.079 146.657,137.412 144.5,135.5C 151.565,138.103 158.899,139.103 166.5,138.5C 166.5,136.167 166.5,133.833 166.5,131.5 Z"/></g>
<g><path style="opacity:1" fill="#794147" d="M 124.5,126.5 C 125.833,126.833 127.167,127.167 128.5,127.5C 128.5,127.833 128.5,128.167 128.5,128.5C 128.821,131.845 129.155,135.178 129.5,138.5C 128.797,140.629 127.797,142.629 126.5,144.5C 125.683,138.56 125.016,132.56 124.5,126.5 Z"/></g>
<g><path style="opacity:1" fill="#5f1e20" d="M 143.5,135.5 C 143.833,135.5 144.167,135.5 144.5,135.5C 146.657,137.412 148.991,139.079 151.5,140.5C 150.5,140.5 149.5,140.5 148.5,140.5C 145.736,140.001 144.069,138.335 143.5,135.5 Z"/></g>
<g><path style="opacity:1" fill="#edf293" d="M 176.5,135.5 C 193.047,148.356 197.047,164.356 188.5,183.5C 186.833,185.5 185.167,187.5 183.5,189.5C 182.833,189.5 182.167,189.5 181.5,189.5C 181.5,189.167 181.5,188.833 181.5,188.5C 181.5,188.167 181.5,187.833 181.5,187.5C 182.167,187.5 182.5,187.167 182.5,186.5C 189.578,176.289 191.245,165.289 187.5,153.5C 186.243,150.573 184.243,148.239 181.5,146.5C 181.5,145.833 181.167,145.5 180.5,145.5C 179.089,143.461 177.089,142.461 174.5,142.5C 174.5,142.167 174.5,141.833 174.5,141.5C 176.28,140.01 176.946,138.01 176.5,135.5 Z"/></g>
<g><path style="opacity:1" fill="#696ecb" d="M 199.5,132.5 C 200.5,132.5 201.5,132.5 202.5,132.5C 203.848,133.601 205.348,134.601 207,135.5C 207.944,138.347 207.444,140.847 205.5,143C 206.868,144.34 208.201,145.674 209.5,147C 208.661,148.984 207.661,150.817 206.5,152.5C 209.382,156.421 208.882,157.088 205,154.5C 204.5,155.5 204,156.5 203.5,157.5C 204.247,157.736 205.08,158.07 206,158.5C 206.684,159.784 206.517,160.951 205.5,162C 203.421,162.808 201.421,162.641 199.5,161.5C 198.972,159.664 198.306,157.997 197.5,156.5C 197.784,154.585 197.451,152.919 196.5,151.5C 196.229,149.62 196.896,148.287 198.5,147.5C 200.937,147.114 202.937,145.947 204.5,144C 202.965,143.504 201.465,143.67 200,144.5C 196.928,143.553 195.928,141.553 197,138.5C 198.883,137.347 199.716,135.681 199.5,133.5C 199.5,133.167 199.5,132.833 199.5,132.5 Z"/></g>
<g><path style="opacity:1" fill="#662a5a" d="M 120.5,123.5 C 121.872,124.512 123.205,125.512 124.5,126.5C 123.603,127.598 122.77,127.598 122,126.5C 119.403,134.163 118.903,141.829 120.5,149.5C 120.027,150.906 119.027,151.573 117.5,151.5C 118.198,143.993 118.198,136.659 117.5,129.5C 118.5,127.5 119.5,125.5 120.5,123.5 Z"/></g>
<g><path style="opacity:1" fill="#7a2b64" d="M 134.5,137.5 C 134.263,138.791 134.596,139.791 135.5,140.5C 136.34,143.174 136.84,145.841 137,148.5C 135.121,145.539 133.621,142.373 132.5,139C 132.836,137.97 133.503,137.47 134.5,137.5 Z"/></g>
<g><path style="opacity:1" fill="#702146" d="M 124.5,146.5 C 123.833,147.833 122.833,148.833 121.5,149.5C 121.172,144.125 121.505,138.792 122.5,133.5C 123.167,137.982 123.834,142.316 124.5,146.5 Z"/></g>
<g><path style="opacity:1" fill="#794eba" d="M 128.5,128.5 C 131.209,130.903 133.209,133.903 134.5,137.5C 133.503,137.47 132.836,137.97 132.5,139C 133.621,142.373 135.121,145.539 137,148.5C 136.84,145.841 136.34,143.174 135.5,140.5C 136.79,141.058 137.623,142.058 138,143.5C 138.333,142.833 138.667,142.167 139,141.5C 140.667,143.833 142.333,146.167 144,148.5C 144,147.167 144,145.833 144,144.5C 144.383,145.056 144.883,145.389 145.5,145.5C 146.11,146.391 146.443,147.391 146.5,148.5C 146.065,151.157 145.065,153.491 143.5,155.5C 141.589,155.434 139.589,154.767 137.5,153.5C 136.534,151.137 135.034,149.137 133,147.5C 132.1,144.282 130.933,141.282 129.5,138.5C 129.155,135.178 128.821,131.845 128.5,128.5 Z"/></g>
<g><path style="opacity:1" fill="#7e65c9" d="M 114.5,120.5 C 115.492,120.328 116.158,120.662 116.5,121.5C 115.337,129.136 114.837,136.803 115,144.5C 115.966,139.478 116.799,134.478 117.5,129.5C 118.198,136.659 118.198,143.993 117.5,151.5C 116.713,153.104 115.38,153.771 113.5,153.5C 112.668,145.195 112.335,136.862 112.5,128.5C 114.249,125.955 114.915,123.288 114.5,120.5 Z"/></g>
<g><path style="opacity:1" fill="#5a275b" d="M 174.5,142.5 C 177.089,142.461 179.089,143.461 180.5,145.5C 179.883,145.611 179.383,145.944 179,146.5C 178.833,148.5 178.667,150.5 178.5,152.5C 179.168,157.166 179.335,161.833 179,166.5C 177.94,159.178 176.94,151.844 176,144.5C 175.667,148.5 175.333,152.5 175,156.5C 174.501,151.845 174.334,147.179 174.5,142.5 Z"/></g>
<g><path style="opacity:1" fill="#501f30" d="M 181.5,146.5 C 184.243,148.239 186.243,150.573 187.5,153.5C 185.386,154.784 184.386,156.784 184.5,159.5C 183.19,155.35 182.19,151.017 181.5,146.5 Z"/></g>
<g><path style="opacity:1" fill="#7e6570" d="M 137.5,153.5 C 139.589,154.767 141.589,155.434 143.5,155.5C 143.372,157.09 142.705,158.423 141.5,159.5C 139.748,157.754 138.415,155.754 137.5,153.5 Z"/></g>
<g><path style="opacity:1" fill="#a9a58d" d="M 171.5,159.5 C 171.5,160.167 171.167,160.5 170.5,160.5C 170.581,156.552 170.248,152.552 169.5,148.5C 170.222,148.082 170.722,147.416 171,146.5C 171.499,150.821 171.666,155.154 171.5,159.5 Z"/></g>
<g><path style="opacity:1" fill="#887333" d="M 167.5,142.5 C 168.458,144.302 169.125,146.302 169.5,148.5C 170.248,152.552 170.581,156.552 170.5,160.5C 170.54,163.988 171.207,167.321 172.5,170.5C 171.504,170.586 170.671,170.252 170,169.5C 167.788,160.652 166.954,151.652 167.5,142.5 Z"/></g>
<g><path style="opacity:1" fill="#9dca5a" d="M 62.5,138.5 C 63.4972,138.47 64.1639,138.97 64.5,140C 62.5574,141.834 62.224,143.834 63.5,146C 66.4318,146.953 69.4318,147.453 72.5,147.5C 72.1961,148.15 71.8627,148.817 71.5,149.5C 73.6407,156.396 75.3074,163.396 76.5,170.5C 74.0866,168.127 71.0866,166.794 67.5,166.5C 66.2867,166.747 65.62,167.414 65.5,168.5C 64.6942,167.003 64.0276,165.336 63.5,163.5C 61.604,162.534 59.604,162.201 57.5,162.5C 57.6287,164.216 57.962,165.883 58.5,167.5C 58.2089,168.649 57.3756,169.316 56,169.5C 54.175,169.057 52.3417,168.723 50.5,168.5C 49.596,167.791 49.2627,166.791 49.5,165.5C 43.2756,164.293 37.2756,162.96 31.5,161.5C 30.5655,160.432 30.2322,159.099 30.5,157.5C 40.7394,154.985 51.0728,152.985 61.5,151.5C 60.9564,147.327 61.623,143.494 63.5,140C 62.944,139.617 62.6107,139.117 62.5,138.5 Z"/></g>
<g><path style="opacity:1" fill="#723c61" d="M 167.5,142.5 C 167.5,142.167 167.5,141.833 167.5,141.5C 169.833,141.5 172.167,141.5 174.5,141.5C 174.5,141.833 174.5,142.167 174.5,142.5C 172.854,147.927 171.854,153.594 171.5,159.5C 171.666,155.154 171.499,150.821 171,146.5C 170.722,147.416 170.222,148.082 169.5,148.5C 169.125,146.302 168.458,144.302 167.5,142.5 Z"/></g>
<g><path style="opacity:1" fill="#080b05" d="M 65.5,168.5 C 66.5749,172.938 64.9083,174.938 60.5,174.5C 60.2785,171.933 59.6118,169.599 58.5,167.5C 57.962,165.883 57.6287,164.216 57.5,162.5C 59.604,162.201 61.604,162.534 63.5,163.5C 64.0276,165.336 64.6942,167.003 65.5,168.5 Z"/></g>
<g><path style="opacity:1" fill="#694fb3" d="M 174.5,142.5 C 174.334,147.179 174.501,151.845 175,156.5C 175.333,152.5 175.667,148.5 176,144.5C 176.94,151.844 177.94,159.178 179,166.5C 179.335,161.833 179.168,157.166 178.5,152.5C 178.667,150.5 178.833,148.5 179,146.5C 179.383,145.944 179.883,145.611 180.5,145.5C 181.167,145.5 181.5,145.833 181.5,146.5C 182.19,151.017 183.19,155.35 184.5,159.5C 184.5,160.833 184.5,162.167 184.5,163.5C 181.45,167.362 177.45,169.695 172.5,170.5C 171.207,167.321 170.54,163.988 170.5,160.5C 171.167,160.5 171.5,160.167 171.5,159.5C 171.854,153.594 172.854,147.927 174.5,142.5 Z"/></g>
<g><path style="opacity:0.549" fill="#056c8d" d="M 279.5,157.5 C 279.5,158.833 279.5,160.167 279.5,161.5C 278.712,164.887 277.712,168.22 276.5,171.5C 276.443,166.469 277.443,161.802 279.5,157.5 Z"/></g>
<g><path style="opacity:1" fill="#090d06" d="M 49.5,165.5 C 49.2627,166.791 49.596,167.791 50.5,168.5C 51.2209,171.817 51.3876,175.151 51,178.5C 49.9505,179.517 48.7839,179.684 47.5,179C 45.4723,174.726 44.1389,170.226 43.5,165.5C 45.5,165.5 47.5,165.5 49.5,165.5 Z"/></g>
<g><path style="opacity:1" fill="#474ac9" d="M 206.5,152.5 C 208.027,152.427 209.027,153.094 209.5,154.5C 207.953,160.808 205.62,166.808 202.5,172.5C 200.744,171.448 200.077,169.781 200.5,167.5C 201.954,164.6 200.954,163.267 197.5,163.5C 197.5,161.167 197.5,158.833 197.5,156.5C 198.306,157.997 198.972,159.664 199.5,161.5C 201.421,162.641 203.421,162.808 205.5,162C 206.517,160.951 206.684,159.784 206,158.5C 205.08,158.07 204.247,157.736 203.5,157.5C 204,156.5 204.5,155.5 205,154.5C 208.882,157.088 209.382,156.421 206.5,152.5 Z"/></g>
<g><path style="opacity:1" fill="#6c2820" d="M 222.5,125.5 C 220.678,128.038 218.678,128.038 216.5,125.5C 217.846,140.087 216.013,154.421 211,168.5C 209.556,172.411 207.389,175.744 204.5,178.5C 206.895,173.647 208.895,168.647 210.5,163.5C 212.874,160.314 213.874,156.647 213.5,152.5C 214.494,143.014 214.827,133.348 214.5,123.5C 214.435,123.062 214.601,122.728 215,122.5C 217.472,123.601 219.972,124.601 222.5,125.5 Z"/></g>
<g><path style="opacity:1" fill="#2bc1c8" d="M 196.5,151.5 C 197.451,152.919 197.784,154.585 197.5,156.5C 197.5,158.833 197.5,161.167 197.5,163.5C 200.954,163.267 201.954,164.6 200.5,167.5C 199.566,168.568 199.232,169.901 199.5,171.5C 197.336,171.721 195.67,172.721 194.5,174.5C 196.308,166.979 196.975,159.312 196.5,151.5 Z"/></g>
<g><path style="opacity:1" fill="#584792" d="M 210.5,163.5 C 208.895,168.647 206.895,173.647 204.5,178.5C 203.167,179.5 201.833,180.5 200.5,181.5C 203.851,175.46 207.184,169.46 210.5,163.5 Z"/></g>
<g><path style="opacity:1" fill="#6d3319" d="M 187.5,153.5 C 191.245,165.289 189.578,176.289 182.5,186.5C 180.721,184.656 178.388,183.99 175.5,184.5C 177.698,183.835 180.031,183.168 182.5,182.5C 185.396,176.978 187.396,171.145 188.5,165C 188.204,163.112 187.704,161.278 187,159.5C 186.8,161.32 185.966,162.653 184.5,163.5C 184.5,162.167 184.5,160.833 184.5,159.5C 184.386,156.784 185.386,154.784 187.5,153.5 Z"/></g>
<g><path style="opacity:1" fill="#3aabdf" d="M 200.5,167.5 C 200.077,169.781 200.744,171.448 202.5,172.5C 200.212,176.456 197.212,179.789 193.5,182.5C 193.5,180.833 193.5,179.167 193.5,177.5C 194.11,176.609 194.443,175.609 194.5,174.5C 195.67,172.721 197.336,171.721 199.5,171.5C 199.232,169.901 199.566,168.568 200.5,167.5 Z"/></g>
<g><path style="opacity:1" fill="#85cb6d" d="M 31.5,161.5 C 37.2756,162.96 43.2756,164.293 49.5,165.5C 47.5,165.5 45.5,165.5 43.5,165.5C 44.1389,170.226 45.4723,174.726 47.5,179C 48.7839,179.684 49.9505,179.517 51,178.5C 51.3876,175.151 51.2209,171.817 50.5,168.5C 52.3417,168.723 54.175,169.057 56,169.5C 57.3756,169.316 58.2089,168.649 58.5,167.5C 59.6118,169.599 60.2785,171.933 60.5,174.5C 64.9083,174.938 66.5749,172.938 65.5,168.5C 65.62,167.414 66.2867,166.747 67.5,166.5C 71.0866,166.794 74.0866,168.127 76.5,170.5C 76.7279,182.964 71.0612,187.297 59.5,183.5C 55.3316,191.421 49.3316,193.254 41.5,189C 38.8941,187.062 37.0608,184.562 36,181.5C 34.1801,174.889 32.6801,168.222 31.5,161.5 Z"/></g>
<g><path style="opacity:1" fill="#dce2c6" d="M 210.5,163.5 C 207.184,169.46 203.851,175.46 200.5,181.5C 199.167,182.5 197.833,183.5 196.5,184.5C 195.5,184.5 194.5,184.5 193.5,184.5C 193.5,183.833 193.5,183.167 193.5,182.5C 197.212,179.789 200.212,176.456 202.5,172.5C 205.62,166.808 207.953,160.808 209.5,154.5C 210.222,154.082 210.722,153.416 211,152.5C 211.167,153.167 211.333,153.833 211.5,154.5C 210.698,157.449 210.364,160.449 210.5,163.5 Z"/></g>
<g><path style="opacity:1" fill="#b77672" d="M 142.5,184.5 C 151.5,184.5 160.5,184.5 169.5,184.5C 169.5,184.833 169.5,185.167 169.5,185.5C 164.838,185.962 160.171,186.462 155.5,187C 153.685,187.757 152.019,188.59 150.5,189.5C 150.5,189.833 150.5,190.167 150.5,190.5C 150.167,190.5 149.833,190.5 149.5,190.5C 145.679,189.774 141.679,189.774 137.5,190.5C 136.172,189.493 135.172,188.16 134.5,186.5C 137.717,186.342 141.05,186.175 144.5,186C 143.584,185.722 142.918,185.222 142.5,184.5 Z"/></g>
<g><path style="opacity:1" fill="#913d74" d="M 169.5,185.5 C 169.5,185.167 169.5,184.833 169.5,184.5C 171.5,184.5 173.5,184.5 175.5,184.5C 178.388,183.99 180.721,184.656 182.5,186.5C 182.5,187.167 182.167,187.5 181.5,187.5C 180.448,185.744 178.781,185.077 176.5,185.5C 174.167,185.5 171.833,185.5 169.5,185.5 Z"/></g>
<g><path style="opacity:1" fill="#7deba9" d="M 193.5,177.5 C 193.5,179.167 193.5,180.833 193.5,182.5C 193.5,183.167 193.5,183.833 193.5,184.5C 192.761,184.369 192.094,184.536 191.5,185C 190.512,187.167 189.179,189 187.5,190.5C 185.863,191.218 184.197,191.384 182.5,191C 183.056,190.617 183.389,190.117 183.5,189.5C 185.167,187.5 186.833,185.5 188.5,183.5C 190.624,181.941 192.291,179.941 193.5,177.5 Z"/></g>
<g><path style="opacity:1" fill="#979bd1" d="M 169.5,185.5 C 171.833,185.5 174.167,185.5 176.5,185.5C 170.167,186.833 163.833,188.167 157.5,189.5C 155.167,189.5 152.833,189.5 150.5,189.5C 152.019,188.59 153.685,187.757 155.5,187C 160.171,186.462 164.838,185.962 169.5,185.5 Z"/></g>
<g><path style="opacity:1" fill="#6842a1" d="M 176.5,185.5 C 178.781,185.077 180.448,185.744 181.5,187.5C 181.5,187.833 181.5,188.167 181.5,188.5C 168.499,193.342 155.832,198.676 143.5,204.5C 142.348,205.625 141.348,205.625 140.5,204.5C 147.932,200.554 154.932,196.887 161.5,193.5C 163.019,192.59 164.685,191.757 166.5,191C 165.207,190.51 163.873,190.343 162.5,190.5C 161.081,189.549 159.415,189.216 157.5,189.5C 163.833,188.167 170.167,186.833 176.5,185.5 Z"/></g>
<g><path style="opacity:1" fill="#a88355" d="M 142.5,184.5 C 142.918,185.222 143.584,185.722 144.5,186C 141.05,186.175 137.717,186.342 134.5,186.5C 135.172,188.16 136.172,189.493 137.5,190.5C 136.791,191.404 135.791,191.737 134.5,191.5C 134.5,192.5 134.5,193.5 134.5,194.5C 129.893,185.762 132.56,182.428 142.5,184.5 Z"/></g>
<g><path style="opacity:1" fill="#aea4ca" d="M 149.5,190.5 C 145.714,190.32 142.381,191.32 139.5,193.5C 137.784,193.629 136.117,193.962 134.5,194.5C 134.5,193.5 134.5,192.5 134.5,191.5C 135.791,191.737 136.791,191.404 137.5,190.5C 141.679,189.774 145.679,189.774 149.5,190.5 Z"/></g>
<g><path style="opacity:1" fill="#7e2b63" d="M 150.5,190.5 C 150.5,190.167 150.5,189.833 150.5,189.5C 152.833,189.5 155.167,189.5 157.5,189.5C 159.415,189.216 161.081,189.549 162.5,190.5C 159.221,192.573 155.555,193.906 151.5,194.5C 151.5,193.5 151.5,192.5 151.5,191.5C 155.172,190.955 154.838,190.622 150.5,190.5 Z"/></g>
<g><path style="opacity:1" fill="#48c2e2" d="M 193.5,184.5 C 194.5,184.5 195.5,184.5 196.5,184.5C 194.146,187.851 191.146,190.518 187.5,192.5C 187.5,191.833 187.5,191.167 187.5,190.5C 189.179,189 190.512,187.167 191.5,185C 192.094,184.536 192.761,184.369 193.5,184.5 Z"/></g>
<g><path style="opacity:1" fill="#9febd3" d="M 181.5,189.5 C 182.167,189.5 182.833,189.5 183.5,189.5C 183.389,190.117 183.056,190.617 182.5,191C 184.197,191.384 185.863,191.218 187.5,190.5C 187.5,191.167 187.5,191.833 187.5,192.5C 184.366,193.901 181.366,195.568 178.5,197.5C 177.508,197.672 176.842,197.338 176.5,196.5C 176.833,195.833 177.167,195.167 177.5,194.5C 178.864,192.809 180.197,191.142 181.5,189.5 Z"/></g>
<g><path style="opacity:1" fill="#a13b55" d="M 149.5,190.5 C 149.833,190.5 150.167,190.5 150.5,190.5C 154.838,190.622 155.172,190.955 151.5,191.5C 151.5,192.5 151.5,193.5 151.5,194.5C 147.083,195.972 142.75,197.638 138.5,199.5C 135.689,196.738 136.355,194.904 140.5,194C 140.272,193.601 139.938,193.435 139.5,193.5C 142.381,191.32 145.714,190.32 149.5,190.5 Z"/></g>
<g><path style="opacity:1" fill="#71252c" d="M 204.5,178.5 C 202.796,182.052 200.462,185.219 197.5,188C 190.747,192.962 183.747,197.462 176.5,201.5C 176.527,199.801 177.194,198.467 178.5,197.5C 181.366,195.568 184.366,193.901 187.5,192.5C 191.146,190.518 194.146,187.851 196.5,184.5C 197.833,183.5 199.167,182.5 200.5,181.5C 201.833,180.5 203.167,179.5 204.5,178.5 Z"/></g>
<g><path style="opacity:1" fill="#8d7fd2" d="M 162.5,190.5 C 163.873,190.343 165.207,190.51 166.5,191C 164.685,191.757 163.019,192.59 161.5,193.5C 153.345,195.552 145.345,198.218 137.5,201.5C 137.5,201.167 137.5,200.833 137.5,200.5C 137.5,199.833 137.833,199.5 138.5,199.5C 142.75,197.638 147.083,195.972 151.5,194.5C 155.555,193.906 159.221,192.573 162.5,190.5 Z"/></g>
<g><path style="opacity:1" fill="#5f1c45" d="M 181.5,188.5 C 181.5,188.833 181.5,189.167 181.5,189.5C 180.197,191.142 178.864,192.809 177.5,194.5C 176.849,193.909 176.182,193.243 175.5,192.5C 171.137,194.506 166.804,196.506 162.5,198.5C 157.162,200.835 151.828,203.168 146.5,205.5C 145.791,204.596 144.791,204.263 143.5,204.5C 155.832,198.676 168.499,193.342 181.5,188.5 Z"/></g>
<g><path style="opacity:1" fill="#66cf89" d="M 63.5,212.5 C 61.6163,214.769 60.283,217.436 59.5,220.5C 50.7456,214.733 48.5789,207.066 53,197.5C 60.9208,190.695 68.5874,191.029 76,198.5C 78.8651,204.017 79.1984,209.683 77,215.5C 72.9461,220.057 68.4461,224.057 63.5,227.5C 61.0121,222.543 61.0121,217.543 63.5,212.5 Z"/></g>
<g><path style="opacity:1" fill="#896041" d="M 139.5,193.5 C 139.938,193.435 140.272,193.601 140.5,194C 136.355,194.904 135.689,196.738 138.5,199.5C 137.833,199.5 137.5,199.833 137.5,200.5C 135.992,198.819 134.992,196.819 134.5,194.5C 136.117,193.962 137.784,193.629 139.5,193.5 Z"/></g>
<g><path style="opacity:1" fill="#6b2d5f" d="M 161.5,193.5 C 154.932,196.887 147.932,200.554 140.5,204.5C 139.167,203.833 138.167,202.833 137.5,201.5C 145.345,198.218 153.345,195.552 161.5,193.5 Z"/></g>
<g><path style="opacity:1" fill="#8964be" d="M 162.5,198.5 C 161.694,199.728 160.694,200.728 159.5,201.5C 155.646,202.93 151.979,204.597 148.5,206.5C 147.292,207.782 145.958,207.782 144.5,206.5C 144.957,205.702 145.624,205.369 146.5,205.5C 151.828,203.168 157.162,200.835 162.5,198.5 Z"/></g>
<g><path style="opacity:1" fill="#0b130e" d="M 63.5,212.5 C 63.5228,210.4 62.8561,208.567 61.5,207C 63.8103,202.312 65.8103,202.478 67.5,207.5C 66.9047,209.761 65.5714,211.428 63.5,212.5 Z"/></g>
<g><path style="opacity:1" fill="#8550d0" d="M 177.5,194.5 C 177.167,195.167 176.833,195.833 176.5,196.5C 173.321,202.686 168.654,207.686 162.5,211.5C 155.807,220.206 148.64,228.539 141,236.5C 140.387,234.505 140.887,232.838 142.5,231.5C 143.5,230.167 144.5,228.833 145.5,227.5C 149.301,223.527 152.968,219.36 156.5,215C 154.953,214.667 153.62,215.167 152.5,216.5C 151.479,217.901 150.479,219.235 149.5,220.5C 148.691,219.531 147.691,218.698 146.5,218C 152.105,213.381 157.438,208.548 162.5,203.5C 161.398,202.824 160.398,202.158 159.5,201.5C 160.694,200.728 161.694,199.728 162.5,198.5C 166.804,196.506 171.137,194.506 175.5,192.5C 176.182,193.243 176.849,193.909 177.5,194.5 Z"/></g>
<g><path style="opacity:1" fill="#59d195" d="M 92.5,231.5 C 89.9872,231.825 87.4872,231.825 85,231.5C 84.1482,230.429 83.3149,229.429 82.5,228.5C 80.8328,224.661 80.3328,220.661 81,216.5C 82.8208,213.009 85.6542,211.843 89.5,213C 94.2262,215.69 98.5596,218.856 102.5,222.5C 101.32,225.54 99.653,228.206 97.5,230.5C 95.5781,229.289 93.7448,227.956 92,226.5C 91.6155,228.197 91.7822,229.863 92.5,231.5 Z"/></g>
<g><path style="opacity:1" fill="#824da3" d="M 159.5,201.5 C 160.398,202.158 161.398,202.824 162.5,203.5C 157.438,208.548 152.105,213.381 146.5,218C 147.691,218.698 148.691,219.531 149.5,220.5C 147.959,221.667 146.625,223 145.5,224.5C 144.5,225.167 143.5,225.833 142.5,226.5C 141.662,226.158 141.328,225.492 141.5,224.5C 144.873,216.956 150.207,211.123 157.5,207C 154.482,207.663 151.482,207.496 148.5,206.5C 151.979,204.597 155.646,202.93 159.5,201.5 Z"/></g>
<g><path style="opacity:1" fill="#802c4a" d="M 145.5,227.5 C 145.5,226.5 145.5,225.5 145.5,224.5C 146.625,223 147.959,221.667 149.5,220.5C 150.479,219.235 151.479,217.901 152.5,216.5C 153.62,215.167 154.953,214.667 156.5,215C 152.968,219.36 149.301,223.527 145.5,227.5 Z"/></g>
<g><path style="opacity:1" fill="#834148" d="M 161.5,219.5 C 155.173,228.146 148.84,236.812 142.5,245.5C 141.614,244.675 141.281,243.675 141.5,242.5C 147.459,234.272 154.125,226.606 161.5,219.5 Z"/></g>
<g><path style="opacity:1" fill="#773153" d="M 176.5,196.5 C 176.842,197.338 177.508,197.672 178.5,197.5C 177.194,198.467 176.527,199.801 176.5,201.5C 172.815,205.583 169.148,209.583 165.5,213.5C 165.361,211.663 164.694,211.33 163.5,212.5C 155.78,221.877 148.114,231.21 140.5,240.5C 139.239,235.1 139.572,229.767 141.5,224.5C 141.328,225.492 141.662,226.158 142.5,226.5C 141.28,228.284 141.28,229.95 142.5,231.5C 140.887,232.838 140.387,234.505 141,236.5C 148.64,228.539 155.807,220.206 162.5,211.5C 168.654,207.686 173.321,202.686 176.5,196.5 Z"/></g>
<g><path style="opacity:1" fill="#8d5428" d="M 145.5,224.5 C 145.5,225.5 145.5,226.5 145.5,227.5C 144.5,228.833 143.5,230.167 142.5,231.5C 141.28,229.95 141.28,228.284 142.5,226.5C 143.5,225.833 144.5,225.167 145.5,224.5 Z"/></g>
<g><path style="opacity:1" fill="#45cfa2" d="M 82.5,228.5 C 83.3149,229.429 84.1482,230.429 85,231.5C 87.4872,231.825 89.9872,231.825 92.5,231.5C 96.4087,239.842 93.742,243.676 84.5,243C 81.1667,241 77.8333,239 74.5,237C 73.1007,235.938 72.1007,234.605 71.5,233C 72.8676,230.433 74.3676,227.933 76,225.5C 78,226.833 80,228.167 82,229.5C 82.3988,229.272 82.5654,228.938 82.5,228.5 Z"/></g>
<g><path style="opacity:1" fill="#9358bc" d="M 165.5,213.5 C 163.674,215.147 162.34,217.147 161.5,219.5C 154.125,226.606 147.459,234.272 141.5,242.5C 140.662,242.158 140.328,241.492 140.5,240.5C 148.114,231.21 155.78,221.877 163.5,212.5C 164.694,211.33 165.361,211.663 165.5,213.5 Z"/></g>
<g><path style="opacity:1" fill="#47cea0" d="M 105.5,224.5 C 111.859,225.285 118.193,226.285 124.5,227.5C 124.058,231.154 123.724,234.821 123.5,238.5C 121.051,237.943 118.718,237.943 116.5,238.5C 118,240.833 119.5,243.167 121,245.5C 122.269,251.624 119.769,254.624 113.5,254.5C 108.764,253.649 104.098,252.483 99.5,251C 98.2324,247.413 98.5657,243.913 100.5,240.5C 103.102,241.654 105.768,242.154 108.5,242C 103.709,238.258 101.876,233.424 103,227.5C 104.045,226.627 104.878,225.627 105.5,224.5 Z"/></g>
</svg>
